<svg width="128" height="128" viewBox="0 0 128 128" fill="none" xmlns="http://www.w3.org/2000/svg">
<g clip-path="url(#clip0_222_77779)">
<rect width="128" height="128" rx="64" fill="#280A26"/>
<g filter="url(#filter0_f_222_77779)">
<path d="M60.9738 103.443C61.6766 103.443 62.2758 102.914 62.3576 102.201C63.1257 95.2709 61.9708 91.7189 61.9217 91.5718C61.6711 90.8418 60.8867 90.4496 60.1512 90.6893C59.4267 90.9344 59.0344 91.7189 59.2741 92.4489C59.285 92.4816 60.2765 95.6523 59.5847 101.89C59.4975 102.653 60.0477 103.345 60.8159 103.432C60.8703 103.437 60.9194 103.443 60.9738 103.443ZM40.2452 92.5524C42.5823 92.1439 44.7995 91.55 46.9514 90.9671C50.7593 89.9429 54.7035 88.8806 59.3886 88.8806C63.4907 88.8806 75.9824 88.8806 75.9824 76.1871C75.9824 75.4189 75.3559 74.7924 74.5877 74.7924C73.8196 74.7924 73.1931 75.419 73.1931 76.1871C73.1931 83.1277 69.0637 86.0913 59.3831 86.0913C54.3276 86.0913 50.2091 87.2027 46.2213 88.2759C44.0368 88.8642 41.9721 89.4199 39.7603 89.8067C33.3865 90.9072 31.1365 85.0834 30.5972 83.2693C29.4532 79.4286 30.5972 76.4922 34.0021 74.5418C38.7579 71.807 44.9684 65.6292 45.0283 65.5692C45.5731 65.0245 45.5731 64.1419 45.0283 63.5971C44.4835 63.0523 43.601 63.0523 43.0562 63.5971C41.4001 65.2533 36.2956 70.0092 32.6074 72.1284C28.064 74.738 26.4079 78.9764 27.9224 84.0756C29.5949 89.6978 33.953 93.6529 40.2343 92.5633L40.2452 92.5524ZM78.9132 61.1074C79.4035 61.1074 79.8775 60.8459 80.1335 60.3883C88.5231 45.2869 79.4253 32.0976 76.0368 32.2338C75.4213 32.2556 74.8819 32.5988 74.6095 33.1436C73.7651 34.7943 67.6964 50.3207 67.0099 52.0858C66.7321 52.8049 67.0862 53.6112 67.7999 53.8945C68.5135 54.1723 69.3252 53.8182 69.6085 53.1046C71.8802 47.2862 75.2469 38.7604 76.587 35.5734C79.1911 38.2755 84.105 47.5259 77.7039 59.0373C77.3334 59.7128 77.5731 60.5627 78.2486 60.9331C78.4611 61.053 78.6953 61.1074 78.9241 61.1074L78.9132 61.1074ZM76.0314 57.185C76.5217 57.185 76.9956 56.9289 77.2517 56.4659C79.7304 52.0041 78.1615 47.6022 77.3497 46.2784C77.1863 46.0114 76.6579 45.1779 75.7481 45.2379C75.2469 45.2596 74.7403 45.5865 74.5115 46.0332C74.25 46.5508 72.3215 51.7153 71.5043 53.9163C71.2374 54.6408 71.6024 55.4417 72.3269 55.7086C73.0515 55.9756 73.8523 55.6106 74.1192 54.886C74.6695 53.3987 75.2578 51.8243 75.7645 50.495C75.8898 51.8134 75.7372 53.4532 74.8165 55.1094C74.4406 55.7849 74.6858 56.6348 75.3613 57.0052C75.5738 57.1251 75.808 57.1795 76.0369 57.1795L76.0314 57.185Z" fill="#BBBDBF"/>
<path d="M35.1357 83.4158C35.4898 83.4158 35.8493 83.2796 36.1217 83.0072C36.6665 82.4625 36.6665 81.5799 36.1217 81.0351C35.9746 80.888 35.7948 80.7082 36.0345 80.3923C36.4921 79.793 36.3995 78.9159 35.8166 78.4474C35.2283 77.9734 34.3893 78.0333 33.8936 78.6054C33.1254 79.5043 32.5534 81.4165 34.1442 83.0072C34.4165 83.2796 34.7761 83.4158 35.1302 83.4158L35.1357 83.4158Z" fill="#BBBDBF"/>
<path d="M61.3577 69.9986C61.9351 69.1977 62.2239 68.2498 62.1803 67.3291C62.1312 66.3049 61.6573 65.3951 60.8837 64.8395C59.4019 63.7771 57.0703 64.3328 55.8445 66.038C54.6025 67.765 54.755 70.0803 56.3185 71.1971C57.833 72.2867 60.0774 71.78 61.3577 69.9986ZM59.0751 67.0567C59.6362 67.3019 59.3474 68.0156 59.0914 68.3697C58.661 68.9689 57.9964 68.9689 57.9474 68.9308C57.724 68.7783 57.7567 68.1627 58.1108 67.6669C58.4104 67.2474 58.8136 67.0567 59.0751 67.0567Z" fill="#BBBDBF"/>
<path d="M44.2345 43.8534C44.4251 43.8534 44.6158 43.8153 44.7956 43.7336C45.4983 43.423 45.8198 42.6004 45.5092 41.8922C41.3308 32.4347 37.2069 21.8387 36.3352 17.6928C39.4187 20.5911 46.3591 29.64 52.0738 37.839C52.5096 38.4709 53.3812 38.6289 54.0186 38.1877C54.6506 37.7464 54.8031 36.8802 54.3673 36.2482C37.8552 12.5555 35.5835 13.6669 34.483 14.1953C33.2518 14.7891 30.9747 15.9005 42.9597 43.0254C43.1885 43.5483 43.7006 43.8589 44.2345 43.8589L44.2345 43.8534Z" fill="#FF26FA"/>
<path d="M76.7184 113.994C81.6759 113.994 86.2465 112.556 88.4038 111.379C99.5118 105.327 105.417 93.9082 105.967 77.4394C106.697 55.5553 95.0337 43.739 87.0147 41.1349C86.2792 40.8952 85.4947 41.2983 85.255 42.0283C85.0153 42.7638 85.4185 43.5483 86.1485 43.788C93.3613 46.136 103.854 57.0045 103.178 77.3522C102.661 92.7642 97.2401 103.393 87.0691 108.933C84.8247 110.154 77.9605 112.246 71.8373 110.622C76.4787 109.342 83.6589 106.406 87.9517 99.9826C93.2469 92.0505 93.8134 88.2969 93.857 87.8938C93.9442 87.1256 93.3994 86.4338 92.6367 86.3466C91.8632 86.2594 91.1767 86.8042 91.0896 87.5724C91.0896 87.5942 90.5612 91.059 85.6364 98.4354C79.7583 107.234 67.2121 108.764 67.0868 108.775C66.4985 108.841 66.0136 109.277 65.8829 109.854C65.7521 110.432 65.9973 111.031 66.5039 111.347C69.6418 113.308 73.2754 114 76.7184 114L76.7184 113.994ZM76.6803 101.966C76.713 101.966 76.7457 101.966 76.7784 101.966C77.4266 101.922 77.9605 101.432 78.0586 100.789C78.0913 100.576 79.0283 95.341 85.1842 91.1244C92.3208 86.2376 95.3279 78.4418 95.731 73.2554C96.156 67.8457 95.5077 60.7254 86.6605 53.6323C86.0613 53.1528 85.1842 53.2455 84.6994 53.8502C84.2145 54.4494 84.318 55.3265 84.9173 55.8114C92.7021 62.0492 93.3449 68.0255 92.9527 73.0429C92.5932 77.6191 89.9292 84.4998 83.6098 88.8308C80.6789 90.8356 78.7613 93.0801 77.5193 95.0468C77.5792 93.4125 77.8407 91.5003 78.5107 89.4682C79.3933 86.7933 80.7388 85.1699 82.1662 83.4538C83.9203 81.3455 85.9033 78.9539 87.1345 74.4703C89.4716 65.9498 83.4246 60.3168 83.1686 60.0771C82.602 59.5595 81.714 59.6031 81.2019 60.1697C80.6844 60.7362 80.7225 61.6188 81.2945 62.1418C81.4961 62.327 86.3282 66.8923 84.4488 73.7294C83.3756 77.6355 81.7467 79.5967 80.0252 81.6723C78.4944 83.5137 76.9145 85.4205 75.8686 88.5966C73.6677 95.2811 75.2802 100.756 75.3511 100.99C75.5308 101.579 76.0756 101.982 76.6857 101.982L76.6803 101.966ZM44.9636 61.0849C45.7044 60.4421 46.5053 59.6249 47.3769 58.7314C51.332 54.6837 56.2513 49.6499 64.1995 51.7037C64.9404 51.8998 65.7031 51.4531 65.8992 50.7013C66.0899 49.955 65.6432 49.1977 64.8968 49.0016C55.3905 46.5392 49.3653 52.6952 45.3776 56.7757C44.5659 57.6092 43.8195 58.3719 43.1277 58.9711C40.7089 61.0686 35.844 62.1363 32.0306 61.4063C31.6438 61.3301 31.2788 61.2375 30.9411 61.1339C34.7 60.6927 40.0824 58.8458 43.8032 52.4228C46.8648 47.1384 51.4137 43.472 55.9734 42.6276C59.5417 41.963 63.0065 42.9654 66.2697 45.6021C66.8689 46.087 67.746 45.9889 68.2309 45.3951C68.7157 44.7958 68.6231 43.9187 68.0238 43.4339C64.1505 40.3068 59.8141 39.0865 55.4668 39.8873C50.0463 40.8952 44.9145 44.9538 41.3953 51.0282C36.1927 60.0171 27.4818 58.4209 27.1222 58.3501C26.5938 58.252 26.0545 58.4536 25.733 58.884C25.4116 59.3144 25.3626 59.8864 25.6078 60.3604C26.6101 62.2943 28.653 63.6073 31.5185 64.1575C36.1655 65.0455 41.9401 63.7162 44.969 61.0904L44.9636 61.0849ZM38.143 52.6135C38.2356 52.6135 38.3337 52.6026 38.4317 52.5808C39.1835 52.4283 39.6684 51.6928 39.5158 50.941C39.4886 50.7994 38.9438 47.7268 41.7385 45.6021C42.3486 45.1336 42.4685 44.2619 42 43.6463C41.5315 43.0307 40.6598 42.9163 40.0497 43.3848C35.8277 46.6045 36.7429 51.3006 36.7865 51.4967C36.9227 52.1559 37.5056 52.6081 38.1484 52.6081L38.143 52.6135ZM70.0341 37.256C70.6061 37.256 71.1399 36.9019 71.347 36.3353C71.6084 35.6108 71.2326 34.8099 70.508 34.5484C62.9465 31.8136 56.8614 33.6604 56.5999 33.7367C55.8645 33.9655 55.4559 34.7446 55.6847 35.48C55.9135 36.2155 56.7089 36.6186 57.428 36.4007C57.4825 36.3844 62.9139 34.7718 69.5547 37.1688C69.7126 37.2233 69.8706 37.2506 70.0286 37.2506L70.0341 37.256Z" fill="#FFC400"/>
<path d="M44.2407 43.2975C44.3551 43.2975 44.4695 43.2757 44.5785 43.2266C45.0034 43.0414 45.1941 42.5457 45.0034 42.1207C40.1059 31.0398 35.4045 18.6732 35.617 16.2598C37.491 17.1641 45.6245 27.6022 52.5376 37.5282C52.8046 37.9041 53.3275 37.9967 53.7034 37.7352C54.0848 37.4737 54.1719 36.9507 53.9105 36.5694C43.1457 21.1193 36.7283 13.7483 34.7344 14.7017C33.9881 15.0612 31.7055 16.1672 43.4781 42.8017C43.6142 43.1122 43.9193 43.3029 44.2407 43.3029L44.2407 43.2975Z" fill="#FF90FC"/>
<path d="M44.2399 42.7374C44.278 42.7374 44.3162 42.7319 44.3543 42.7156C44.4905 42.6502 44.5613 42.4868 44.496 42.3506C38.9284 29.7442 33.9328 16.3316 35.2239 15.7051C35.2566 15.6888 35.3002 15.6779 35.3492 15.6779C37.0108 15.6779 45.4983 26.4429 52.9944 37.2078C53.0816 37.3331 53.2614 37.3658 53.3812 37.2786C53.5065 37.1915 53.5392 37.0171 53.452 36.8918C50.8644 33.1818 38.1548 15.1549 35.2184 15.1549C35.1313 15.1549 35.0496 15.1713 34.9787 15.2039C32.6199 16.348 41.2763 36.4451 43.9839 42.5739C44.0274 42.6774 44.1309 42.7428 44.2399 42.7428L44.2399 42.7374Z" fill="#FFDAFD"/>
<path d="M44.5998 60.6606C45.3298 60.0286 46.1143 59.2223 46.9805 58.3398C50.8212 54.4064 56.0946 49.0294 64.3425 51.1649C64.7946 51.2794 65.2468 51.0124 65.3612 50.5657C65.4756 50.119 65.2087 49.6613 64.7619 49.5469C55.5607 47.1499 49.6771 53.1861 45.782 57.1685C44.9539 58.0129 44.2022 58.7865 43.5048 59.3967C40.9771 61.5921 35.8944 62.7198 31.9339 61.9626C30.9369 61.7719 29.7384 61.4069 28.7905 60.7096C32.2335 60.7259 38.9396 59.7235 43.3251 52.151C46.4684 46.7249 51.1589 42.9605 55.8712 42.0834C59.5975 41.3969 63.2202 42.432 66.6196 45.1723C66.9792 45.461 67.5076 45.4066 67.7963 45.047C68.0851 44.6875 68.0306 44.159 67.671 43.8703C63.9284 40.8522 59.7391 39.6645 55.5662 40.4436C50.3799 41.4078 45.2645 45.4665 41.876 51.3175C36.4555 60.6714 27.3959 58.9826 27.0091 58.9063C26.6986 58.841 26.3717 58.9663 26.181 59.2223C25.9849 59.4784 25.9577 59.8216 26.1048 60.1103C27.02 61.8863 28.9321 63.1012 31.6179 63.6133C36.0414 64.4632 41.6472 63.2319 44.5998 60.6714L44.5998 60.6606Z" fill="#FFEC4A"/>
<path d="M38.1407 52.0476C38.1952 52.0476 38.2551 52.0421 38.3096 52.0312C38.7618 51.9386 39.0505 51.4973 38.9634 51.0452C38.9361 50.9035 38.3042 47.5095 41.3931 45.156C41.7581 44.8782 41.8289 44.3498 41.551 43.9848C41.2732 43.6198 40.7502 43.5489 40.3798 43.8268C36.4356 46.834 37.2854 51.1977 37.3236 51.3884C37.4053 51.7806 37.754 52.053 38.1407 52.053L38.1407 52.0476Z" fill="#FFEC4A"/>
<path d="M70.0359 36.6953C70.3791 36.6953 70.7005 36.4829 70.8204 36.1451C70.9784 35.7093 70.755 35.2299 70.3192 35.0719C62.932 32.4024 57.0158 34.1893 56.7706 34.271C56.3294 34.4072 56.0843 34.8758 56.2205 35.317C56.3566 35.7583 56.8306 36.0089 57.2664 35.8673C57.3263 35.8509 62.9157 34.173 69.7472 36.6463C69.8398 36.679 69.9379 36.6953 70.0305 36.6953L70.0359 36.6953Z" fill="#FFEC4A"/>
<path d="M76.6753 101.405C76.6753 101.405 76.7134 101.405 76.7297 101.405C77.1165 101.378 77.4379 101.089 77.4978 100.702C77.5087 100.648 78.4839 95.0309 84.8632 90.6617C91.8363 85.884 94.7726 78.2733 95.1703 73.2068C95.5843 67.9333 94.9524 60.9927 86.3069 54.0576C85.9473 53.7689 85.4189 53.8234 85.1301 54.1884C84.8414 54.5479 84.9013 55.0764 85.2609 55.3651C93.2908 61.8099 93.8846 68.2111 93.5033 73.0761C93.1329 77.7721 90.4036 84.838 83.9208 89.278C80.1019 91.8929 78.0644 94.8947 76.9858 97.1283C76.855 95.1126 76.9749 92.3288 77.9772 89.2834C78.8925 86.5105 80.2762 84.8489 81.7307 83.0892C83.5285 80.9264 85.3916 78.6873 86.5901 74.3127C88.84 66.1192 83.0328 60.7094 82.7876 60.4806C82.4444 60.1701 81.916 60.1919 81.6055 60.5351C81.2949 60.8729 81.3167 61.4068 81.6545 61.7173C81.8724 61.9189 86.9442 66.6857 84.9722 73.8714C83.8663 77.8974 82.123 79.9948 80.4396 82.0214C78.9415 83.8247 77.3943 85.6878 76.3811 88.7604C74.2292 95.2815 75.7982 100.588 75.8635 100.817C75.9725 101.171 76.2994 101.41 76.6644 101.41L76.6753 101.405Z" fill="#FFEC4A"/>
<path d="M76.7326 113.446C81.5702 113.446 86.0319 112.035 88.1401 110.891C99.0574 104.942 104.87 93.681 105.415 77.4246C106.134 55.8512 94.7047 44.22 86.849 41.665C86.4132 41.5233 85.9338 41.763 85.7976 42.2043C85.656 42.6456 85.8957 43.1141 86.3369 43.2557C93.7132 45.6528 104.44 56.7119 103.748 77.3647C103.23 92.9892 97.7118 103.776 87.3502 109.42C84.8224 110.798 76.5691 113.244 69.8575 110.542C74.1067 109.605 82.6815 106.887 87.5028 99.6682C92.8143 91.7089 93.2991 87.9826 93.3155 87.8246C93.37 87.367 93.0377 86.9475 92.58 86.8985C92.117 86.8494 91.703 87.1709 91.6485 87.6339C91.6485 87.6612 91.1364 91.2023 86.1027 98.7366C80.0829 107.753 67.2807 109.311 67.15 109.322C66.7959 109.36 66.5072 109.621 66.4254 109.97C66.3492 110.319 66.4963 110.673 66.8013 110.864C69.8521 112.77 73.3822 113.446 76.7326 113.446Z" fill="#FFEC4A"/>
<path d="M44.2374 60.2364C44.962 59.6099 45.7464 58.8036 46.5799 57.9483C50.5186 53.9169 55.9174 48.4037 64.4812 50.621C64.6283 50.6537 64.7808 50.5719 64.819 50.4194C64.8571 50.2723 64.7699 50.1198 64.6174 50.0816C55.743 47.7772 50.2136 53.4266 46.1768 57.5561C45.3487 58.4005 44.5697 59.2013 43.8669 59.8115C41.2193 62.105 35.935 63.2872 31.8274 62.5027C30.3457 62.2195 28.4389 61.5657 27.3875 60.0676C29.6374 60.3127 37.8254 60.5197 42.8428 51.8631C46.0679 46.2954 50.9 42.4329 55.7703 41.5285C59.6817 40.804 63.4407 41.8826 66.9708 44.7264C67.0907 44.8245 67.265 44.8027 67.363 44.6828C67.4611 44.563 67.4393 44.3886 67.3195 44.2906C63.7076 41.376 59.6817 40.2319 55.6722 40.9728C50.6439 41.9044 45.6647 45.8705 42.3579 51.5744C36.725 61.2933 26.9953 59.4519 26.8972 59.4302C26.7937 59.4084 26.6793 59.4465 26.6194 59.5337C26.554 59.6208 26.5431 59.7352 26.5922 59.8278C27.4311 61.4459 29.2016 62.5572 31.7185 63.0366C35.9895 63.8593 41.3882 62.6825 44.2265 60.2201L44.2374 60.2364Z" fill="white"/>
<path d="M38.1439 51.4911C38.1439 51.4911 38.1821 51.4911 38.1984 51.4857C38.3455 51.453 38.449 51.3059 38.4163 51.1533C38.3891 50.9954 37.6754 47.2908 41.0585 44.7085C41.1838 44.6159 41.2056 44.4416 41.1129 44.3163C41.0203 44.191 40.846 44.1692 40.7207 44.2618C37.0544 47.0566 37.8661 51.2187 37.877 51.2623C37.9042 51.393 38.0186 51.4857 38.1494 51.4857L38.1439 51.4911Z" fill="white"/>
<path d="M70.0344 36.1387C70.1488 36.1387 70.2577 36.0679 70.2959 35.9535C70.3503 35.8064 70.2741 35.6484 70.127 35.5939C62.9142 32.9844 56.9925 34.7768 56.9326 34.7985C56.7855 34.8421 56.7038 35.0001 56.7473 35.1472C56.7909 35.2943 56.9489 35.376 57.096 35.3324C57.1505 35.3161 62.9087 33.5728 69.9363 36.1224C69.969 36.1333 70.0017 36.1387 70.0344 36.1387Z" fill="white"/>
<path d="M76.6755 100.849C76.6755 100.849 76.6864 100.849 76.6973 100.849C76.828 100.838 76.9315 100.746 76.9533 100.615C76.9642 100.555 77.9557 94.7204 84.5529 90.2041C91.3626 85.5408 94.2336 78.1099 94.6204 73.1687C95.0235 68.0314 94.4025 61.2706 85.9639 54.4989C85.8441 54.4063 85.6697 54.4227 85.5717 54.5425C85.4736 54.6624 85.4954 54.8367 85.6152 54.9347C93.8522 61.543 94.4569 68.124 94.0647 73.1251C93.6888 77.9465 90.8887 85.1921 84.237 89.7465C79.1597 93.2277 77.3183 97.3789 76.6973 99.3674C76.365 97.5151 75.9837 93.5818 77.4545 89.1146C78.4025 86.2381 79.8134 84.5384 81.3115 82.7351C83.0711 80.6159 84.8907 78.4259 86.062 74.1657C88.2193 66.299 82.4774 60.9492 82.4174 60.8947C82.303 60.7912 82.1287 60.7966 82.0252 60.911C81.9217 61.0254 81.9271 61.1998 82.0415 61.3033C82.096 61.3523 87.5873 66.4842 85.5226 74.0131C84.3841 78.1535 82.6026 80.2999 80.8812 82.3701C79.3503 84.2115 77.9067 85.9548 76.9261 88.9293C74.8342 95.2815 76.3486 100.43 76.414 100.648C76.4521 100.768 76.5611 100.844 76.6809 100.844L76.6755 100.849Z" fill="white"/>
<path d="M76.736 112.895C81.4537 112.895 85.8119 111.516 87.8712 110.4C98.6032 104.549 104.318 93.4458 104.852 77.4019C105.56 56.1335 94.3649 44.693 86.6672 42.1925C86.5201 42.1434 86.3622 42.2252 86.3186 42.3723C86.2695 42.5194 86.3512 42.6773 86.4983 42.7209C94.0326 45.1725 104.993 56.4223 104.296 77.3801C103.768 93.217 98.1511 104.162 87.6042 109.909C84.8096 111.435 75.1888 114.224 68.0577 110.312C71.0268 109.806 81.6117 107.463 87.0268 99.3568C92.2675 91.5119 92.736 87.9108 92.7524 87.7583C92.7687 87.6057 92.6597 87.4696 92.5072 87.4478C92.3656 87.4314 92.213 87.5404 92.1967 87.6929C92.1967 87.7311 91.7064 91.343 86.5637 99.0462C80.4023 108.269 67.3441 109.86 67.2134 109.877C67.0935 109.887 67.0009 109.975 66.9737 110.094C66.9464 110.209 66.9954 110.329 67.0989 110.394C70.0571 112.241 73.4891 112.9 76.7414 112.9L76.736 112.895Z" fill="white"/>
<path d="M35.1367 82.855C35.3491 82.855 35.567 82.7733 35.7304 82.6099C36.0573 82.283 36.0573 81.7545 35.7304 81.4277C35.1094 80.8066 35.4363 80.2564 35.5997 80.0439C35.8884 79.6898 35.8394 79.1614 35.4907 78.8726C35.1366 78.5839 34.6191 78.6166 34.3249 78.9653C33.6876 79.7062 33.219 81.286 34.5428 82.6099C34.7063 82.7733 34.9242 82.855 35.1367 82.855Z" fill="white"/>
<path d="M60.908 69.6699C61.4092 68.9725 61.6653 68.1499 61.6271 67.3545C61.5836 66.4992 61.1968 65.7474 60.5594 65.2898C59.3227 64.3964 57.3452 64.8976 56.2992 66.363C55.226 67.8557 55.3513 69.817 56.6479 70.7431C57.9009 71.642 59.7967 71.2171 60.908 69.6699ZM59.5842 66.6518C59.9874 66.9405 60.1835 67.8122 59.5461 68.6947C59.034 69.4084 58.1133 69.7407 57.623 69.3811C57.1109 69.0161 57.1273 68.0791 57.6612 67.3382C58.1896 66.6027 59.083 66.2813 59.5842 66.6518Z" fill="white"/>
<path d="M35.1335 82.2987C35.2043 82.2987 35.2806 82.2714 35.3296 82.217C35.4331 82.108 35.4331 81.9337 35.3296 81.8247C34.2945 80.7896 35.0736 79.8036 35.1662 79.6892C35.2642 79.5693 35.2479 79.395 35.1335 79.2969C35.0191 79.1989 34.8393 79.2098 34.7412 79.3242C34.3109 79.8254 33.7988 81.0784 34.9319 82.2115C34.9864 82.266 35.0572 82.2932 35.128 82.2932L35.1335 82.2987Z" fill="#E8BAFF"/>
<path d="M60.4427 69.3491C61.2816 68.1778 61.3198 66.5325 60.2248 65.7481C59.1679 64.9908 57.6153 65.4757 56.7437 66.6905C55.8557 67.9272 55.9211 69.5398 56.9616 70.2916C58.013 71.0434 59.5711 70.5694 60.4427 69.3491ZM59.8979 66.2002C60.7423 66.8049 60.6279 68.1288 59.9906 69.0222C59.2987 69.9865 58.0348 70.3733 57.2885 69.8394C56.5094 69.2837 56.4822 68.0089 57.1959 67.0174C57.915 66.015 59.1243 65.6446 59.8979 66.2002Z" fill="#E8BAFF"/>
<path d="M40.1448 92.0021C42.4547 91.599 44.6664 91.0051 46.802 90.4277C50.6481 89.3926 54.6249 88.3194 59.3808 88.3194C66.2667 88.3194 75.4189 87.0609 75.4189 76.187C75.4189 75.7239 75.043 75.348 74.58 75.348C74.1169 75.348 73.741 75.7239 73.741 76.187C73.741 83.5198 69.4428 86.6469 59.3753 86.6469C54.3961 86.6469 50.3103 87.7473 46.3607 88.8097C44.1652 89.4035 42.0842 89.9592 39.8506 90.3514C33.0464 91.5336 30.6276 85.3503 30.0556 83.4217C29.2112 80.5889 29.1622 76.6664 33.711 74.0514C37.6062 71.8124 42.9068 66.8766 44.6283 65.166C44.9552 64.8391 44.9552 64.3107 44.6283 63.9838C44.3014 63.6569 43.773 63.6569 43.4462 63.9838C41.7737 65.6508 36.6201 70.4559 32.883 72.6023C28.5902 75.0702 27.0158 79.0853 28.454 83.9066C30.0611 89.3109 34.2231 93.0317 40.1394 92.0076L40.1448 92.0021Z" fill="#E6E7E8"/>
<path d="M60.9778 102.887C61.3972 102.887 61.7568 102.571 61.8058 102.141C62.5631 95.331 61.4463 91.8934 61.3973 91.7517C61.2502 91.3159 60.7762 91.0816 60.3404 91.2233C59.9046 91.3704 59.6648 91.8389 59.8065 92.2802C59.8174 92.3129 60.8525 95.5652 60.1443 101.956C60.0953 102.413 60.4221 102.827 60.8797 102.882C60.9124 102.882 60.9451 102.887 60.9778 102.887Z" fill="#E6E7E8"/>
<path d="M78.9085 60.5513C79.2027 60.5513 79.486 60.3988 79.6385 60.121C87.8155 45.4063 79.0065 32.8163 76.0484 32.7946C75.6344 32.8109 75.2803 33.0397 75.0951 33.3993C74.2507 35.0554 67.7951 51.5842 67.5173 52.2924C67.3484 52.7228 67.5608 53.2076 67.9912 53.3765C68.4161 53.5454 68.9064 53.333 69.0753 52.9026C71.2054 47.4384 75.2367 37.2073 76.3644 34.6468C78.8213 36.4501 85.2224 46.6266 78.1785 59.3147C77.9551 59.7178 78.1022 60.2299 78.5053 60.4533C78.6361 60.5241 78.7723 60.5568 78.9085 60.5568L78.9085 60.5513Z" fill="#E6E7E8"/>
<path d="M76.0273 56.6292C76.3214 56.6292 76.6047 56.4766 76.7572 56.1988C79.1052 51.9713 77.6343 47.8145 76.8662 46.5724C76.73 46.3545 76.3432 45.7444 75.7603 45.7988C75.4607 45.8097 75.1393 46.0168 74.9976 46.2891C74.7307 46.8067 72.4699 52.8974 72.0177 54.1123C71.8543 54.5481 72.0777 55.0275 72.5135 55.1909C72.9438 55.3544 73.4287 55.131 73.5867 54.6952C74.2785 52.832 75.2755 50.1626 75.9074 48.5119C76.4031 50.0427 76.7518 52.7503 75.2918 55.3816C75.0684 55.7847 75.2101 56.2968 75.6187 56.5202C75.7494 56.591 75.8856 56.6237 76.0218 56.6237L76.0273 56.6292Z" fill="#E6E7E8"/>
<path d="M40.0516 91.4518C42.3397 91.0541 44.5351 90.4603 46.6598 89.8883C50.5385 88.8423 54.5536 87.7636 59.3857 87.7636C66.0319 87.7636 74.8682 86.5651 74.8682 76.1869C74.8682 76.0344 74.7429 75.9091 74.5903 75.9091C74.4378 75.9091 74.3125 76.0344 74.3125 76.1869C74.3125 85.9549 66.337 87.2079 59.3911 87.2079C54.4827 87.2079 50.435 88.2975 46.5236 89.3544C44.4098 89.921 42.2198 90.5148 39.959 90.907C32.6809 92.1764 30.1422 85.6281 29.5375 83.5906C28.6332 80.567 28.5841 76.3722 33.4544 73.5774C37.2951 71.371 42.5522 66.4789 44.2519 64.7791C44.3608 64.6702 44.3608 64.4959 44.2519 64.3869C44.1429 64.2779 43.9686 64.2779 43.8596 64.3869C42.1708 66.0703 36.9682 70.9134 33.1766 73.0926C29.1289 75.4188 27.6471 79.205 29.0036 83.754C30.5127 88.8368 34.435 92.4433 40.0571 91.4627L40.0516 91.4518Z" fill="white"/>
<path d="M60.9669 102.325C61.1085 102.325 61.2284 102.221 61.2447 102.074C61.9856 95.3896 60.907 92.0609 60.8634 91.9247C60.8144 91.7777 60.6564 91.7014 60.5093 91.7504C60.3622 91.7995 60.2859 91.9574 60.335 92.1045C60.3459 92.1372 61.4245 95.4713 60.6945 102.02C60.6782 102.172 60.7871 102.308 60.9397 102.325C60.9506 102.325 60.9615 102.325 60.9724 102.325L60.9669 102.325Z" fill="white"/>
<path d="M78.9064 59.9968C79.0044 59.9968 79.0971 59.9478 79.1515 59.8552C87.2578 45.2549 78.3017 33.3568 76.1008 33.3568L76.0735 33.3568C75.8556 33.3677 75.6867 33.4712 75.5887 33.6564C74.7552 35.2854 68.3051 51.7923 68.0327 52.4951C67.9782 52.6368 68.049 52.8002 68.1907 52.8547C68.3269 52.9091 68.4957 52.8438 68.5502 52.6967C68.6156 52.5278 75.2618 35.5142 76.0845 33.907C77.3047 33.6455 86.871 44.8027 78.6612 59.5828C78.585 59.719 78.634 59.8878 78.7702 59.9641C78.8138 59.9859 78.8573 59.9968 78.9064 59.9968Z" fill="white"/>
<path d="M76.033 56.0683C76.131 56.0683 76.2236 56.0192 76.2781 55.9266C78.4844 51.9551 77.0681 47.951 76.4034 46.8668C76.1801 46.5018 75.9894 46.3602 75.7933 46.3547C75.6898 46.3547 75.5536 46.4528 75.5045 46.5454C75.243 47.0521 72.6608 54.009 72.5519 54.3086C72.4974 54.4502 72.5682 54.6137 72.7153 54.6682C72.8569 54.7226 73.0204 54.6464 73.0749 54.5047C73.7395 52.7124 75.3901 48.2942 75.8804 47.0902C76.4742 48.0054 77.9125 51.8462 75.7933 55.6651C75.717 55.8013 75.766 55.9702 75.9022 56.0465C75.9458 56.0683 75.9894 56.0791 76.0384 56.0791L76.033 56.0683Z" fill="white"/>
</g>
<g filter="url(#filter1_f_222_77779)">
<path d="M60.9738 103.443C61.6766 103.443 62.2758 102.914 62.3576 102.201C63.1257 95.2709 61.9708 91.7189 61.9217 91.5718C61.6711 90.8418 60.8867 90.4496 60.1512 90.6893C59.4267 90.9344 59.0344 91.7189 59.2741 92.4489C59.285 92.4816 60.2765 95.6523 59.5847 101.89C59.4975 102.653 60.0477 103.345 60.8159 103.432C60.8703 103.437 60.9194 103.443 60.9738 103.443ZM40.2452 92.5524C42.5823 92.1439 44.7995 91.55 46.9514 90.9671C50.7593 89.9429 54.7035 88.8806 59.3886 88.8806C63.4907 88.8806 75.9824 88.8806 75.9824 76.1871C75.9824 75.4189 75.3559 74.7924 74.5877 74.7924C73.8196 74.7924 73.1931 75.419 73.1931 76.1871C73.1931 83.1277 69.0637 86.0913 59.3831 86.0913C54.3276 86.0913 50.2091 87.2027 46.2213 88.2759C44.0368 88.8642 41.9721 89.4199 39.7603 89.8067C33.3865 90.9072 31.1365 85.0834 30.5972 83.2693C29.4532 79.4286 30.5972 76.4922 34.0021 74.5418C38.7579 71.807 44.9684 65.6292 45.0283 65.5692C45.5731 65.0245 45.5731 64.1419 45.0283 63.5971C44.4835 63.0523 43.601 63.0523 43.0562 63.5971C41.4001 65.2533 36.2956 70.0092 32.6074 72.1284C28.064 74.738 26.4079 78.9764 27.9224 84.0756C29.5949 89.6978 33.953 93.6529 40.2343 92.5633L40.2452 92.5524ZM78.9132 61.1074C79.4035 61.1074 79.8775 60.8459 80.1335 60.3883C88.5231 45.2869 79.4253 32.0976 76.0368 32.2338C75.4213 32.2556 74.8819 32.5988 74.6095 33.1436C73.7651 34.7943 67.6964 50.3207 67.0099 52.0858C66.7321 52.8049 67.0862 53.6112 67.7999 53.8945C68.5135 54.1723 69.3252 53.8182 69.6085 53.1046C71.8802 47.2862 75.2469 38.7604 76.587 35.5734C79.1911 38.2755 84.105 47.5259 77.7039 59.0373C77.3334 59.7128 77.5731 60.5627 78.2486 60.9331C78.4611 61.053 78.6953 61.1074 78.9241 61.1074L78.9132 61.1074ZM76.0314 57.185C76.5217 57.185 76.9956 56.9289 77.2517 56.4659C79.7304 52.0041 78.1615 47.6022 77.3497 46.2784C77.1863 46.0114 76.6579 45.1779 75.7481 45.2379C75.2469 45.2596 74.7403 45.5865 74.5115 46.0332C74.25 46.5508 72.3215 51.7153 71.5043 53.9163C71.2374 54.6408 71.6024 55.4417 72.3269 55.7086C73.0515 55.9756 73.8523 55.6106 74.1192 54.886C74.6695 53.3987 75.2578 51.8243 75.7645 50.495C75.8898 51.8134 75.7372 53.4532 74.8165 55.1094C74.4406 55.7849 74.6858 56.6348 75.3613 57.0052C75.5738 57.1251 75.808 57.1795 76.0369 57.1795L76.0314 57.185Z" fill="#BBBDBF"/>
<path d="M35.1357 83.4158C35.4898 83.4158 35.8493 83.2796 36.1217 83.0072C36.6665 82.4625 36.6665 81.5799 36.1217 81.0351C35.9746 80.888 35.7948 80.7082 36.0345 80.3923C36.4921 79.793 36.3995 78.9159 35.8166 78.4474C35.2283 77.9734 34.3893 78.0333 33.8936 78.6054C33.1254 79.5043 32.5534 81.4165 34.1442 83.0072C34.4165 83.2796 34.7761 83.4158 35.1302 83.4158L35.1357 83.4158Z" fill="#BBBDBF"/>
<path d="M61.3577 69.9986C61.9351 69.1977 62.2239 68.2498 62.1803 67.3291C62.1312 66.3049 61.6573 65.3951 60.8837 64.8395C59.4019 63.7771 57.0703 64.3328 55.8445 66.038C54.6025 67.765 54.755 70.0803 56.3185 71.1971C57.833 72.2867 60.0774 71.78 61.3577 69.9986ZM59.0751 67.0567C59.6362 67.3019 59.3474 68.0156 59.0914 68.3697C58.661 68.9689 57.9964 68.9689 57.9474 68.9308C57.724 68.7783 57.7567 68.1627 58.1108 67.6669C58.4104 67.2474 58.8136 67.0567 59.0751 67.0567Z" fill="#BBBDBF"/>
<path d="M44.2345 43.8534C44.4251 43.8534 44.6158 43.8153 44.7956 43.7336C45.4983 43.423 45.8198 42.6004 45.5092 41.8922C41.3308 32.4347 37.2069 21.8387 36.3352 17.6928C39.4187 20.5911 46.3591 29.64 52.0738 37.839C52.5096 38.4709 53.3812 38.6289 54.0186 38.1877C54.6506 37.7464 54.8031 36.8802 54.3673 36.2482C37.8552 12.5555 35.5835 13.6669 34.483 14.1953C33.2518 14.7891 30.9747 15.9005 42.9597 43.0254C43.1885 43.5483 43.7006 43.8589 44.2345 43.8589L44.2345 43.8534Z" fill="#FF26FA"/>
<path d="M76.7184 113.994C81.6759 113.994 86.2465 112.556 88.4038 111.379C99.5118 105.327 105.417 93.9082 105.967 77.4394C106.697 55.5553 95.0337 43.739 87.0147 41.1349C86.2792 40.8952 85.4947 41.2983 85.255 42.0283C85.0153 42.7638 85.4185 43.5483 86.1485 43.788C93.3613 46.136 103.854 57.0045 103.178 77.3522C102.661 92.7642 97.2401 103.393 87.0691 108.933C84.8247 110.154 77.9605 112.246 71.8373 110.622C76.4787 109.342 83.6589 106.406 87.9517 99.9826C93.2469 92.0505 93.8134 88.2969 93.857 87.8938C93.9442 87.1256 93.3994 86.4338 92.6367 86.3466C91.8632 86.2594 91.1767 86.8042 91.0896 87.5724C91.0896 87.5942 90.5612 91.059 85.6364 98.4354C79.7583 107.234 67.2121 108.764 67.0868 108.775C66.4985 108.841 66.0136 109.277 65.8829 109.854C65.7521 110.432 65.9973 111.031 66.5039 111.347C69.6418 113.308 73.2754 114 76.7184 114L76.7184 113.994ZM76.6803 101.966C76.713 101.966 76.7457 101.966 76.7784 101.966C77.4266 101.922 77.9605 101.432 78.0586 100.789C78.0913 100.576 79.0283 95.341 85.1842 91.1244C92.3208 86.2376 95.3279 78.4418 95.731 73.2554C96.156 67.8457 95.5077 60.7254 86.6605 53.6323C86.0613 53.1528 85.1842 53.2455 84.6994 53.8502C84.2145 54.4494 84.318 55.3265 84.9173 55.8114C92.7021 62.0492 93.3449 68.0255 92.9527 73.0429C92.5932 77.6191 89.9292 84.4998 83.6098 88.8308C80.6789 90.8356 78.7613 93.0801 77.5193 95.0468C77.5792 93.4125 77.8407 91.5003 78.5107 89.4682C79.3933 86.7933 80.7388 85.1699 82.1662 83.4538C83.9203 81.3455 85.9033 78.9539 87.1345 74.4703C89.4716 65.9498 83.4246 60.3168 83.1686 60.0771C82.602 59.5595 81.714 59.6031 81.2019 60.1697C80.6844 60.7362 80.7225 61.6188 81.2945 62.1418C81.4961 62.327 86.3282 66.8923 84.4488 73.7294C83.3756 77.6355 81.7467 79.5967 80.0252 81.6723C78.4944 83.5137 76.9145 85.4205 75.8686 88.5966C73.6677 95.2811 75.2802 100.756 75.3511 100.99C75.5308 101.579 76.0756 101.982 76.6857 101.982L76.6803 101.966ZM44.9636 61.0849C45.7044 60.4421 46.5053 59.6249 47.3769 58.7314C51.332 54.6837 56.2513 49.6499 64.1995 51.7037C64.9404 51.8998 65.7031 51.4531 65.8992 50.7013C66.0899 49.955 65.6432 49.1977 64.8968 49.0016C55.3905 46.5392 49.3653 52.6952 45.3776 56.7757C44.5659 57.6092 43.8195 58.3719 43.1277 58.9711C40.7089 61.0686 35.844 62.1363 32.0306 61.4063C31.6438 61.3301 31.2788 61.2375 30.9411 61.1339C34.7 60.6927 40.0824 58.8458 43.8032 52.4228C46.8648 47.1384 51.4137 43.472 55.9734 42.6276C59.5417 41.963 63.0065 42.9654 66.2697 45.6021C66.8689 46.087 67.746 45.9889 68.2309 45.3951C68.7157 44.7958 68.6231 43.9187 68.0238 43.4339C64.1505 40.3068 59.8141 39.0865 55.4668 39.8873C50.0463 40.8952 44.9145 44.9538 41.3953 51.0282C36.1927 60.0171 27.4818 58.4209 27.1222 58.3501C26.5938 58.252 26.0545 58.4536 25.733 58.884C25.4116 59.3144 25.3626 59.8864 25.6078 60.3604C26.6101 62.2943 28.653 63.6073 31.5185 64.1575C36.1655 65.0455 41.9401 63.7162 44.969 61.0904L44.9636 61.0849ZM38.143 52.6135C38.2356 52.6135 38.3337 52.6026 38.4317 52.5808C39.1835 52.4283 39.6684 51.6928 39.5158 50.941C39.4886 50.7994 38.9438 47.7268 41.7385 45.6021C42.3486 45.1336 42.4685 44.2619 42 43.6463C41.5315 43.0307 40.6598 42.9163 40.0497 43.3848C35.8277 46.6045 36.7429 51.3006 36.7865 51.4967C36.9227 52.1559 37.5056 52.6081 38.1484 52.6081L38.143 52.6135ZM70.0341 37.256C70.6061 37.256 71.1399 36.9019 71.347 36.3353C71.6084 35.6108 71.2326 34.8099 70.508 34.5484C62.9465 31.8136 56.8614 33.6604 56.5999 33.7367C55.8645 33.9655 55.4559 34.7446 55.6847 35.48C55.9135 36.2155 56.7089 36.6186 57.428 36.4007C57.4825 36.3844 62.9139 34.7718 69.5547 37.1688C69.7126 37.2233 69.8706 37.2506 70.0286 37.2506L70.0341 37.256Z" fill="#FFC400"/>
<path d="M44.2407 43.2975C44.3551 43.2975 44.4695 43.2757 44.5785 43.2266C45.0034 43.0414 45.1941 42.5457 45.0034 42.1207C40.1059 31.0398 35.4045 18.6732 35.617 16.2598C37.491 17.1641 45.6245 27.6022 52.5376 37.5282C52.8046 37.9041 53.3275 37.9967 53.7034 37.7352C54.0848 37.4737 54.1719 36.9507 53.9105 36.5694C43.1457 21.1193 36.7283 13.7483 34.7344 14.7017C33.9881 15.0612 31.7055 16.1672 43.4781 42.8017C43.6142 43.1122 43.9193 43.3029 44.2407 43.3029L44.2407 43.2975Z" fill="#FF90FC"/>
<path d="M44.2399 42.7374C44.278 42.7374 44.3162 42.7319 44.3543 42.7156C44.4905 42.6502 44.5613 42.4868 44.496 42.3506C38.9284 29.7442 33.9328 16.3316 35.2239 15.7051C35.2566 15.6888 35.3002 15.6779 35.3492 15.6779C37.0108 15.6779 45.4983 26.4429 52.9944 37.2078C53.0816 37.3331 53.2614 37.3658 53.3812 37.2786C53.5065 37.1915 53.5392 37.0171 53.452 36.8918C50.8644 33.1818 38.1548 15.1549 35.2184 15.1549C35.1313 15.1549 35.0496 15.1713 34.9787 15.2039C32.6199 16.348 41.2763 36.4451 43.9839 42.5739C44.0274 42.6774 44.1309 42.7428 44.2399 42.7428L44.2399 42.7374Z" fill="#FFDAFD"/>
<path d="M44.5998 60.6606C45.3298 60.0286 46.1143 59.2223 46.9805 58.3398C50.8212 54.4064 56.0946 49.0294 64.3425 51.1649C64.7946 51.2794 65.2468 51.0124 65.3612 50.5657C65.4756 50.119 65.2087 49.6613 64.7619 49.5469C55.5607 47.1499 49.6771 53.1861 45.782 57.1685C44.9539 58.0129 44.2022 58.7865 43.5048 59.3967C40.9771 61.5921 35.8944 62.7198 31.9339 61.9626C30.9369 61.7719 29.7384 61.4069 28.7905 60.7096C32.2335 60.7259 38.9396 59.7235 43.3251 52.151C46.4684 46.7249 51.1589 42.9605 55.8712 42.0834C59.5975 41.3969 63.2202 42.432 66.6196 45.1723C66.9792 45.461 67.5076 45.4066 67.7963 45.047C68.0851 44.6875 68.0306 44.159 67.671 43.8703C63.9284 40.8522 59.7391 39.6645 55.5662 40.4436C50.3799 41.4078 45.2645 45.4665 41.876 51.3175C36.4555 60.6714 27.3959 58.9826 27.0091 58.9063C26.6986 58.841 26.3717 58.9663 26.181 59.2223C25.9849 59.4784 25.9577 59.8216 26.1048 60.1103C27.02 61.8863 28.9321 63.1012 31.6179 63.6133C36.0414 64.4632 41.6472 63.2319 44.5998 60.6714L44.5998 60.6606Z" fill="#FFEC4A"/>
<path d="M38.1407 52.0476C38.1952 52.0476 38.2551 52.0421 38.3096 52.0312C38.7618 51.9386 39.0505 51.4973 38.9634 51.0452C38.9361 50.9035 38.3042 47.5095 41.3931 45.156C41.7581 44.8782 41.8289 44.3498 41.551 43.9848C41.2732 43.6198 40.7502 43.5489 40.3798 43.8268C36.4356 46.834 37.2854 51.1977 37.3236 51.3884C37.4053 51.7806 37.754 52.053 38.1407 52.053L38.1407 52.0476Z" fill="#FFEC4A"/>
<path d="M70.0359 36.6953C70.3791 36.6953 70.7005 36.4829 70.8204 36.1451C70.9784 35.7093 70.755 35.2299 70.3192 35.0719C62.932 32.4024 57.0158 34.1893 56.7706 34.271C56.3294 34.4072 56.0843 34.8758 56.2205 35.317C56.3566 35.7583 56.8306 36.0089 57.2664 35.8673C57.3263 35.8509 62.9157 34.173 69.7472 36.6463C69.8398 36.679 69.9379 36.6953 70.0305 36.6953L70.0359 36.6953Z" fill="#FFEC4A"/>
<path d="M76.6753 101.405C76.6753 101.405 76.7134 101.405 76.7297 101.405C77.1165 101.378 77.4379 101.089 77.4978 100.702C77.5087 100.648 78.4839 95.0309 84.8632 90.6617C91.8363 85.884 94.7726 78.2733 95.1703 73.2068C95.5843 67.9333 94.9524 60.9927 86.3069 54.0576C85.9473 53.7689 85.4189 53.8234 85.1301 54.1884C84.8414 54.5479 84.9013 55.0764 85.2609 55.3651C93.2908 61.8099 93.8846 68.2111 93.5033 73.0761C93.1329 77.7721 90.4036 84.838 83.9208 89.278C80.1019 91.8929 78.0644 94.8947 76.9858 97.1283C76.855 95.1126 76.9749 92.3288 77.9772 89.2834C78.8925 86.5105 80.2762 84.8489 81.7307 83.0892C83.5285 80.9264 85.3916 78.6873 86.5901 74.3127C88.84 66.1192 83.0328 60.7094 82.7876 60.4806C82.4444 60.1701 81.916 60.1919 81.6055 60.5351C81.2949 60.8729 81.3167 61.4068 81.6545 61.7173C81.8724 61.9189 86.9442 66.6857 84.9722 73.8714C83.8663 77.8974 82.123 79.9948 80.4396 82.0214C78.9415 83.8247 77.3943 85.6878 76.3811 88.7604C74.2292 95.2815 75.7982 100.588 75.8635 100.817C75.9725 101.171 76.2994 101.41 76.6644 101.41L76.6753 101.405Z" fill="#FFEC4A"/>
<path d="M76.7326 113.446C81.5702 113.446 86.0319 112.035 88.1401 110.891C99.0574 104.942 104.87 93.681 105.415 77.4246C106.134 55.8512 94.7047 44.22 86.849 41.665C86.4132 41.5233 85.9338 41.763 85.7976 42.2043C85.656 42.6456 85.8957 43.1141 86.3369 43.2557C93.7132 45.6528 104.44 56.7119 103.748 77.3647C103.23 92.9892 97.7118 103.776 87.3502 109.42C84.8224 110.798 76.5691 113.244 69.8575 110.542C74.1067 109.605 82.6815 106.887 87.5028 99.6682C92.8143 91.7089 93.2991 87.9826 93.3155 87.8246C93.37 87.367 93.0377 86.9475 92.58 86.8985C92.117 86.8494 91.703 87.1709 91.6485 87.6339C91.6485 87.6612 91.1364 91.2023 86.1027 98.7366C80.0829 107.753 67.2807 109.311 67.15 109.322C66.7959 109.36 66.5072 109.621 66.4254 109.97C66.3492 110.319 66.4963 110.673 66.8013 110.864C69.8521 112.77 73.3822 113.446 76.7326 113.446Z" fill="#FFEC4A"/>
<path d="M44.2374 60.2364C44.962 59.6099 45.7464 58.8036 46.5799 57.9483C50.5186 53.9169 55.9174 48.4037 64.4812 50.621C64.6283 50.6537 64.7808 50.5719 64.819 50.4194C64.8571 50.2723 64.7699 50.1198 64.6174 50.0816C55.743 47.7772 50.2136 53.4266 46.1768 57.5561C45.3487 58.4005 44.5697 59.2013 43.8669 59.8115C41.2193 62.105 35.935 63.2872 31.8274 62.5027C30.3457 62.2195 28.4389 61.5657 27.3875 60.0676C29.6374 60.3127 37.8254 60.5197 42.8428 51.8631C46.0679 46.2954 50.9 42.4329 55.7703 41.5285C59.6817 40.804 63.4407 41.8826 66.9708 44.7264C67.0907 44.8245 67.265 44.8027 67.363 44.6828C67.4611 44.563 67.4393 44.3886 67.3195 44.2906C63.7076 41.376 59.6817 40.2319 55.6722 40.9728C50.6439 41.9044 45.6647 45.8705 42.3579 51.5744C36.725 61.2933 26.9953 59.4519 26.8972 59.4302C26.7937 59.4084 26.6793 59.4465 26.6194 59.5337C26.554 59.6208 26.5431 59.7352 26.5922 59.8278C27.4311 61.4459 29.2016 62.5572 31.7185 63.0366C35.9895 63.8593 41.3882 62.6825 44.2265 60.2201L44.2374 60.2364Z" fill="white"/>
<path d="M38.1439 51.4911C38.1439 51.4911 38.1821 51.4911 38.1984 51.4857C38.3455 51.453 38.449 51.3059 38.4163 51.1533C38.3891 50.9954 37.6754 47.2908 41.0585 44.7085C41.1838 44.6159 41.2056 44.4416 41.1129 44.3163C41.0203 44.191 40.846 44.1692 40.7207 44.2618C37.0544 47.0566 37.8661 51.2187 37.877 51.2623C37.9042 51.393 38.0186 51.4857 38.1494 51.4857L38.1439 51.4911Z" fill="white"/>
<path d="M70.0344 36.1387C70.1488 36.1387 70.2577 36.0679 70.2959 35.9535C70.3503 35.8064 70.2741 35.6484 70.127 35.5939C62.9142 32.9844 56.9925 34.7768 56.9326 34.7985C56.7855 34.8421 56.7038 35.0001 56.7473 35.1472C56.7909 35.2943 56.9489 35.376 57.096 35.3324C57.1505 35.3161 62.9087 33.5728 69.9363 36.1224C69.969 36.1333 70.0017 36.1387 70.0344 36.1387Z" fill="white"/>
<path d="M76.6755 100.849C76.6755 100.849 76.6864 100.849 76.6973 100.849C76.828 100.838 76.9315 100.746 76.9533 100.615C76.9642 100.555 77.9557 94.7204 84.5529 90.2041C91.3626 85.5408 94.2336 78.1099 94.6204 73.1687C95.0235 68.0314 94.4025 61.2706 85.9639 54.4989C85.8441 54.4063 85.6697 54.4227 85.5717 54.5425C85.4736 54.6624 85.4954 54.8367 85.6152 54.9347C93.8522 61.543 94.4569 68.124 94.0647 73.1251C93.6888 77.9465 90.8887 85.1921 84.237 89.7465C79.1597 93.2277 77.3183 97.3789 76.6973 99.3674C76.365 97.5151 75.9837 93.5818 77.4545 89.1146C78.4025 86.2381 79.8134 84.5384 81.3115 82.7351C83.0711 80.6159 84.8907 78.4259 86.062 74.1657C88.2193 66.299 82.4774 60.9492 82.4174 60.8947C82.303 60.7912 82.1287 60.7966 82.0252 60.911C81.9217 61.0254 81.9271 61.1998 82.0415 61.3033C82.096 61.3523 87.5873 66.4842 85.5226 74.0131C84.3841 78.1535 82.6026 80.2999 80.8812 82.3701C79.3503 84.2115 77.9067 85.9548 76.9261 88.9293C74.8342 95.2815 76.3486 100.43 76.414 100.648C76.4521 100.768 76.5611 100.844 76.6809 100.844L76.6755 100.849Z" fill="white"/>
<path d="M76.736 112.895C81.4537 112.895 85.8119 111.516 87.8712 110.4C98.6032 104.549 104.318 93.4458 104.852 77.4019C105.56 56.1335 94.3649 44.693 86.6672 42.1925C86.5201 42.1434 86.3622 42.2252 86.3186 42.3723C86.2695 42.5194 86.3512 42.6773 86.4983 42.7209C94.0326 45.1725 104.993 56.4223 104.296 77.3801C103.768 93.217 98.1511 104.162 87.6042 109.909C84.8096 111.435 75.1888 114.224 68.0577 110.312C71.0268 109.806 81.6117 107.463 87.0268 99.3568C92.2675 91.5119 92.736 87.9108 92.7524 87.7583C92.7687 87.6057 92.6597 87.4696 92.5072 87.4478C92.3656 87.4314 92.213 87.5404 92.1967 87.6929C92.1967 87.7311 91.7064 91.343 86.5637 99.0462C80.4023 108.269 67.3441 109.86 67.2134 109.877C67.0935 109.887 67.0009 109.975 66.9737 110.094C66.9464 110.209 66.9954 110.329 67.0989 110.394C70.0571 112.241 73.4891 112.9 76.7414 112.9L76.736 112.895Z" fill="white"/>
<path d="M35.1367 82.855C35.3491 82.855 35.567 82.7733 35.7304 82.6099C36.0573 82.283 36.0573 81.7545 35.7304 81.4277C35.1094 80.8066 35.4363 80.2564 35.5997 80.0439C35.8884 79.6898 35.8394 79.1614 35.4907 78.8726C35.1366 78.5839 34.6191 78.6166 34.3249 78.9653C33.6876 79.7062 33.219 81.286 34.5428 82.6099C34.7063 82.7733 34.9242 82.855 35.1367 82.855Z" fill="white"/>
<path d="M60.908 69.6699C61.4092 68.9725 61.6653 68.1499 61.6271 67.3545C61.5836 66.4992 61.1968 65.7474 60.5594 65.2898C59.3227 64.3964 57.3452 64.8976 56.2992 66.363C55.226 67.8557 55.3513 69.817 56.6479 70.7431C57.9009 71.642 59.7967 71.2171 60.908 69.6699ZM59.5842 66.6518C59.9874 66.9405 60.1835 67.8122 59.5461 68.6947C59.034 69.4084 58.1133 69.7407 57.623 69.3811C57.1109 69.0161 57.1273 68.0791 57.6612 67.3382C58.1896 66.6027 59.083 66.2813 59.5842 66.6518Z" fill="white"/>
<path d="M35.1335 82.2987C35.2043 82.2987 35.2806 82.2714 35.3296 82.217C35.4331 82.108 35.4331 81.9337 35.3296 81.8247C34.2945 80.7896 35.0736 79.8036 35.1662 79.6892C35.2642 79.5693 35.2479 79.395 35.1335 79.2969C35.0191 79.1989 34.8393 79.2098 34.7412 79.3242C34.3109 79.8254 33.7988 81.0784 34.9319 82.2115C34.9864 82.266 35.0572 82.2932 35.128 82.2932L35.1335 82.2987Z" fill="#E8BAFF"/>
<path d="M60.4427 69.3491C61.2816 68.1778 61.3198 66.5325 60.2248 65.7481C59.1679 64.9908 57.6153 65.4757 56.7437 66.6905C55.8557 67.9272 55.9211 69.5398 56.9616 70.2916C58.013 71.0434 59.5711 70.5694 60.4427 69.3491ZM59.8979 66.2002C60.7423 66.8049 60.6279 68.1288 59.9906 69.0222C59.2987 69.9865 58.0348 70.3733 57.2885 69.8394C56.5094 69.2837 56.4822 68.0089 57.1959 67.0174C57.915 66.015 59.1243 65.6446 59.8979 66.2002Z" fill="#E8BAFF"/>
<path d="M40.1448 92.0021C42.4547 91.599 44.6664 91.0051 46.802 90.4277C50.6481 89.3926 54.6249 88.3194 59.3808 88.3194C66.2667 88.3194 75.4189 87.0609 75.4189 76.187C75.4189 75.7239 75.043 75.348 74.58 75.348C74.1169 75.348 73.741 75.7239 73.741 76.187C73.741 83.5198 69.4428 86.6469 59.3753 86.6469C54.3961 86.6469 50.3103 87.7473 46.3607 88.8097C44.1652 89.4035 42.0842 89.9592 39.8506 90.3514C33.0464 91.5336 30.6276 85.3503 30.0556 83.4217C29.2112 80.5889 29.1622 76.6664 33.711 74.0514C37.6062 71.8124 42.9068 66.8766 44.6283 65.166C44.9552 64.8391 44.9552 64.3107 44.6283 63.9838C44.3014 63.6569 43.773 63.6569 43.4462 63.9838C41.7737 65.6508 36.6201 70.4559 32.883 72.6023C28.5902 75.0702 27.0158 79.0853 28.454 83.9066C30.0611 89.3109 34.2231 93.0317 40.1394 92.0076L40.1448 92.0021Z" fill="#E6E7E8"/>
<path d="M60.9778 102.887C61.3972 102.887 61.7568 102.571 61.8058 102.141C62.5631 95.331 61.4463 91.8934 61.3973 91.7517C61.2502 91.3159 60.7762 91.0816 60.3404 91.2233C59.9046 91.3704 59.6648 91.8389 59.8065 92.2802C59.8174 92.3129 60.8525 95.5652 60.1443 101.956C60.0953 102.413 60.4221 102.827 60.8797 102.882C60.9124 102.882 60.9451 102.887 60.9778 102.887Z" fill="#E6E7E8"/>
<path d="M78.9085 60.5513C79.2027 60.5513 79.486 60.3988 79.6385 60.121C87.8155 45.4063 79.0065 32.8163 76.0484 32.7946C75.6344 32.8109 75.2803 33.0397 75.0951 33.3993C74.2507 35.0554 67.7951 51.5842 67.5173 52.2924C67.3484 52.7228 67.5608 53.2076 67.9912 53.3765C68.4161 53.5454 68.9064 53.333 69.0753 52.9026C71.2054 47.4384 75.2367 37.2073 76.3644 34.6468C78.8213 36.4501 85.2224 46.6266 78.1785 59.3147C77.9551 59.7178 78.1022 60.2299 78.5053 60.4533C78.6361 60.5241 78.7723 60.5568 78.9085 60.5568L78.9085 60.5513Z" fill="#E6E7E8"/>
<path d="M76.0273 56.6292C76.3214 56.6292 76.6047 56.4766 76.7572 56.1988C79.1052 51.9713 77.6343 47.8145 76.8662 46.5724C76.73 46.3545 76.3432 45.7444 75.7603 45.7988C75.4607 45.8097 75.1393 46.0168 74.9976 46.2891C74.7307 46.8067 72.4699 52.8974 72.0177 54.1123C71.8543 54.5481 72.0777 55.0275 72.5135 55.1909C72.9438 55.3544 73.4287 55.131 73.5867 54.6952C74.2785 52.832 75.2755 50.1626 75.9074 48.5119C76.4031 50.0427 76.7518 52.7503 75.2918 55.3816C75.0684 55.7847 75.2101 56.2968 75.6187 56.5202C75.7494 56.591 75.8856 56.6237 76.0218 56.6237L76.0273 56.6292Z" fill="#E6E7E8"/>
<path d="M40.0516 91.4518C42.3397 91.0541 44.5351 90.4603 46.6598 89.8883C50.5385 88.8423 54.5536 87.7636 59.3857 87.7636C66.0319 87.7636 74.8682 86.5651 74.8682 76.1869C74.8682 76.0344 74.7429 75.9091 74.5903 75.9091C74.4378 75.9091 74.3125 76.0344 74.3125 76.1869C74.3125 85.9549 66.337 87.2079 59.3911 87.2079C54.4827 87.2079 50.435 88.2975 46.5236 89.3544C44.4098 89.921 42.2198 90.5148 39.959 90.907C32.6809 92.1764 30.1422 85.6281 29.5375 83.5906C28.6332 80.567 28.5841 76.3722 33.4544 73.5774C37.2951 71.371 42.5522 66.4789 44.2519 64.7791C44.3608 64.6702 44.3608 64.4959 44.2519 64.3869C44.1429 64.2779 43.9686 64.2779 43.8596 64.3869C42.1708 66.0703 36.9682 70.9134 33.1766 73.0926C29.1289 75.4188 27.6471 79.205 29.0036 83.754C30.5127 88.8368 34.435 92.4433 40.0571 91.4627L40.0516 91.4518Z" fill="white"/>
<path d="M60.9669 102.325C61.1085 102.325 61.2284 102.221 61.2447 102.074C61.9856 95.3896 60.907 92.0609 60.8634 91.9247C60.8144 91.7777 60.6564 91.7014 60.5093 91.7504C60.3622 91.7995 60.2859 91.9574 60.335 92.1045C60.3459 92.1372 61.4245 95.4713 60.6945 102.02C60.6782 102.172 60.7871 102.308 60.9397 102.325C60.9506 102.325 60.9615 102.325 60.9724 102.325L60.9669 102.325Z" fill="white"/>
<path d="M78.9064 59.9968C79.0044 59.9968 79.0971 59.9478 79.1515 59.8552C87.2578 45.2549 78.3017 33.3568 76.1008 33.3568L76.0735 33.3568C75.8556 33.3677 75.6867 33.4712 75.5887 33.6564C74.7552 35.2854 68.3051 51.7923 68.0327 52.4951C67.9782 52.6368 68.049 52.8002 68.1907 52.8547C68.3269 52.9091 68.4957 52.8438 68.5502 52.6967C68.6156 52.5278 75.2618 35.5142 76.0845 33.907C77.3047 33.6455 86.871 44.8027 78.6612 59.5828C78.585 59.719 78.634 59.8878 78.7702 59.9641C78.8138 59.9859 78.8573 59.9968 78.9064 59.9968Z" fill="white"/>
<path d="M76.033 56.0683C76.131 56.0683 76.2236 56.0192 76.2781 55.9266C78.4844 51.9551 77.0681 47.951 76.4034 46.8668C76.1801 46.5018 75.9894 46.3602 75.7933 46.3547C75.6898 46.3547 75.5536 46.4528 75.5045 46.5454C75.243 47.0521 72.6608 54.009 72.5519 54.3086C72.4974 54.4502 72.5682 54.6137 72.7153 54.6682C72.8569 54.7226 73.0204 54.6464 73.0749 54.5047C73.7395 52.7124 75.3901 48.2942 75.8804 47.0902C76.4742 48.0054 77.9125 51.8462 75.7933 55.6651C75.717 55.8013 75.766 55.9702 75.9022 56.0465C75.9458 56.0683 75.9894 56.0791 76.0384 56.0791L76.033 56.0683Z" fill="white"/>
</g>
<g filter="url(#filter2_f_222_77779)">
<path d="M60.9738 103.443C61.6766 103.443 62.2758 102.914 62.3576 102.201C63.1257 95.2709 61.9708 91.7189 61.9217 91.5718C61.6711 90.8418 60.8867 90.4496 60.1512 90.6893C59.4267 90.9344 59.0344 91.7189 59.2741 92.4489C59.285 92.4816 60.2765 95.6523 59.5847 101.89C59.4975 102.653 60.0477 103.345 60.8159 103.432C60.8703 103.437 60.9194 103.443 60.9738 103.443ZM40.2452 92.5524C42.5823 92.1439 44.7995 91.55 46.9514 90.9671C50.7593 89.9429 54.7035 88.8806 59.3886 88.8806C63.4907 88.8806 75.9824 88.8806 75.9824 76.1871C75.9824 75.4189 75.3559 74.7924 74.5877 74.7924C73.8196 74.7924 73.1931 75.419 73.1931 76.1871C73.1931 83.1277 69.0637 86.0913 59.3831 86.0913C54.3276 86.0913 50.2091 87.2027 46.2213 88.2759C44.0368 88.8642 41.9721 89.4199 39.7603 89.8067C33.3865 90.9072 31.1365 85.0834 30.5972 83.2693C29.4532 79.4286 30.5972 76.4922 34.0021 74.5418C38.7579 71.807 44.9684 65.6292 45.0283 65.5692C45.5731 65.0245 45.5731 64.1419 45.0283 63.5971C44.4835 63.0523 43.601 63.0523 43.0562 63.5971C41.4001 65.2533 36.2956 70.0092 32.6074 72.1284C28.064 74.738 26.4079 78.9764 27.9224 84.0756C29.5949 89.6978 33.953 93.6529 40.2343 92.5633L40.2452 92.5524ZM78.9132 61.1074C79.4035 61.1074 79.8775 60.8459 80.1335 60.3883C88.5231 45.2869 79.4253 32.0976 76.0368 32.2338C75.4213 32.2556 74.8819 32.5988 74.6095 33.1436C73.7651 34.7943 67.6964 50.3207 67.0099 52.0858C66.7321 52.8049 67.0862 53.6112 67.7999 53.8945C68.5135 54.1723 69.3252 53.8182 69.6085 53.1046C71.8802 47.2862 75.2469 38.7604 76.587 35.5734C79.1911 38.2755 84.105 47.5259 77.7039 59.0373C77.3334 59.7128 77.5731 60.5627 78.2486 60.9331C78.4611 61.053 78.6953 61.1074 78.9241 61.1074L78.9132 61.1074ZM76.0314 57.185C76.5217 57.185 76.9956 56.9289 77.2517 56.4659C79.7304 52.0041 78.1615 47.6022 77.3497 46.2784C77.1863 46.0114 76.6579 45.1779 75.7481 45.2379C75.2469 45.2596 74.7403 45.5865 74.5115 46.0332C74.25 46.5508 72.3215 51.7153 71.5043 53.9163C71.2374 54.6408 71.6024 55.4417 72.3269 55.7086C73.0515 55.9756 73.8523 55.6106 74.1192 54.886C74.6695 53.3987 75.2578 51.8243 75.7645 50.495C75.8898 51.8134 75.7372 53.4532 74.8165 55.1094C74.4406 55.7849 74.6858 56.6348 75.3613 57.0052C75.5738 57.1251 75.808 57.1795 76.0369 57.1795L76.0314 57.185Z" fill="#BBBDBF"/>
<path d="M35.1357 83.4158C35.4898 83.4158 35.8493 83.2796 36.1217 83.0072C36.6665 82.4625 36.6665 81.5799 36.1217 81.0351C35.9746 80.888 35.7948 80.7082 36.0345 80.3923C36.4921 79.793 36.3995 78.9159 35.8166 78.4474C35.2283 77.9734 34.3893 78.0333 33.8936 78.6054C33.1254 79.5043 32.5534 81.4165 34.1442 83.0072C34.4165 83.2796 34.7761 83.4158 35.1302 83.4158L35.1357 83.4158Z" fill="#BBBDBF"/>
<path d="M61.3577 69.9986C61.9351 69.1977 62.2239 68.2498 62.1803 67.3291C62.1312 66.3049 61.6573 65.3951 60.8837 64.8395C59.4019 63.7771 57.0703 64.3328 55.8445 66.038C54.6025 67.765 54.755 70.0803 56.3185 71.1971C57.833 72.2867 60.0774 71.78 61.3577 69.9986ZM59.0751 67.0567C59.6362 67.3019 59.3474 68.0156 59.0914 68.3697C58.661 68.9689 57.9964 68.9689 57.9474 68.9308C57.724 68.7783 57.7567 68.1627 58.1108 67.6669C58.4104 67.2474 58.8136 67.0567 59.0751 67.0567Z" fill="#BBBDBF"/>
<path d="M44.2345 43.8534C44.4251 43.8534 44.6158 43.8153 44.7956 43.7336C45.4983 43.423 45.8198 42.6004 45.5092 41.8922C41.3308 32.4347 37.2069 21.8387 36.3352 17.6928C39.4187 20.5911 46.3591 29.64 52.0738 37.839C52.5096 38.4709 53.3812 38.6289 54.0186 38.1877C54.6506 37.7464 54.8031 36.8802 54.3673 36.2482C37.8552 12.5555 35.5835 13.6669 34.483 14.1953C33.2518 14.7891 30.9747 15.9005 42.9597 43.0254C43.1885 43.5483 43.7006 43.8589 44.2345 43.8589L44.2345 43.8534Z" fill="#FF26FA"/>
<path d="M76.7184 113.994C81.6759 113.994 86.2465 112.556 88.4038 111.379C99.5118 105.327 105.417 93.9082 105.967 77.4394C106.697 55.5553 95.0337 43.739 87.0147 41.1349C86.2792 40.8952 85.4947 41.2983 85.255 42.0283C85.0153 42.7638 85.4185 43.5483 86.1485 43.788C93.3613 46.136 103.854 57.0045 103.178 77.3522C102.661 92.7642 97.2401 103.393 87.0691 108.933C84.8247 110.154 77.9605 112.246 71.8373 110.622C76.4787 109.342 83.6589 106.406 87.9517 99.9826C93.2469 92.0505 93.8134 88.2969 93.857 87.8938C93.9442 87.1256 93.3994 86.4338 92.6367 86.3466C91.8632 86.2594 91.1767 86.8042 91.0896 87.5724C91.0896 87.5942 90.5612 91.059 85.6364 98.4354C79.7583 107.234 67.2121 108.764 67.0868 108.775C66.4985 108.841 66.0136 109.277 65.8829 109.854C65.7521 110.432 65.9973 111.031 66.5039 111.347C69.6418 113.308 73.2754 114 76.7184 114L76.7184 113.994ZM76.6803 101.966C76.713 101.966 76.7457 101.966 76.7784 101.966C77.4266 101.922 77.9605 101.432 78.0586 100.789C78.0913 100.576 79.0283 95.341 85.1842 91.1244C92.3208 86.2376 95.3279 78.4418 95.731 73.2554C96.156 67.8457 95.5077 60.7254 86.6605 53.6323C86.0613 53.1528 85.1842 53.2455 84.6994 53.8502C84.2145 54.4494 84.318 55.3265 84.9173 55.8114C92.7021 62.0492 93.3449 68.0255 92.9527 73.0429C92.5932 77.6191 89.9292 84.4998 83.6098 88.8308C80.6789 90.8356 78.7613 93.0801 77.5193 95.0468C77.5792 93.4125 77.8407 91.5003 78.5107 89.4682C79.3933 86.7933 80.7388 85.1699 82.1662 83.4538C83.9203 81.3455 85.9033 78.9539 87.1345 74.4703C89.4716 65.9498 83.4246 60.3168 83.1686 60.0771C82.602 59.5595 81.714 59.6031 81.2019 60.1697C80.6844 60.7362 80.7225 61.6188 81.2945 62.1418C81.4961 62.327 86.3282 66.8923 84.4488 73.7294C83.3756 77.6355 81.7467 79.5967 80.0252 81.6723C78.4944 83.5137 76.9145 85.4205 75.8686 88.5966C73.6677 95.2811 75.2802 100.756 75.3511 100.99C75.5308 101.579 76.0756 101.982 76.6857 101.982L76.6803 101.966ZM44.9636 61.0849C45.7044 60.4421 46.5053 59.6249 47.3769 58.7314C51.332 54.6837 56.2513 49.6499 64.1995 51.7037C64.9404 51.8998 65.7031 51.4531 65.8992 50.7013C66.0899 49.955 65.6432 49.1977 64.8968 49.0016C55.3905 46.5392 49.3653 52.6952 45.3776 56.7757C44.5659 57.6092 43.8195 58.3719 43.1277 58.9711C40.7089 61.0686 35.844 62.1363 32.0306 61.4063C31.6438 61.3301 31.2788 61.2375 30.9411 61.1339C34.7 60.6927 40.0824 58.8458 43.8032 52.4228C46.8648 47.1384 51.4137 43.472 55.9734 42.6276C59.5417 41.963 63.0065 42.9654 66.2697 45.6021C66.8689 46.087 67.746 45.9889 68.2309 45.3951C68.7157 44.7958 68.6231 43.9187 68.0238 43.4339C64.1505 40.3068 59.8141 39.0865 55.4668 39.8873C50.0463 40.8952 44.9145 44.9538 41.3953 51.0282C36.1927 60.0171 27.4818 58.4209 27.1222 58.3501C26.5938 58.252 26.0545 58.4536 25.733 58.884C25.4116 59.3144 25.3626 59.8864 25.6078 60.3604C26.6101 62.2943 28.653 63.6073 31.5185 64.1575C36.1655 65.0455 41.9401 63.7162 44.969 61.0904L44.9636 61.0849ZM38.143 52.6135C38.2356 52.6135 38.3337 52.6026 38.4317 52.5808C39.1835 52.4283 39.6684 51.6928 39.5158 50.941C39.4886 50.7994 38.9438 47.7268 41.7385 45.6021C42.3486 45.1336 42.4685 44.2619 42 43.6463C41.5315 43.0307 40.6598 42.9163 40.0497 43.3848C35.8277 46.6045 36.7429 51.3006 36.7865 51.4967C36.9227 52.1559 37.5056 52.6081 38.1484 52.6081L38.143 52.6135ZM70.0341 37.256C70.6061 37.256 71.1399 36.9019 71.347 36.3353C71.6084 35.6108 71.2326 34.8099 70.508 34.5484C62.9465 31.8136 56.8614 33.6604 56.5999 33.7367C55.8645 33.9655 55.4559 34.7446 55.6847 35.48C55.9135 36.2155 56.7089 36.6186 57.428 36.4007C57.4825 36.3844 62.9139 34.7718 69.5547 37.1688C69.7126 37.2233 69.8706 37.2506 70.0286 37.2506L70.0341 37.256Z" fill="#FFC400"/>
<path d="M44.2407 43.2975C44.3551 43.2975 44.4695 43.2757 44.5785 43.2266C45.0034 43.0414 45.1941 42.5457 45.0034 42.1207C40.1059 31.0398 35.4045 18.6732 35.617 16.2598C37.491 17.1641 45.6245 27.6022 52.5376 37.5282C52.8046 37.9041 53.3275 37.9967 53.7034 37.7352C54.0848 37.4737 54.1719 36.9507 53.9105 36.5694C43.1457 21.1193 36.7283 13.7483 34.7344 14.7017C33.9881 15.0612 31.7055 16.1672 43.4781 42.8017C43.6142 43.1122 43.9193 43.3029 44.2407 43.3029L44.2407 43.2975Z" fill="#FF90FC"/>
<path d="M44.2399 42.7374C44.278 42.7374 44.3162 42.7319 44.3543 42.7156C44.4905 42.6502 44.5613 42.4868 44.496 42.3506C38.9284 29.7442 33.9328 16.3316 35.2239 15.7051C35.2566 15.6888 35.3002 15.6779 35.3492 15.6779C37.0108 15.6779 45.4983 26.4429 52.9944 37.2078C53.0816 37.3331 53.2614 37.3658 53.3812 37.2786C53.5065 37.1915 53.5392 37.0171 53.452 36.8918C50.8644 33.1818 38.1548 15.1549 35.2184 15.1549C35.1313 15.1549 35.0496 15.1713 34.9787 15.2039C32.6199 16.348 41.2763 36.4451 43.9839 42.5739C44.0274 42.6774 44.1309 42.7428 44.2399 42.7428L44.2399 42.7374Z" fill="#FFDAFD"/>
<path d="M44.5998 60.6606C45.3298 60.0286 46.1143 59.2223 46.9805 58.3398C50.8212 54.4064 56.0946 49.0294 64.3425 51.1649C64.7946 51.2794 65.2468 51.0124 65.3612 50.5657C65.4756 50.119 65.2087 49.6613 64.7619 49.5469C55.5607 47.1499 49.6771 53.1861 45.782 57.1685C44.9539 58.0129 44.2022 58.7865 43.5048 59.3967C40.9771 61.5921 35.8944 62.7198 31.9339 61.9626C30.9369 61.7719 29.7384 61.4069 28.7905 60.7096C32.2335 60.7259 38.9396 59.7235 43.3251 52.151C46.4684 46.7249 51.1589 42.9605 55.8712 42.0834C59.5975 41.3969 63.2202 42.432 66.6196 45.1723C66.9792 45.461 67.5076 45.4066 67.7963 45.047C68.0851 44.6875 68.0306 44.159 67.671 43.8703C63.9284 40.8522 59.7391 39.6645 55.5662 40.4436C50.3799 41.4078 45.2645 45.4665 41.876 51.3175C36.4555 60.6714 27.3959 58.9826 27.0091 58.9063C26.6986 58.841 26.3717 58.9663 26.181 59.2223C25.9849 59.4784 25.9577 59.8216 26.1048 60.1103C27.02 61.8863 28.9321 63.1012 31.6179 63.6133C36.0414 64.4632 41.6472 63.2319 44.5998 60.6714L44.5998 60.6606Z" fill="#FFEC4A"/>
<path d="M38.1407 52.0476C38.1952 52.0476 38.2551 52.0421 38.3096 52.0312C38.7618 51.9386 39.0505 51.4973 38.9634 51.0452C38.9361 50.9035 38.3042 47.5095 41.3931 45.156C41.7581 44.8782 41.8289 44.3498 41.551 43.9848C41.2732 43.6198 40.7502 43.5489 40.3798 43.8268C36.4356 46.834 37.2854 51.1977 37.3236 51.3884C37.4053 51.7806 37.754 52.053 38.1407 52.053L38.1407 52.0476Z" fill="#FFEC4A"/>
<path d="M70.0359 36.6953C70.3791 36.6953 70.7005 36.4829 70.8204 36.1451C70.9784 35.7093 70.755 35.2299 70.3192 35.0719C62.932 32.4024 57.0158 34.1893 56.7706 34.271C56.3294 34.4072 56.0843 34.8758 56.2205 35.317C56.3566 35.7583 56.8306 36.0089 57.2664 35.8673C57.3263 35.8509 62.9157 34.173 69.7472 36.6463C69.8398 36.679 69.9379 36.6953 70.0305 36.6953L70.0359 36.6953Z" fill="#FFEC4A"/>
<path d="M76.6753 101.405C76.6753 101.405 76.7134 101.405 76.7297 101.405C77.1165 101.378 77.4379 101.089 77.4978 100.702C77.5087 100.648 78.4839 95.0309 84.8632 90.6617C91.8363 85.884 94.7726 78.2733 95.1703 73.2068C95.5843 67.9333 94.9524 60.9927 86.3069 54.0576C85.9473 53.7689 85.4189 53.8234 85.1301 54.1884C84.8414 54.5479 84.9013 55.0764 85.2609 55.3651C93.2908 61.8099 93.8846 68.2111 93.5033 73.0761C93.1329 77.7721 90.4036 84.838 83.9208 89.278C80.1019 91.8929 78.0644 94.8947 76.9858 97.1283C76.855 95.1126 76.9749 92.3288 77.9772 89.2834C78.8925 86.5105 80.2762 84.8489 81.7307 83.0892C83.5285 80.9264 85.3916 78.6873 86.5901 74.3127C88.84 66.1192 83.0328 60.7094 82.7876 60.4806C82.4444 60.1701 81.916 60.1919 81.6055 60.5351C81.2949 60.8729 81.3167 61.4068 81.6545 61.7173C81.8724 61.9189 86.9442 66.6857 84.9722 73.8714C83.8663 77.8974 82.123 79.9948 80.4396 82.0214C78.9415 83.8247 77.3943 85.6878 76.3811 88.7604C74.2292 95.2815 75.7982 100.588 75.8635 100.817C75.9725 101.171 76.2994 101.41 76.6644 101.41L76.6753 101.405Z" fill="#FFEC4A"/>
<path d="M76.7326 113.446C81.5702 113.446 86.0319 112.035 88.1401 110.891C99.0574 104.942 104.87 93.681 105.415 77.4246C106.134 55.8512 94.7047 44.22 86.849 41.665C86.4132 41.5233 85.9338 41.763 85.7976 42.2043C85.656 42.6456 85.8957 43.1141 86.3369 43.2557C93.7132 45.6528 104.44 56.7119 103.748 77.3647C103.23 92.9892 97.7118 103.776 87.3502 109.42C84.8224 110.798 76.5691 113.244 69.8575 110.542C74.1067 109.605 82.6815 106.887 87.5028 99.6682C92.8143 91.7089 93.2991 87.9826 93.3155 87.8246C93.37 87.367 93.0377 86.9475 92.58 86.8985C92.117 86.8494 91.703 87.1709 91.6485 87.6339C91.6485 87.6612 91.1364 91.2023 86.1027 98.7366C80.0829 107.753 67.2807 109.311 67.15 109.322C66.7959 109.36 66.5072 109.621 66.4254 109.97C66.3492 110.319 66.4963 110.673 66.8013 110.864C69.8521 112.77 73.3822 113.446 76.7326 113.446Z" fill="#FFEC4A"/>
<path d="M44.2374 60.2364C44.962 59.6099 45.7464 58.8036 46.5799 57.9483C50.5186 53.9169 55.9174 48.4037 64.4812 50.621C64.6283 50.6537 64.7808 50.5719 64.819 50.4194C64.8571 50.2723 64.7699 50.1198 64.6174 50.0816C55.743 47.7772 50.2136 53.4266 46.1768 57.5561C45.3487 58.4005 44.5697 59.2013 43.8669 59.8115C41.2193 62.105 35.935 63.2872 31.8274 62.5027C30.3457 62.2195 28.4389 61.5657 27.3875 60.0676C29.6374 60.3127 37.8254 60.5197 42.8428 51.8631C46.0679 46.2954 50.9 42.4329 55.7703 41.5285C59.6817 40.804 63.4407 41.8826 66.9708 44.7264C67.0907 44.8245 67.265 44.8027 67.363 44.6828C67.4611 44.563 67.4393 44.3886 67.3195 44.2906C63.7076 41.376 59.6817 40.2319 55.6722 40.9728C50.6439 41.9044 45.6647 45.8705 42.3579 51.5744C36.725 61.2933 26.9953 59.4519 26.8972 59.4302C26.7937 59.4084 26.6793 59.4465 26.6194 59.5337C26.554 59.6208 26.5431 59.7352 26.5922 59.8278C27.4311 61.4459 29.2016 62.5572 31.7185 63.0366C35.9895 63.8593 41.3882 62.6825 44.2265 60.2201L44.2374 60.2364Z" fill="white"/>
<path d="M38.1439 51.4911C38.1439 51.4911 38.1821 51.4911 38.1984 51.4857C38.3455 51.453 38.449 51.3059 38.4163 51.1533C38.3891 50.9954 37.6754 47.2908 41.0585 44.7085C41.1838 44.6159 41.2056 44.4416 41.1129 44.3163C41.0203 44.191 40.846 44.1692 40.7207 44.2618C37.0544 47.0566 37.8661 51.2187 37.877 51.2623C37.9042 51.393 38.0186 51.4857 38.1494 51.4857L38.1439 51.4911Z" fill="white"/>
<path d="M70.0344 36.1387C70.1488 36.1387 70.2577 36.0679 70.2959 35.9535C70.3503 35.8064 70.2741 35.6484 70.127 35.5939C62.9142 32.9844 56.9925 34.7768 56.9326 34.7985C56.7855 34.8421 56.7038 35.0001 56.7473 35.1472C56.7909 35.2943 56.9489 35.376 57.096 35.3324C57.1505 35.3161 62.9087 33.5728 69.9363 36.1224C69.969 36.1333 70.0017 36.1387 70.0344 36.1387Z" fill="white"/>
<path d="M76.6755 100.849C76.6755 100.849 76.6864 100.849 76.6973 100.849C76.828 100.838 76.9315 100.746 76.9533 100.615C76.9642 100.555 77.9557 94.7204 84.5529 90.2041C91.3626 85.5408 94.2336 78.1099 94.6204 73.1687C95.0235 68.0314 94.4025 61.2706 85.9639 54.4989C85.8441 54.4063 85.6697 54.4227 85.5717 54.5425C85.4736 54.6624 85.4954 54.8367 85.6152 54.9347C93.8522 61.543 94.4569 68.124 94.0647 73.1251C93.6888 77.9465 90.8887 85.1921 84.237 89.7465C79.1597 93.2277 77.3183 97.3789 76.6973 99.3674C76.365 97.5151 75.9837 93.5818 77.4545 89.1146C78.4025 86.2381 79.8134 84.5384 81.3115 82.7351C83.0711 80.6159 84.8907 78.4259 86.062 74.1657C88.2193 66.299 82.4774 60.9492 82.4174 60.8947C82.303 60.7912 82.1287 60.7966 82.0252 60.911C81.9217 61.0254 81.9271 61.1998 82.0415 61.3033C82.096 61.3523 87.5873 66.4842 85.5226 74.0131C84.3841 78.1535 82.6026 80.2999 80.8812 82.3701C79.3503 84.2115 77.9067 85.9548 76.9261 88.9293C74.8342 95.2815 76.3486 100.43 76.414 100.648C76.4521 100.768 76.5611 100.844 76.6809 100.844L76.6755 100.849Z" fill="white"/>
<path d="M76.736 112.895C81.4537 112.895 85.8119 111.516 87.8712 110.4C98.6032 104.549 104.318 93.4458 104.852 77.4019C105.56 56.1335 94.3649 44.693 86.6672 42.1925C86.5201 42.1434 86.3622 42.2252 86.3186 42.3723C86.2695 42.5194 86.3512 42.6773 86.4983 42.7209C94.0326 45.1725 104.993 56.4223 104.296 77.3801C103.768 93.217 98.1511 104.162 87.6042 109.909C84.8096 111.435 75.1888 114.224 68.0577 110.312C71.0268 109.806 81.6117 107.463 87.0268 99.3568C92.2675 91.5119 92.736 87.9108 92.7524 87.7583C92.7687 87.6057 92.6597 87.4696 92.5072 87.4478C92.3656 87.4314 92.213 87.5404 92.1967 87.6929C92.1967 87.7311 91.7064 91.343 86.5637 99.0462C80.4023 108.269 67.3441 109.86 67.2134 109.877C67.0935 109.887 67.0009 109.975 66.9737 110.094C66.9464 110.209 66.9954 110.329 67.0989 110.394C70.0571 112.241 73.4891 112.9 76.7414 112.9L76.736 112.895Z" fill="white"/>
<path d="M35.1367 82.855C35.3491 82.855 35.567 82.7733 35.7304 82.6099C36.0573 82.283 36.0573 81.7545 35.7304 81.4277C35.1094 80.8066 35.4363 80.2564 35.5997 80.0439C35.8884 79.6898 35.8394 79.1614 35.4907 78.8726C35.1366 78.5839 34.6191 78.6166 34.3249 78.9653C33.6876 79.7062 33.219 81.286 34.5428 82.6099C34.7063 82.7733 34.9242 82.855 35.1367 82.855Z" fill="white"/>
<path d="M60.908 69.6699C61.4092 68.9725 61.6653 68.1499 61.6271 67.3545C61.5836 66.4992 61.1968 65.7474 60.5594 65.2898C59.3227 64.3964 57.3452 64.8976 56.2992 66.363C55.226 67.8557 55.3513 69.817 56.6479 70.7431C57.9009 71.642 59.7967 71.2171 60.908 69.6699ZM59.5842 66.6518C59.9874 66.9405 60.1835 67.8122 59.5461 68.6947C59.034 69.4084 58.1133 69.7407 57.623 69.3811C57.1109 69.0161 57.1273 68.0791 57.6612 67.3382C58.1896 66.6027 59.083 66.2813 59.5842 66.6518Z" fill="white"/>
<path d="M35.1335 82.2987C35.2043 82.2987 35.2806 82.2714 35.3296 82.217C35.4331 82.108 35.4331 81.9337 35.3296 81.8247C34.2945 80.7896 35.0736 79.8036 35.1662 79.6892C35.2642 79.5693 35.2479 79.395 35.1335 79.2969C35.0191 79.1989 34.8393 79.2098 34.7412 79.3242C34.3109 79.8254 33.7988 81.0784 34.9319 82.2115C34.9864 82.266 35.0572 82.2932 35.128 82.2932L35.1335 82.2987Z" fill="#E8BAFF"/>
<path d="M60.4427 69.3491C61.2816 68.1778 61.3198 66.5325 60.2248 65.7481C59.1679 64.9908 57.6153 65.4757 56.7437 66.6905C55.8557 67.9272 55.9211 69.5398 56.9616 70.2916C58.013 71.0434 59.5711 70.5694 60.4427 69.3491ZM59.8979 66.2002C60.7423 66.8049 60.6279 68.1288 59.9906 69.0222C59.2987 69.9865 58.0348 70.3733 57.2885 69.8394C56.5094 69.2837 56.4822 68.0089 57.1959 67.0174C57.915 66.015 59.1243 65.6446 59.8979 66.2002Z" fill="#E8BAFF"/>
<path d="M40.1448 92.0021C42.4547 91.599 44.6664 91.0051 46.802 90.4277C50.6481 89.3926 54.6249 88.3194 59.3808 88.3194C66.2667 88.3194 75.4189 87.0609 75.4189 76.187C75.4189 75.7239 75.043 75.348 74.58 75.348C74.1169 75.348 73.741 75.7239 73.741 76.187C73.741 83.5198 69.4428 86.6469 59.3753 86.6469C54.3961 86.6469 50.3103 87.7473 46.3607 88.8097C44.1652 89.4035 42.0842 89.9592 39.8506 90.3514C33.0464 91.5336 30.6276 85.3503 30.0556 83.4217C29.2112 80.5889 29.1622 76.6664 33.711 74.0514C37.6062 71.8124 42.9068 66.8766 44.6283 65.166C44.9552 64.8391 44.9552 64.3107 44.6283 63.9838C44.3014 63.6569 43.773 63.6569 43.4462 63.9838C41.7737 65.6508 36.6201 70.4559 32.883 72.6023C28.5902 75.0702 27.0158 79.0853 28.454 83.9066C30.0611 89.3109 34.2231 93.0317 40.1394 92.0076L40.1448 92.0021Z" fill="#E6E7E8"/>
<path d="M60.9778 102.887C61.3972 102.887 61.7568 102.571 61.8058 102.141C62.5631 95.331 61.4463 91.8934 61.3973 91.7517C61.2502 91.3159 60.7762 91.0816 60.3404 91.2233C59.9046 91.3704 59.6648 91.8389 59.8065 92.2802C59.8174 92.3129 60.8525 95.5652 60.1443 101.956C60.0953 102.413 60.4221 102.827 60.8797 102.882C60.9124 102.882 60.9451 102.887 60.9778 102.887Z" fill="#E6E7E8"/>
<path d="M78.9085 60.5513C79.2027 60.5513 79.486 60.3988 79.6385 60.121C87.8155 45.4063 79.0065 32.8163 76.0484 32.7946C75.6344 32.8109 75.2803 33.0397 75.0951 33.3993C74.2507 35.0554 67.7951 51.5842 67.5173 52.2924C67.3484 52.7228 67.5608 53.2076 67.9912 53.3765C68.4161 53.5454 68.9064 53.333 69.0753 52.9026C71.2054 47.4384 75.2367 37.2073 76.3644 34.6468C78.8213 36.4501 85.2224 46.6266 78.1785 59.3147C77.9551 59.7178 78.1022 60.2299 78.5053 60.4533C78.6361 60.5241 78.7723 60.5568 78.9085 60.5568L78.9085 60.5513Z" fill="#E6E7E8"/>
<path d="M76.0273 56.6292C76.3214 56.6292 76.6047 56.4766 76.7572 56.1988C79.1052 51.9713 77.6343 47.8145 76.8662 46.5724C76.73 46.3545 76.3432 45.7444 75.7603 45.7988C75.4607 45.8097 75.1393 46.0168 74.9976 46.2891C74.7307 46.8067 72.4699 52.8974 72.0177 54.1123C71.8543 54.5481 72.0777 55.0275 72.5135 55.1909C72.9438 55.3544 73.4287 55.131 73.5867 54.6952C74.2785 52.832 75.2755 50.1626 75.9074 48.5119C76.4031 50.0427 76.7518 52.7503 75.2918 55.3816C75.0684 55.7847 75.2101 56.2968 75.6187 56.5202C75.7494 56.591 75.8856 56.6237 76.0218 56.6237L76.0273 56.6292Z" fill="#E6E7E8"/>
<path d="M40.0516 91.4518C42.3397 91.0541 44.5351 90.4603 46.6598 89.8883C50.5385 88.8423 54.5536 87.7636 59.3857 87.7636C66.0319 87.7636 74.8682 86.5651 74.8682 76.1869C74.8682 76.0344 74.7429 75.9091 74.5903 75.9091C74.4378 75.9091 74.3125 76.0344 74.3125 76.1869C74.3125 85.9549 66.337 87.2079 59.3911 87.2079C54.4827 87.2079 50.435 88.2975 46.5236 89.3544C44.4098 89.921 42.2198 90.5148 39.959 90.907C32.6809 92.1764 30.1422 85.6281 29.5375 83.5906C28.6332 80.567 28.5841 76.3722 33.4544 73.5774C37.2951 71.371 42.5522 66.4789 44.2519 64.7791C44.3608 64.6702 44.3608 64.4959 44.2519 64.3869C44.1429 64.2779 43.9686 64.2779 43.8596 64.3869C42.1708 66.0703 36.9682 70.9134 33.1766 73.0926C29.1289 75.4188 27.6471 79.205 29.0036 83.754C30.5127 88.8368 34.435 92.4433 40.0571 91.4627L40.0516 91.4518Z" fill="white"/>
<path d="M60.9669 102.325C61.1085 102.325 61.2284 102.221 61.2447 102.074C61.9856 95.3896 60.907 92.0609 60.8634 91.9247C60.8144 91.7777 60.6564 91.7014 60.5093 91.7504C60.3622 91.7995 60.2859 91.9574 60.335 92.1045C60.3459 92.1372 61.4245 95.4713 60.6945 102.02C60.6782 102.172 60.7871 102.308 60.9397 102.325C60.9506 102.325 60.9615 102.325 60.9724 102.325L60.9669 102.325Z" fill="white"/>
<path d="M78.9064 59.9968C79.0044 59.9968 79.0971 59.9478 79.1515 59.8552C87.2578 45.2549 78.3017 33.3568 76.1008 33.3568L76.0735 33.3568C75.8556 33.3677 75.6867 33.4712 75.5887 33.6564C74.7552 35.2854 68.3051 51.7923 68.0327 52.4951C67.9782 52.6368 68.049 52.8002 68.1907 52.8547C68.3269 52.9091 68.4957 52.8438 68.5502 52.6967C68.6156 52.5278 75.2618 35.5142 76.0845 33.907C77.3047 33.6455 86.871 44.8027 78.6612 59.5828C78.585 59.719 78.634 59.8878 78.7702 59.9641C78.8138 59.9859 78.8573 59.9968 78.9064 59.9968Z" fill="white"/>
<path d="M76.033 56.0683C76.131 56.0683 76.2236 56.0192 76.2781 55.9266C78.4844 51.9551 77.0681 47.951 76.4034 46.8668C76.1801 46.5018 75.9894 46.3602 75.7933 46.3547C75.6898 46.3547 75.5536 46.4528 75.5045 46.5454C75.243 47.0521 72.6608 54.009 72.5519 54.3086C72.4974 54.4502 72.5682 54.6137 72.7153 54.6682C72.8569 54.7226 73.0204 54.6464 73.0749 54.5047C73.7395 52.7124 75.3901 48.2942 75.8804 47.0902C76.4742 48.0054 77.9125 51.8462 75.7933 55.6651C75.717 55.8013 75.766 55.9702 75.9022 56.0465C75.9458 56.0683 75.9894 56.0791 76.0384 56.0791L76.033 56.0683Z" fill="white"/>
</g>
<path d="M60.9738 103.443C61.6766 103.443 62.2758 102.914 62.3576 102.201C63.1257 95.2709 61.9708 91.7189 61.9217 91.5718C61.6711 90.8418 60.8867 90.4496 60.1512 90.6893C59.4267 90.9344 59.0344 91.7189 59.2741 92.4489C59.285 92.4816 60.2765 95.6523 59.5847 101.89C59.4975 102.653 60.0477 103.345 60.8159 103.432C60.8703 103.437 60.9194 103.443 60.9738 103.443ZM40.2452 92.5524C42.5823 92.1439 44.7995 91.55 46.9514 90.9671C50.7593 89.9429 54.7035 88.8806 59.3886 88.8806C63.4907 88.8806 75.9824 88.8806 75.9824 76.1871C75.9824 75.4189 75.3559 74.7924 74.5877 74.7924C73.8196 74.7924 73.1931 75.419 73.1931 76.1871C73.1931 83.1277 69.0637 86.0913 59.3831 86.0913C54.3276 86.0913 50.2091 87.2027 46.2213 88.2759C44.0368 88.8642 41.9721 89.4199 39.7603 89.8067C33.3865 90.9072 31.1365 85.0834 30.5972 83.2693C29.4532 79.4286 30.5972 76.4922 34.0021 74.5418C38.7579 71.807 44.9684 65.6292 45.0283 65.5692C45.5731 65.0245 45.5731 64.1419 45.0283 63.5971C44.4835 63.0523 43.601 63.0523 43.0562 63.5971C41.4001 65.2533 36.2956 70.0092 32.6074 72.1284C28.064 74.738 26.4079 78.9764 27.9224 84.0756C29.5949 89.6978 33.953 93.6529 40.2343 92.5633L40.2452 92.5524ZM78.9132 61.1074C79.4035 61.1074 79.8775 60.8459 80.1335 60.3883C88.5231 45.2869 79.4253 32.0976 76.0368 32.2338C75.4213 32.2556 74.8819 32.5988 74.6095 33.1436C73.7651 34.7943 67.6964 50.3207 67.0099 52.0858C66.7321 52.8049 67.0862 53.6112 67.7999 53.8945C68.5135 54.1723 69.3252 53.8182 69.6085 53.1046C71.8802 47.2862 75.2469 38.7604 76.587 35.5734C79.1911 38.2755 84.105 47.5259 77.7039 59.0373C77.3334 59.7128 77.5731 60.5627 78.2486 60.9331C78.4611 61.053 78.6953 61.1074 78.9241 61.1074L78.9132 61.1074ZM76.0314 57.185C76.5217 57.185 76.9956 56.9289 77.2517 56.4659C79.7304 52.0041 78.1615 47.6022 77.3497 46.2784C77.1863 46.0114 76.6579 45.1779 75.7481 45.2379C75.2469 45.2596 74.7403 45.5865 74.5115 46.0332C74.25 46.5508 72.3215 51.7153 71.5043 53.9163C71.2374 54.6408 71.6024 55.4417 72.3269 55.7086C73.0515 55.9756 73.8523 55.6106 74.1192 54.886C74.6695 53.3987 75.2578 51.8243 75.7645 50.495C75.8898 51.8134 75.7372 53.4532 74.8165 55.1094C74.4406 55.7849 74.6858 56.6348 75.3613 57.0052C75.5738 57.1251 75.808 57.1795 76.0369 57.1795L76.0314 57.185Z" fill="#BBBDBF"/>
<path d="M35.1357 83.4158C35.4898 83.4158 35.8493 83.2796 36.1217 83.0072C36.6665 82.4625 36.6665 81.5799 36.1217 81.0351C35.9746 80.888 35.7948 80.7082 36.0345 80.3923C36.4921 79.793 36.3995 78.9159 35.8166 78.4474C35.2283 77.9734 34.3893 78.0333 33.8936 78.6054C33.1254 79.5043 32.5534 81.4165 34.1442 83.0072C34.4165 83.2796 34.7761 83.4158 35.1302 83.4158L35.1357 83.4158Z" fill="#BBBDBF"/>
<path d="M61.3577 69.9986C61.9351 69.1977 62.2239 68.2498 62.1803 67.3291C62.1312 66.3049 61.6573 65.3951 60.8837 64.8395C59.4019 63.7771 57.0703 64.3328 55.8445 66.038C54.6025 67.765 54.755 70.0803 56.3185 71.1971C57.833 72.2867 60.0774 71.78 61.3577 69.9986ZM59.0751 67.0567C59.6362 67.3019 59.3474 68.0156 59.0914 68.3697C58.661 68.9689 57.9964 68.9689 57.9474 68.9308C57.724 68.7783 57.7567 68.1627 58.1108 67.6669C58.4104 67.2474 58.8136 67.0567 59.0751 67.0567Z" fill="#BBBDBF"/>
<path d="M44.2345 43.8534C44.4251 43.8534 44.6158 43.8153 44.7956 43.7336C45.4983 43.423 45.8198 42.6004 45.5092 41.8922C41.3308 32.4347 37.2069 21.8387 36.3352 17.6928C39.4187 20.5911 46.3591 29.64 52.0738 37.839C52.5096 38.4709 53.3812 38.6289 54.0186 38.1877C54.6506 37.7464 54.8031 36.8802 54.3673 36.2482C37.8552 12.5555 35.5835 13.6669 34.483 14.1953C33.2518 14.7891 30.9747 15.9005 42.9597 43.0254C43.1885 43.5483 43.7006 43.8589 44.2345 43.8589L44.2345 43.8534Z" fill="#FF26FA"/>
<path d="M76.7184 113.994C81.6759 113.994 86.2465 112.556 88.4038 111.379C99.5118 105.327 105.417 93.9082 105.967 77.4394C106.697 55.5553 95.0337 43.739 87.0147 41.1349C86.2792 40.8952 85.4947 41.2983 85.255 42.0283C85.0153 42.7638 85.4185 43.5483 86.1485 43.788C93.3613 46.136 103.854 57.0045 103.178 77.3522C102.661 92.7642 97.2401 103.393 87.0691 108.933C84.8247 110.154 77.9605 112.246 71.8373 110.622C76.4787 109.342 83.6589 106.406 87.9517 99.9826C93.2469 92.0505 93.8134 88.2969 93.857 87.8938C93.9442 87.1256 93.3994 86.4338 92.6367 86.3466C91.8632 86.2594 91.1767 86.8042 91.0896 87.5724C91.0896 87.5942 90.5612 91.059 85.6364 98.4354C79.7583 107.234 67.2121 108.764 67.0868 108.775C66.4985 108.841 66.0136 109.277 65.8829 109.854C65.7521 110.432 65.9973 111.031 66.5039 111.347C69.6418 113.308 73.2754 114 76.7184 114L76.7184 113.994ZM76.6803 101.966C76.713 101.966 76.7457 101.966 76.7784 101.966C77.4266 101.922 77.9605 101.432 78.0586 100.789C78.0913 100.576 79.0283 95.341 85.1842 91.1244C92.3208 86.2376 95.3279 78.4418 95.731 73.2554C96.156 67.8457 95.5077 60.7254 86.6605 53.6323C86.0613 53.1528 85.1842 53.2455 84.6994 53.8502C84.2145 54.4494 84.318 55.3265 84.9173 55.8114C92.7021 62.0492 93.3449 68.0255 92.9527 73.0429C92.5932 77.6191 89.9292 84.4998 83.6098 88.8308C80.6789 90.8356 78.7613 93.0801 77.5193 95.0468C77.5792 93.4125 77.8407 91.5003 78.5107 89.4682C79.3933 86.7933 80.7388 85.1699 82.1662 83.4538C83.9203 81.3455 85.9033 78.9539 87.1345 74.4703C89.4716 65.9498 83.4246 60.3168 83.1686 60.0771C82.602 59.5595 81.714 59.6031 81.2019 60.1697C80.6844 60.7362 80.7225 61.6188 81.2945 62.1418C81.4961 62.327 86.3282 66.8923 84.4488 73.7294C83.3756 77.6355 81.7467 79.5967 80.0252 81.6723C78.4944 83.5137 76.9145 85.4205 75.8686 88.5966C73.6677 95.2811 75.2802 100.756 75.3511 100.99C75.5308 101.579 76.0756 101.982 76.6857 101.982L76.6803 101.966ZM44.9636 61.0849C45.7044 60.4421 46.5053 59.6249 47.3769 58.7314C51.332 54.6837 56.2513 49.6499 64.1995 51.7037C64.9404 51.8998 65.7031 51.4531 65.8992 50.7013C66.0899 49.955 65.6432 49.1977 64.8968 49.0016C55.3905 46.5392 49.3653 52.6952 45.3776 56.7757C44.5659 57.6092 43.8195 58.3719 43.1277 58.9711C40.7089 61.0686 35.844 62.1363 32.0306 61.4063C31.6438 61.3301 31.2788 61.2375 30.9411 61.1339C34.7 60.6927 40.0824 58.8458 43.8032 52.4228C46.8648 47.1384 51.4137 43.472 55.9734 42.6276C59.5417 41.963 63.0065 42.9654 66.2697 45.6021C66.8689 46.087 67.746 45.9889 68.2309 45.3951C68.7157 44.7958 68.6231 43.9187 68.0238 43.4339C64.1505 40.3068 59.8141 39.0865 55.4668 39.8873C50.0463 40.8952 44.9145 44.9538 41.3953 51.0282C36.1927 60.0171 27.4818 58.4209 27.1222 58.3501C26.5938 58.252 26.0545 58.4536 25.733 58.884C25.4116 59.3144 25.3626 59.8864 25.6078 60.3604C26.6101 62.2943 28.653 63.6073 31.5185 64.1575C36.1655 65.0455 41.9401 63.7162 44.969 61.0904L44.9636 61.0849ZM38.143 52.6135C38.2356 52.6135 38.3337 52.6026 38.4317 52.5808C39.1835 52.4283 39.6684 51.6928 39.5158 50.941C39.4886 50.7994 38.9438 47.7268 41.7385 45.6021C42.3486 45.1336 42.4685 44.2619 42 43.6463C41.5315 43.0307 40.6598 42.9163 40.0497 43.3848C35.8277 46.6045 36.7429 51.3006 36.7865 51.4967C36.9227 52.1559 37.5056 52.6081 38.1484 52.6081L38.143 52.6135ZM70.0341 37.256C70.6061 37.256 71.1399 36.9019 71.347 36.3353C71.6084 35.6108 71.2326 34.8099 70.508 34.5484C62.9465 31.8136 56.8614 33.6604 56.5999 33.7367C55.8645 33.9655 55.4559 34.7446 55.6847 35.48C55.9135 36.2155 56.7089 36.6186 57.428 36.4007C57.4825 36.3844 62.9139 34.7718 69.5547 37.1688C69.7126 37.2233 69.8706 37.2506 70.0286 37.2506L70.0341 37.256Z" fill="#FFC400"/>
<path d="M44.2407 43.2975C44.3551 43.2975 44.4695 43.2757 44.5785 43.2266C45.0034 43.0414 45.1941 42.5457 45.0034 42.1207C40.1059 31.0398 35.4045 18.6732 35.617 16.2598C37.491 17.1641 45.6245 27.6022 52.5376 37.5282C52.8046 37.9041 53.3275 37.9967 53.7034 37.7352C54.0848 37.4737 54.1719 36.9507 53.9105 36.5694C43.1457 21.1193 36.7283 13.7483 34.7344 14.7017C33.9881 15.0612 31.7055 16.1672 43.4781 42.8017C43.6142 43.1122 43.9193 43.3029 44.2407 43.3029L44.2407 43.2975Z" fill="#FF90FC"/>
<path d="M44.2399 42.7374C44.278 42.7374 44.3162 42.7319 44.3543 42.7156C44.4905 42.6502 44.5613 42.4868 44.496 42.3506C38.9284 29.7442 33.9328 16.3316 35.2239 15.7051C35.2566 15.6888 35.3002 15.6779 35.3492 15.6779C37.0108 15.6779 45.4983 26.4429 52.9944 37.2078C53.0816 37.3331 53.2614 37.3658 53.3812 37.2786C53.5065 37.1915 53.5392 37.0171 53.452 36.8918C50.8644 33.1818 38.1548 15.1549 35.2184 15.1549C35.1313 15.1549 35.0496 15.1713 34.9787 15.2039C32.6199 16.348 41.2763 36.4451 43.9839 42.5739C44.0274 42.6774 44.1309 42.7428 44.2399 42.7428L44.2399 42.7374Z" fill="#FFDAFD"/>
<path d="M44.5998 60.6606C45.3298 60.0286 46.1143 59.2223 46.9805 58.3398C50.8212 54.4064 56.0946 49.0294 64.3425 51.1649C64.7946 51.2794 65.2468 51.0124 65.3612 50.5657C65.4756 50.119 65.2087 49.6613 64.7619 49.5469C55.5607 47.1499 49.6771 53.1861 45.782 57.1685C44.9539 58.0129 44.2022 58.7865 43.5048 59.3967C40.9771 61.5921 35.8944 62.7198 31.9339 61.9626C30.9369 61.7719 29.7384 61.4069 28.7905 60.7096C32.2335 60.7259 38.9396 59.7235 43.3251 52.151C46.4684 46.7249 51.1589 42.9605 55.8712 42.0834C59.5975 41.3969 63.2202 42.432 66.6196 45.1723C66.9792 45.461 67.5076 45.4066 67.7963 45.047C68.0851 44.6875 68.0306 44.159 67.671 43.8703C63.9284 40.8522 59.7391 39.6645 55.5662 40.4436C50.3799 41.4078 45.2645 45.4665 41.876 51.3175C36.4555 60.6714 27.3959 58.9826 27.0091 58.9063C26.6986 58.841 26.3717 58.9663 26.181 59.2223C25.9849 59.4784 25.9577 59.8216 26.1048 60.1103C27.02 61.8863 28.9321 63.1012 31.6179 63.6133C36.0414 64.4632 41.6472 63.2319 44.5998 60.6714L44.5998 60.6606Z" fill="#FFEC4A"/>
<path d="M38.1407 52.0476C38.1952 52.0476 38.2551 52.0421 38.3096 52.0312C38.7618 51.9386 39.0505 51.4973 38.9634 51.0452C38.9361 50.9035 38.3042 47.5095 41.3931 45.156C41.7581 44.8782 41.8289 44.3498 41.551 43.9848C41.2732 43.6198 40.7502 43.5489 40.3798 43.8268C36.4356 46.834 37.2854 51.1977 37.3236 51.3884C37.4053 51.7806 37.754 52.053 38.1407 52.053L38.1407 52.0476Z" fill="#FFEC4A"/>
<path d="M70.0359 36.6953C70.3791 36.6953 70.7005 36.4829 70.8204 36.1451C70.9784 35.7093 70.755 35.2299 70.3192 35.0719C62.932 32.4024 57.0158 34.1893 56.7706 34.271C56.3294 34.4072 56.0843 34.8758 56.2205 35.317C56.3566 35.7583 56.8306 36.0089 57.2664 35.8673C57.3263 35.8509 62.9157 34.173 69.7472 36.6463C69.8398 36.679 69.9379 36.6953 70.0305 36.6953L70.0359 36.6953Z" fill="#FFEC4A"/>
<path d="M76.6753 101.405C76.6753 101.405 76.7134 101.405 76.7297 101.405C77.1165 101.378 77.4379 101.089 77.4978 100.702C77.5087 100.648 78.4839 95.0309 84.8632 90.6617C91.8363 85.884 94.7726 78.2733 95.1703 73.2068C95.5843 67.9333 94.9524 60.9927 86.3069 54.0576C85.9473 53.7689 85.4189 53.8234 85.1301 54.1884C84.8414 54.5479 84.9013 55.0764 85.2609 55.3651C93.2908 61.8099 93.8846 68.2111 93.5033 73.0761C93.1329 77.7721 90.4036 84.838 83.9208 89.278C80.1019 91.8929 78.0644 94.8947 76.9858 97.1283C76.855 95.1126 76.9749 92.3288 77.9772 89.2834C78.8925 86.5105 80.2762 84.8489 81.7307 83.0892C83.5285 80.9264 85.3916 78.6873 86.5901 74.3127C88.84 66.1192 83.0328 60.7094 82.7876 60.4806C82.4444 60.1701 81.916 60.1919 81.6055 60.5351C81.2949 60.8729 81.3167 61.4068 81.6545 61.7173C81.8724 61.9189 86.9442 66.6857 84.9722 73.8714C83.8663 77.8974 82.123 79.9948 80.4396 82.0214C78.9415 83.8247 77.3943 85.6878 76.3811 88.7604C74.2292 95.2815 75.7982 100.588 75.8635 100.817C75.9725 101.171 76.2994 101.41 76.6644 101.41L76.6753 101.405Z" fill="#FFEC4A"/>
<path d="M76.7326 113.446C81.5702 113.446 86.0319 112.035 88.1401 110.891C99.0574 104.942 104.87 93.681 105.415 77.4246C106.134 55.8512 94.7047 44.22 86.849 41.665C86.4132 41.5233 85.9338 41.763 85.7976 42.2043C85.656 42.6456 85.8957 43.1141 86.3369 43.2557C93.7132 45.6528 104.44 56.7119 103.748 77.3647C103.23 92.9892 97.7118 103.776 87.3502 109.42C84.8224 110.798 76.5691 113.244 69.8575 110.542C74.1067 109.605 82.6815 106.887 87.5028 99.6682C92.8143 91.7089 93.2991 87.9826 93.3155 87.8246C93.37 87.367 93.0377 86.9475 92.58 86.8985C92.117 86.8494 91.703 87.1709 91.6485 87.6339C91.6485 87.6612 91.1364 91.2023 86.1027 98.7366C80.0829 107.753 67.2807 109.311 67.15 109.322C66.7959 109.36 66.5072 109.621 66.4254 109.97C66.3492 110.319 66.4963 110.673 66.8013 110.864C69.8521 112.77 73.3822 113.446 76.7326 113.446Z" fill="#FFEC4A"/>
<path d="M44.2374 60.2364C44.962 59.6099 45.7464 58.8036 46.5799 57.9483C50.5186 53.9169 55.9174 48.4037 64.4812 50.621C64.6283 50.6537 64.7808 50.5719 64.819 50.4194C64.8571 50.2723 64.7699 50.1198 64.6174 50.0816C55.743 47.7772 50.2136 53.4266 46.1768 57.5561C45.3487 58.4005 44.5697 59.2013 43.8669 59.8115C41.2193 62.105 35.935 63.2872 31.8274 62.5027C30.3457 62.2195 28.4389 61.5657 27.3875 60.0676C29.6374 60.3127 37.8254 60.5197 42.8428 51.8631C46.0679 46.2954 50.9 42.4329 55.7703 41.5285C59.6817 40.804 63.4407 41.8826 66.9708 44.7264C67.0907 44.8245 67.265 44.8027 67.363 44.6828C67.4611 44.563 67.4393 44.3886 67.3195 44.2906C63.7076 41.376 59.6817 40.2319 55.6722 40.9728C50.6439 41.9044 45.6647 45.8705 42.3579 51.5744C36.725 61.2933 26.9953 59.4519 26.8972 59.4302C26.7937 59.4084 26.6793 59.4465 26.6194 59.5337C26.554 59.6208 26.5431 59.7352 26.5922 59.8278C27.4311 61.4459 29.2016 62.5572 31.7185 63.0366C35.9895 63.8593 41.3882 62.6825 44.2265 60.2201L44.2374 60.2364Z" fill="white"/>
<path d="M38.1439 51.4911C38.1439 51.4911 38.1821 51.4911 38.1984 51.4857C38.3455 51.453 38.449 51.3059 38.4163 51.1533C38.3891 50.9954 37.6754 47.2908 41.0585 44.7085C41.1838 44.6159 41.2056 44.4416 41.1129 44.3163C41.0203 44.191 40.846 44.1692 40.7207 44.2618C37.0544 47.0566 37.8661 51.2187 37.877 51.2623C37.9042 51.393 38.0186 51.4857 38.1494 51.4857L38.1439 51.4911Z" fill="white"/>
<path d="M70.0344 36.1387C70.1488 36.1387 70.2577 36.0679 70.2959 35.9535C70.3503 35.8064 70.2741 35.6484 70.127 35.5939C62.9142 32.9844 56.9925 34.7768 56.9326 34.7985C56.7855 34.8421 56.7038 35.0001 56.7473 35.1472C56.7909 35.2943 56.9489 35.376 57.096 35.3324C57.1505 35.3161 62.9087 33.5728 69.9363 36.1224C69.969 36.1333 70.0017 36.1387 70.0344 36.1387Z" fill="white"/>
<path d="M76.6755 100.849C76.6755 100.849 76.6864 100.849 76.6973 100.849C76.828 100.838 76.9315 100.746 76.9533 100.615C76.9642 100.555 77.9557 94.7204 84.5529 90.2041C91.3626 85.5408 94.2336 78.1099 94.6204 73.1687C95.0235 68.0314 94.4025 61.2706 85.9639 54.4989C85.8441 54.4063 85.6697 54.4227 85.5717 54.5425C85.4736 54.6624 85.4954 54.8367 85.6152 54.9347C93.8522 61.543 94.4569 68.124 94.0647 73.1251C93.6888 77.9465 90.8887 85.1921 84.237 89.7465C79.1597 93.2277 77.3183 97.3789 76.6973 99.3674C76.365 97.5151 75.9837 93.5818 77.4545 89.1146C78.4025 86.2381 79.8134 84.5384 81.3115 82.7351C83.0711 80.6159 84.8907 78.4259 86.062 74.1657C88.2193 66.299 82.4774 60.9492 82.4174 60.8947C82.303 60.7912 82.1287 60.7966 82.0252 60.911C81.9217 61.0254 81.9271 61.1998 82.0415 61.3033C82.096 61.3523 87.5873 66.4842 85.5226 74.0131C84.3841 78.1535 82.6026 80.2999 80.8812 82.3701C79.3503 84.2115 77.9067 85.9548 76.9261 88.9293C74.8342 95.2815 76.3486 100.43 76.414 100.648C76.4521 100.768 76.5611 100.844 76.6809 100.844L76.6755 100.849Z" fill="white"/>
<path d="M76.736 112.895C81.4537 112.895 85.8119 111.516 87.8712 110.4C98.6032 104.549 104.318 93.4458 104.852 77.4019C105.56 56.1335 94.3649 44.693 86.6672 42.1925C86.5201 42.1434 86.3622 42.2252 86.3186 42.3723C86.2695 42.5194 86.3512 42.6773 86.4983 42.7209C94.0326 45.1725 104.993 56.4223 104.296 77.3801C103.768 93.217 98.1511 104.162 87.6042 109.909C84.8096 111.435 75.1888 114.224 68.0577 110.312C71.0268 109.806 81.6117 107.463 87.0268 99.3568C92.2675 91.5119 92.736 87.9108 92.7524 87.7583C92.7687 87.6057 92.6597 87.4696 92.5072 87.4478C92.3656 87.4314 92.213 87.5404 92.1967 87.6929C92.1967 87.7311 91.7064 91.343 86.5637 99.0462C80.4023 108.269 67.3441 109.86 67.2134 109.877C67.0935 109.887 67.0009 109.975 66.9737 110.094C66.9464 110.209 66.9954 110.329 67.0989 110.394C70.0571 112.241 73.4891 112.9 76.7414 112.9L76.736 112.895Z" fill="white"/>
<path d="M35.1367 82.855C35.3491 82.855 35.567 82.7733 35.7304 82.6099C36.0573 82.283 36.0573 81.7545 35.7304 81.4277C35.1094 80.8066 35.4363 80.2564 35.5997 80.0439C35.8884 79.6898 35.8394 79.1614 35.4907 78.8726C35.1366 78.5839 34.6191 78.6166 34.3249 78.9653C33.6876 79.7062 33.219 81.286 34.5428 82.6099C34.7063 82.7733 34.9242 82.855 35.1367 82.855Z" fill="white"/>
<path d="M60.908 69.6699C61.4092 68.9725 61.6653 68.1499 61.6271 67.3545C61.5836 66.4992 61.1968 65.7474 60.5594 65.2898C59.3227 64.3964 57.3452 64.8976 56.2992 66.363C55.226 67.8557 55.3513 69.817 56.6479 70.7431C57.9009 71.642 59.7967 71.2171 60.908 69.6699ZM59.5842 66.6518C59.9874 66.9405 60.1835 67.8122 59.5461 68.6947C59.034 69.4084 58.1133 69.7407 57.623 69.3811C57.1109 69.0161 57.1273 68.0791 57.6612 67.3382C58.1896 66.6027 59.083 66.2813 59.5842 66.6518Z" fill="white"/>
<path d="M35.1335 82.2987C35.2043 82.2987 35.2806 82.2714 35.3296 82.217C35.4331 82.108 35.4331 81.9337 35.3296 81.8247C34.2945 80.7896 35.0736 79.8036 35.1662 79.6892C35.2642 79.5693 35.2479 79.395 35.1335 79.2969C35.0191 79.1989 34.8393 79.2098 34.7412 79.3242C34.3109 79.8254 33.7988 81.0784 34.9319 82.2115C34.9864 82.266 35.0572 82.2932 35.128 82.2932L35.1335 82.2987Z" fill="#E8BAFF"/>
<path d="M60.4427 69.3491C61.2816 68.1778 61.3198 66.5325 60.2248 65.7481C59.1679 64.9908 57.6153 65.4757 56.7437 66.6905C55.8557 67.9272 55.9211 69.5398 56.9616 70.2916C58.013 71.0434 59.5711 70.5694 60.4427 69.3491ZM59.8979 66.2002C60.7423 66.8049 60.6279 68.1288 59.9906 69.0222C59.2987 69.9865 58.0348 70.3733 57.2885 69.8394C56.5094 69.2837 56.4822 68.0089 57.1959 67.0174C57.915 66.015 59.1243 65.6446 59.8979 66.2002Z" fill="#E8BAFF"/>
<path d="M40.1448 92.0021C42.4547 91.599 44.6664 91.0051 46.802 90.4277C50.6481 89.3926 54.6249 88.3194 59.3808 88.3194C66.2667 88.3194 75.4189 87.0609 75.4189 76.187C75.4189 75.7239 75.043 75.348 74.58 75.348C74.1169 75.348 73.741 75.7239 73.741 76.187C73.741 83.5198 69.4428 86.6469 59.3753 86.6469C54.3961 86.6469 50.3103 87.7473 46.3607 88.8097C44.1652 89.4035 42.0842 89.9592 39.8506 90.3514C33.0464 91.5336 30.6276 85.3503 30.0556 83.4217C29.2112 80.5889 29.1622 76.6664 33.711 74.0514C37.6062 71.8124 42.9068 66.8766 44.6283 65.166C44.9552 64.8391 44.9552 64.3107 44.6283 63.9838C44.3014 63.6569 43.773 63.6569 43.4462 63.9838C41.7737 65.6508 36.6201 70.4559 32.883 72.6023C28.5902 75.0702 27.0158 79.0853 28.454 83.9066C30.0611 89.3109 34.2231 93.0317 40.1394 92.0076L40.1448 92.0021Z" fill="#E6E7E8"/>
<path d="M60.9778 102.887C61.3972 102.887 61.7568 102.571 61.8058 102.141C62.5631 95.331 61.4463 91.8934 61.3973 91.7517C61.2502 91.3159 60.7762 91.0816 60.3404 91.2233C59.9046 91.3704 59.6648 91.8389 59.8065 92.2802C59.8174 92.3129 60.8525 95.5652 60.1443 101.956C60.0953 102.413 60.4221 102.827 60.8797 102.882C60.9124 102.882 60.9451 102.887 60.9778 102.887Z" fill="#E6E7E8"/>
<path d="M78.9085 60.5513C79.2027 60.5513 79.486 60.3988 79.6385 60.121C87.8155 45.4063 79.0065 32.8163 76.0484 32.7946C75.6344 32.8109 75.2803 33.0397 75.0951 33.3993C74.2507 35.0554 67.7951 51.5842 67.5173 52.2924C67.3484 52.7228 67.5608 53.2076 67.9912 53.3765C68.4161 53.5454 68.9064 53.333 69.0753 52.9026C71.2054 47.4384 75.2367 37.2073 76.3644 34.6468C78.8213 36.4501 85.2224 46.6266 78.1785 59.3147C77.9551 59.7178 78.1022 60.2299 78.5053 60.4533C78.6361 60.5241 78.7723 60.5568 78.9085 60.5568L78.9085 60.5513Z" fill="#E6E7E8"/>
<path d="M76.0273 56.6292C76.3214 56.6292 76.6047 56.4766 76.7572 56.1988C79.1052 51.9713 77.6343 47.8145 76.8662 46.5724C76.73 46.3545 76.3432 45.7444 75.7603 45.7988C75.4607 45.8097 75.1393 46.0168 74.9976 46.2891C74.7307 46.8067 72.4699 52.8974 72.0177 54.1123C71.8543 54.5481 72.0777 55.0275 72.5135 55.1909C72.9438 55.3544 73.4287 55.131 73.5867 54.6952C74.2785 52.832 75.2755 50.1626 75.9074 48.5119C76.4031 50.0427 76.7518 52.7503 75.2918 55.3816C75.0684 55.7847 75.2101 56.2968 75.6187 56.5202C75.7494 56.591 75.8856 56.6237 76.0218 56.6237L76.0273 56.6292Z" fill="#E6E7E8"/>
<path d="M40.0516 91.4518C42.3397 91.0541 44.5351 90.4603 46.6598 89.8883C50.5385 88.8423 54.5536 87.7636 59.3857 87.7636C66.0319 87.7636 74.8682 86.5651 74.8682 76.1869C74.8682 76.0344 74.7429 75.9091 74.5903 75.9091C74.4378 75.9091 74.3125 76.0344 74.3125 76.1869C74.3125 85.9549 66.337 87.2079 59.3911 87.2079C54.4827 87.2079 50.435 88.2975 46.5236 89.3544C44.4098 89.921 42.2198 90.5148 39.959 90.907C32.6809 92.1764 30.1422 85.6281 29.5375 83.5906C28.6332 80.567 28.5841 76.3722 33.4544 73.5774C37.2951 71.371 42.5522 66.4789 44.2519 64.7791C44.3608 64.6702 44.3608 64.4959 44.2519 64.3869C44.1429 64.2779 43.9686 64.2779 43.8596 64.3869C42.1708 66.0703 36.9682 70.9134 33.1766 73.0926C29.1289 75.4188 27.6471 79.205 29.0036 83.754C30.5127 88.8368 34.435 92.4433 40.0571 91.4627L40.0516 91.4518Z" fill="white"/>
<path d="M60.9669 102.325C61.1085 102.325 61.2284 102.221 61.2447 102.074C61.9856 95.3896 60.907 92.0609 60.8634 91.9247C60.8144 91.7777 60.6564 91.7014 60.5093 91.7504C60.3622 91.7995 60.2859 91.9574 60.335 92.1045C60.3459 92.1372 61.4245 95.4713 60.6945 102.02C60.6782 102.172 60.7871 102.308 60.9397 102.325C60.9506 102.325 60.9615 102.325 60.9724 102.325L60.9669 102.325Z" fill="white"/>
<path d="M78.9064 59.9968C79.0044 59.9968 79.0971 59.9478 79.1515 59.8552C87.2578 45.2549 78.3017 33.3568 76.1008 33.3568L76.0735 33.3568C75.8556 33.3677 75.6867 33.4712 75.5887 33.6564C74.7552 35.2854 68.3051 51.7923 68.0327 52.4951C67.9782 52.6368 68.049 52.8002 68.1907 52.8547C68.3269 52.9091 68.4957 52.8438 68.5502 52.6967C68.6156 52.5278 75.2618 35.5142 76.0845 33.907C77.3047 33.6455 86.871 44.8027 78.6612 59.5828C78.585 59.719 78.634 59.8878 78.7702 59.9641C78.8138 59.9859 78.8573 59.9968 78.9064 59.9968Z" fill="white"/>
<path d="M76.033 56.0683C76.131 56.0683 76.2236 56.0192 76.2781 55.9266C78.4844 51.9551 77.0681 47.951 76.4034 46.8668C76.1801 46.5018 75.9894 46.3602 75.7933 46.3547C75.6898 46.3547 75.5536 46.4528 75.5045 46.5454C75.243 47.0521 72.6608 54.009 72.5519 54.3086C72.4974 54.4502 72.5682 54.6137 72.7153 54.6682C72.8569 54.7226 73.0204 54.6464 73.0749 54.5047C73.7395 52.7124 75.3901 48.2942 75.8804 47.0902C76.4742 48.0054 77.9125 51.8462 75.7933 55.6651C75.717 55.8013 75.766 55.9702 75.9022 56.0465C75.9458 56.0683 75.9894 56.0791 76.0384 56.0791L76.033 56.0683Z" fill="white"/>
</g>
<defs>
<filter id="filter0_f_222_77779" x="0.310595" y="-11.1425" width="130.832" height="150.285" filterUnits="userSpaceOnUse" color-interpolation-filters="sRGB">
<feFlood flood-opacity="0" result="BackgroundImageFix"/>
<feBlend mode="normal" in="SourceGraphic" in2="BackgroundImageFix" result="shape"/>
<feGaussianBlur stdDeviation="12.5713" result="effect1_foregroundBlur_222_77779"/>
</filter>
<filter id="filter1_f_222_77779" x="12.8819" y="1.42873" width="105.689" height="125.142" filterUnits="userSpaceOnUse" color-interpolation-filters="sRGB">
<feFlood flood-opacity="0" result="BackgroundImageFix"/>
<feBlend mode="normal" in="SourceGraphic" in2="BackgroundImageFix" result="shape"/>
<feGaussianBlur stdDeviation="6.28563" result="effect1_foregroundBlur_222_77779"/>
</filter>
<filter id="filter2_f_222_77779" x="12.8819" y="1.42873" width="105.689" height="125.142" filterUnits="userSpaceOnUse" color-interpolation-filters="sRGB">
<feFlood flood-opacity="0" result="BackgroundImageFix"/>
<feBlend mode="normal" in="SourceGraphic" in2="BackgroundImageFix" result="shape"/>
<feGaussianBlur stdDeviation="6.28563" result="effect1_foregroundBlur_222_77779"/>
</filter>
<clipPath id="clip0_222_77779">
<rect width="128" height="128" rx="64" fill="white"/>
</clipPath>
</defs>
</svg>
