<svg width="248" height="67" viewBox="0 0 248 67" fill="none" xmlns="http://www.w3.org/2000/svg">
<g opacity="0.8" clip-path="url(#clip0_222_77543)">
<path d="M64.8147 2.19801V50.2485C64.8147 58.2726 58.286 64.8 50.2603 64.8H16.7547C8.72908 64.8 2.2004 58.2726 2.2004 50.2485V16.7495C2.19844 8.72542 8.72908 2.19801 16.7547 2.19801H64.8147ZM67.0131 0H16.7547C7.50055 0 0 7.49908 0 16.7495V50.2505C0 59.5009 7.50055 67 16.7547 67H50.2603C59.5126 67 67.0131 59.5009 67.0131 50.2505V0Z" fill="white"/>
<path d="M55.3747 25.1145H47.3295L39.6761 33.4951V16.7495H33.4668V20.8066C33.265 20.5441 33.0494 20.2855 32.8104 20.0308C30.5532 17.6408 27.3006 16.4282 23.1388 16.4282C18.3285 16.4282 15.5932 18.5812 14.1452 20.3854C12.3485 22.6265 11.5451 25.6865 12.1016 28.1783C13.5398 34.6313 19.5296 35.6618 23.9285 36.2338C27.4025 36.6863 30.7256 37.3171 30.6374 40.4104C30.5453 43.6232 26.9244 44.4126 24.5476 44.4126C18.356 44.4126 18.1463 39.8364 18.1463 39.8364H11.4844C11.5823 41.5544 12.1016 44.3127 14.2158 46.6812C16.5318 49.2749 20.0077 50.5894 24.5437 50.5894C28.0236 50.5894 31.1919 49.4551 33.4648 47.4432V50.2093H39.6741V42.3047L41.8706 39.901L48.1426 50.2074H55.3708L46.242 35.1113L55.3708 25.1066L55.3747 25.1145ZM33.4648 32.6743C29.0131 29.0148 19.3592 31.3108 18.3168 26.7542C17.7681 24.3583 20.1606 22.2386 23.2525 22.2386C26.0387 22.2386 28.8309 22.8636 29.8948 26.7463H33.4668V32.6743H33.4648Z" fill="white"/>
<path d="M89.5771 29.6084V50.2524H84.3632V29.6084H76.751V25.2986H97.1894V29.6084H89.5771Z" fill="white"/>
<path d="M99.2647 43.1609C99.2647 43.4743 99.3333 43.7525 99.4391 44.0992C99.5429 44.4127 99.7173 44.7594 99.8917 45.0729C100.066 45.4196 100.344 45.733 100.691 45.976C101.005 46.2541 101.387 46.4971 101.873 46.6361C102.325 46.8105 102.88 46.9143 103.542 46.9143C103.889 46.9143 104.238 46.8458 104.549 46.74C104.896 46.6694 105.174 46.5323 105.488 46.3227C105.766 46.1484 106.009 45.9054 106.219 45.6625C106.426 45.3843 106.565 45.1062 106.671 44.7594H111.642C111.642 45.1062 111.574 45.4901 111.434 45.9054C111.26 46.358 111.052 46.7733 110.774 47.2258C110.461 47.6783 110.079 48.1289 109.628 48.5462C109.175 48.9634 108.654 49.3807 107.994 49.6922C107.369 50.0389 106.673 50.2838 105.909 50.4915C105.11 50.6991 104.24 50.8049 103.268 50.8049C102.051 50.8049 100.869 50.6306 99.827 50.2486C98.7141 49.9018 97.7755 49.3102 96.9761 48.5109C96.1767 47.7116 95.5164 46.6694 95.0638 45.4176C94.6111 44.1325 94.3682 42.6026 94.3682 40.7963C94.3682 39.5445 94.5426 38.33 94.8894 37.182C95.2029 36.0007 95.7241 34.9918 96.4196 34.124C97.1152 33.2209 98.0538 32.5254 99.1648 32.0043C100.242 31.448 101.563 31.205 103.127 31.205C104.69 31.205 106.15 31.4832 107.263 32.0043C108.376 32.5607 109.279 33.3247 109.975 34.2983C110.67 35.2719 111.156 36.4885 111.434 37.8774C111.713 39.2683 111.887 40.7963 111.887 42.4987H99.2C99.2 42.6731 99.2353 42.8807 99.2686 43.1589L99.2647 43.1609ZM106.53 37.2525C106.287 36.7314 105.974 36.2789 105.627 35.9674C105.245 35.654 104.827 35.411 104.375 35.2719C103.957 35.1681 103.54 35.0976 103.123 35.0976C102.741 35.0976 102.288 35.1662 101.871 35.2719C101.418 35.411 101.001 35.654 100.654 35.9674C100.272 36.2808 99.9583 36.7314 99.7506 37.2525C99.4724 37.8089 99.3685 38.5043 99.3685 39.3036H106.877C106.877 38.5043 106.773 37.8089 106.53 37.2525Z" fill="white"/>
<path d="M123.771 31.7614H129.506L123.457 40.8316L129.749 50.2505H123.736L120.677 44.6908L117.34 50.2505H111.466L117.757 40.8316L111.744 31.7614H117.654L120.677 37.1487L123.771 31.7614Z" fill="white"/>
<path d="M143.01 38.4357V31.7634H147.806V50.2525H143.01V42.3283H135.954V50.2525H131.157V31.7634H135.954V38.4357H143.01Z" fill="white"/>
<path d="M150.693 37.0801C151.11 35.8636 151.735 34.8214 152.57 33.9516C153.404 33.0837 154.376 32.4216 155.56 31.9358C156.741 31.4499 158.027 31.205 159.488 31.205C160.95 31.205 162.304 31.448 163.485 31.9358C164.667 32.4216 165.641 33.0818 166.44 33.9516C167.24 34.8214 167.865 35.8636 168.317 37.0801C168.735 38.2614 168.942 39.5818 168.942 41.0079C168.942 42.4341 168.735 43.7525 168.317 44.9357C167.865 46.1523 167.24 47.1945 166.44 48.0643C165.641 48.8988 164.667 49.5942 163.485 50.0801C162.304 50.5659 160.983 50.8108 159.488 50.8108C157.993 50.8108 156.743 50.5679 155.56 50.0801C154.378 49.5942 153.404 48.8988 152.57 48.0643C151.735 47.1945 151.11 46.1523 150.693 44.9357C150.275 43.7544 150.032 42.4341 150.032 41.0079C150.032 39.5818 150.275 38.2634 150.693 37.0801ZM155.281 43.057C155.421 43.7525 155.664 44.3774 156.046 44.8985C156.392 45.4549 156.845 45.9054 157.401 46.2189C157.958 46.5323 158.654 46.7047 159.486 46.7047C160.319 46.7047 161.085 46.5304 161.642 46.2189C162.198 45.9054 162.649 45.4549 162.998 44.9338C163.344 44.4127 163.589 43.8211 163.728 43.1256C163.867 42.4302 163.936 41.7347 163.936 41.006C163.936 40.2772 163.867 39.5818 163.728 38.8863C163.589 38.1909 163.346 37.5659 162.998 37.0448C162.651 36.5238 162.198 36.1065 161.642 35.7597C161.085 35.4463 160.356 35.3072 159.486 35.3072C158.616 35.3072 157.956 35.4816 157.401 35.793C156.845 36.1065 156.394 36.5571 156.046 37.0782C155.664 37.6345 155.421 38.2242 155.281 38.9196C155.142 39.6151 155.038 40.3105 155.038 41.004C155.038 41.6975 155.142 42.3949 155.281 43.0551V43.057Z" fill="white"/>
<path d="M183.018 50.2505V35.6539H175.963V50.2505H171.166V31.7614H187.815V50.2505H183.018Z" fill="white"/>
<path d="M206.361 47.9565C206.396 48.3033 206.5 48.6167 206.604 48.791C206.708 49.034 206.812 49.1731 206.951 49.2769C207.09 49.3807 207.194 49.4512 207.368 49.4845V50.2485H202.05L201.772 49.3807C201.633 49.034 201.598 48.6167 201.598 48.0956L200.52 49.1731C200.138 49.4865 199.756 49.7647 199.303 50.0076C198.851 50.2505 198.365 50.4601 197.773 50.5992C197.181 50.7383 196.488 50.8069 195.688 50.8069C194.889 50.8069 194.089 50.703 193.394 50.4601C192.698 50.2172 192.108 49.8352 191.587 49.3827C191.101 48.8968 190.684 48.3052 190.406 47.5745C190.127 46.8791 189.988 46.0465 189.988 45.1081C189.988 44.3441 190.092 43.6487 190.335 42.9885C190.578 42.3283 190.927 41.7719 191.342 41.2861C191.795 40.8003 192.316 40.383 192.941 40.0695C193.566 39.7228 194.262 39.5132 195.061 39.4094L199.754 38.7139C199.928 38.6787 200.101 38.6787 200.31 38.6101C200.518 38.5748 200.692 38.5063 200.867 38.3672C201.041 38.2633 201.18 38.1243 201.284 37.9499C201.388 37.7422 201.459 37.4974 201.459 37.1859C201.459 36.8744 201.39 36.5943 201.319 36.3514C201.216 36.0732 201.041 35.8655 200.834 35.6912C200.591 35.4835 200.312 35.3444 199.93 35.2386C199.548 35.1348 199.062 35.0995 198.506 35.0995C197.845 35.0995 197.36 35.1681 196.975 35.2739C196.558 35.413 196.247 35.6206 196.037 35.8303C195.794 36.0732 195.62 36.3514 195.516 36.6295L195.308 37.6365H190.511C190.511 37.4288 190.547 37.1154 190.615 36.6981C190.684 36.3161 190.823 35.8636 191.033 35.3777C191.207 34.9252 191.519 34.4394 191.867 33.9535C192.214 33.4677 192.667 33.0152 193.292 32.5979C193.848 32.2159 194.577 31.8672 195.412 31.6243C196.247 31.3814 197.218 31.2423 198.402 31.207C200.036 31.207 201.392 31.3814 202.434 31.6928C203.441 32.0396 204.241 32.4921 204.833 33.0132C205.389 33.5696 205.771 34.1592 205.979 34.8194C206.153 35.4796 206.257 36.1398 206.257 36.8V46.6009C206.257 47.1572 206.292 47.6078 206.361 47.9565ZM200.591 41.6309C200.277 41.77 199.895 41.9091 199.409 41.9776L198.124 42.2205C197.567 42.3244 197.081 42.4282 196.664 42.5673C196.247 42.7064 195.9 42.8807 195.622 43.0884C195.343 43.3313 195.136 43.6095 194.996 43.9229C194.857 44.2364 194.789 44.6184 194.789 45.1042C194.789 45.4862 194.857 45.8349 194.963 46.1111C195.102 46.4246 195.277 46.6322 195.52 46.8418C195.727 47.0162 195.972 47.1886 196.25 47.2591C196.564 47.3629 196.876 47.3982 197.224 47.3982C197.399 47.3982 197.642 47.3629 197.92 47.3296C198.198 47.2944 198.476 47.2258 198.823 47.122C199.137 46.9829 199.448 46.8438 199.762 46.6361C200.075 46.4618 200.353 46.1836 200.596 45.8721C200.875 45.5587 201.082 45.1767 201.221 44.6908C201.361 44.2383 201.464 43.7172 201.464 43.0923V41.2156C201.186 41.3899 200.873 41.529 200.596 41.6328L200.591 41.6309Z" fill="white"/>
<path d="M213.967 34.4041C214.281 33.8477 214.627 33.3619 215.009 32.9446C215.356 32.5626 215.774 32.2139 216.191 31.971C216.644 31.7281 217.13 31.5185 217.686 31.4147C218.207 31.2756 218.799 31.207 219.493 31.207C220.049 31.207 220.639 31.2775 221.231 31.4147C221.822 31.5537 222.412 31.7614 223.004 32.0748C223.56 32.353 224.117 32.7703 224.603 33.2209C225.124 33.7067 225.576 34.3336 225.959 35.029C226.341 35.7245 226.654 36.5237 226.862 37.4621C227.105 38.4005 227.209 39.4427 227.209 40.6592C227.209 42.1539 227.069 43.5429 226.723 44.7594C226.409 46.0112 225.923 47.0887 225.263 47.9918C224.603 48.8616 223.803 49.5551 222.829 50.0762C221.822 50.562 220.674 50.8069 219.318 50.8069C218.866 50.8069 218.38 50.7716 217.927 50.6678C217.441 50.5992 216.988 50.4249 216.536 50.2152C216.05 50.0076 215.633 49.6941 215.25 49.3474C214.833 48.9654 214.486 48.5129 214.173 47.9565H214.102V57.4087H209.306V31.7614H213.895V34.4021H213.965L213.967 34.4041ZM216.122 36.0026C215.601 36.3494 215.184 36.7667 214.87 37.2878C214.524 37.8089 214.314 38.4005 214.139 39.0607C214 39.7208 213.932 40.3458 213.932 41.006C213.932 41.3527 213.932 41.7367 214 42.152C214.036 42.5692 214.104 42.9865 214.208 43.4038C214.347 43.821 214.486 44.2383 214.694 44.6203C214.868 45.0376 215.111 45.3843 215.425 45.6978C215.738 45.976 216.12 46.2189 216.538 46.4285C216.955 46.6028 217.476 46.7067 218.068 46.7067C218.66 46.7067 219.181 46.6028 219.598 46.4285C220.016 46.2208 220.398 45.976 220.711 45.6978C220.99 45.3843 221.268 45.0376 221.475 44.6203C221.65 44.2383 221.789 43.821 221.928 43.4038C222.032 42.9865 222.102 42.5692 222.171 42.152C222.206 41.7347 222.206 41.3527 222.206 41.006C222.206 40.3458 222.138 39.7208 221.999 39.0607C221.824 38.4005 221.617 37.8089 221.303 37.2878C220.956 36.7667 220.539 36.3494 220.018 36.0026C219.461 35.6892 218.836 35.5168 218.072 35.5168C217.308 35.5168 216.648 35.6912 216.126 36.0026H216.122Z" fill="white"/>
<path d="M241.29 31.7614H247.686L240.038 39.4427L247.997 50.2505H241.741L236.319 42.4301L234.374 44.4107V50.2485H229.577V31.7594H234.374V38.7786L241.29 31.7594V31.7614Z" fill="white"/>
</g>
<defs>
<clipPath id="clip0_222_77543">
<rect width="248" height="67" fill="white"/>
</clipPath>
</defs>
</svg>
