<svg width="1929" height="910" viewBox="0 0 1929 910" fill="none" xmlns="http://www.w3.org/2000/svg">
<path d="M1100.95 243.207C1102.48 243.207 1102.48 240.902 1100.95 240.902C1099.6 240.902 1099.6 243.207 1100.95 243.207Z" fill="#436AFF" fill-opacity="0.8"/>
<path d="M887.513 312.375C889.051 312.375 889.051 310.069 887.513 310.069C885.975 310.069 885.975 312.375 887.513 312.375Z" fill="#436AFF" fill-opacity="0.8"/>
<path d="M912.318 452.054C913.856 452.054 913.856 449.748 912.318 449.748C910.78 449.748 910.78 452.054 912.318 452.054Z" fill="#436AFF" fill-opacity="0.8"/>
<path d="M886.167 469.538C887.706 469.538 887.706 467.232 886.167 467.232C884.629 467.232 884.629 469.538 886.167 469.538Z" fill="#436AFF" fill-opacity="0.8"/>
<path d="M1624.91 465.887C1626.45 465.887 1626.45 463.582 1624.91 463.582C1623.37 463.582 1623.37 465.887 1624.91 465.887Z" fill="#436AFF" fill-opacity="0.8"/>
<path d="M800.026 526.409C801.564 526.409 801.564 524.103 800.026 524.103C798.68 524.103 798.68 526.409 800.026 526.409Z" fill="#436AFF" fill-opacity="0.8"/>
<path d="M582.942 481.258C584.48 481.258 584.48 478.953 582.942 478.953C581.404 478.953 581.404 481.258 582.942 481.258Z" fill="#436AFF" fill-opacity="0.8"/>
<path d="M575.634 427.269C577.173 427.269 577.173 424.964 575.634 424.964C574.289 425.156 574.289 427.269 575.634 427.269Z" fill="#436AFF" fill-opacity="0.8"/>
<path d="M485.263 409.785C486.802 409.785 486.802 407.48 485.263 407.48C483.917 407.672 483.917 409.785 485.263 409.785Z" fill="#436AFF" fill-opacity="0.8"/>
<path d="M810.409 442.255C811.947 442.255 811.947 439.95 810.409 439.95C808.87 439.95 808.87 442.255 810.409 442.255Z" fill="#436AFF" fill-opacity="0.8"/>
<path d="M518.912 315.256C520.451 315.256 520.451 312.951 518.912 312.951C517.374 312.951 517.374 315.256 518.912 315.256Z" fill="#436AFF" fill-opacity="0.8"/>
<path d="M1146.9 677.809C1148.44 677.809 1148.44 675.503 1146.9 675.503C1145.36 675.503 1145.36 677.809 1146.9 677.809Z" fill="#436AFF" fill-opacity="0.8"/>
<path d="M957.503 666.088C959.042 666.088 959.042 663.783 957.503 663.783C955.965 663.783 955.965 666.088 957.503 666.088Z" fill="#436AFF" fill-opacity="0.8"/>
<path d="M993.844 539.474C995.383 539.474 995.383 537.168 993.844 537.168C992.498 537.168 992.498 539.474 993.844 539.474Z" fill="#436AFF" fill-opacity="0.8"/>
<path d="M820.408 635.54C821.946 635.54 821.946 633.234 820.408 633.234C819.062 633.234 819.062 635.54 820.408 635.54Z" fill="#436AFF" fill-opacity="0.8"/>
<path d="M1183.43 823.444C1184.97 823.444 1184.97 821.139 1183.43 821.139C1181.89 821.139 1181.89 823.444 1183.43 823.444Z" fill="#436AFF" fill-opacity="0.8"/>
<path d="M1409.17 776.756C1410.71 776.756 1410.71 774.451 1409.17 774.451C1407.82 774.451 1407.82 776.756 1409.17 776.756Z" fill="#436AFF" fill-opacity="0.8"/>
<path d="M523.142 762.346C524.681 762.346 524.681 760.041 523.142 760.041C521.796 760.041 521.796 762.346 523.142 762.346Z" fill="#436AFF" fill-opacity="0.8"/>
<path d="M403.736 703.938C405.274 703.938 405.274 701.633 403.736 701.633C402.197 701.825 402.197 703.938 403.736 703.938Z" fill="#436AFF" fill-opacity="0.8"/>
<path d="M386.239 765.997C387.777 765.997 387.777 763.691 386.239 763.691C384.893 763.691 384.893 765.997 386.239 765.997Z" fill="#436AFF" fill-opacity="0.8"/>
<path d="M212.033 332.548C213.571 332.548 213.571 330.243 212.033 330.243C210.687 330.243 210.687 332.548 212.033 332.548Z" fill="#436AFF" fill-opacity="0.8"/>
<path d="M204.726 278.559C206.265 278.559 206.265 276.254 204.726 276.254C203.38 276.254 203.38 278.559 204.726 278.559Z" fill="#436AFF" fill-opacity="0.8"/>
<path d="M114.354 261.075C115.892 261.075 115.892 258.77 114.354 258.77C113.008 258.962 113.008 261.075 114.354 261.075Z" fill="#436AFF" fill-opacity="0.8"/>
<path d="M148.003 166.547C149.542 166.547 149.542 164.241 148.003 164.241C146.465 164.241 146.465 166.547 148.003 166.547Z" fill="#436AFF" fill-opacity="0.8"/>
<path d="M152.426 613.637C153.964 613.637 153.964 611.331 152.426 611.331C150.888 611.331 150.888 613.637 152.426 613.637Z" fill="#436AFF" fill-opacity="0.8"/>
<path d="M32.8275 555.229C34.3658 555.229 34.3658 552.923 32.8275 552.923C31.2893 552.923 31.2893 555.229 32.8275 555.229Z" fill="#436AFF" fill-opacity="0.8"/>
<path d="M1157.09 490.672C1158.63 490.672 1158.63 488.367 1157.09 488.367C1155.74 488.367 1155.74 490.672 1157.09 490.672Z" fill="#436AFF" fill-opacity="0.8"/>
<path d="M1079.99 537.36C1081.52 537.36 1081.52 535.055 1079.99 535.055C1078.45 535.055 1078.45 537.36 1079.99 537.36Z" fill="#436AFF" fill-opacity="0.8"/>
<path d="M1062.49 584.625C1064.03 584.625 1064.03 582.319 1062.49 582.319C1060.95 582.319 1060.95 584.625 1062.49 584.625Z" fill="#436AFF" fill-opacity="0.8"/>
<path d="M1032.49 572.328C1034.03 572.328 1034.03 570.023 1032.49 570.023C1031.15 570.023 1031.15 572.328 1032.49 572.328Z" fill="#436AFF" fill-opacity="0.8"/>
<path d="M1037.68 591.157C1039.22 591.157 1039.22 588.852 1037.68 588.852C1036.15 588.852 1036.15 591.157 1037.68 591.157Z" fill="#436AFF" fill-opacity="0.8"/>
<path d="M1020.19 572.328C1021.73 572.328 1021.73 570.023 1020.19 570.023C1018.65 570.023 1018.65 572.328 1020.19 572.328Z" fill="#436AFF" fill-opacity="0.8"/>
<path d="M1084.22 455.705C1085.75 455.705 1085.75 453.399 1084.22 453.399C1082.87 453.399 1082.87 455.705 1084.22 455.705Z" fill="#436AFF" fill-opacity="0.8"/>
<path d="M1093.06 487.791C1094.6 487.791 1094.6 485.485 1093.06 485.485C1091.52 485.485 1091.52 487.791 1093.06 487.791Z" fill="#436AFF" fill-opacity="0.8"/>
<path d="M1241.69 471.075C1243.23 471.075 1243.23 468.769 1241.69 468.769C1240.16 468.769 1240.16 471.075 1241.69 471.075Z" fill="#436AFF" fill-opacity="0.8"/>
<path d="M1219.77 446.29C1221.31 446.29 1221.31 443.984 1219.77 443.984C1218.24 443.984 1218.24 446.29 1219.77 446.29Z" fill="#436AFF" fill-opacity="0.8"/>
<path d="M1203.81 494.323C1205.35 494.323 1205.35 492.017 1203.81 492.017C1202.28 492.017 1202.28 494.323 1203.81 494.323Z" fill="#436AFF" fill-opacity="0.8"/>
<path d="M1206.7 473.189C1208.24 473.189 1208.24 470.883 1206.7 470.883C1205.16 470.883 1205.16 473.189 1206.7 473.189Z" fill="#436AFF" fill-opacity="0.8"/>
<path d="M1123.63 409.785C1125.17 409.785 1125.17 407.48 1123.63 407.48C1122.1 407.672 1122.1 409.785 1123.63 409.785Z" fill="#436AFF" fill-opacity="0.8"/>
<path d="M1298.42 417.086C1299.95 417.086 1299.95 414.781 1298.42 414.781C1297.07 414.781 1297.07 417.086 1298.42 417.086Z" fill="#436AFF" fill-opacity="0.8"/>
<path d="M1318.22 483.372C1319.76 483.372 1319.76 481.066 1318.22 481.066C1316.68 481.066 1316.68 483.372 1318.22 483.372Z" fill="#436AFF" fill-opacity="0.8"/>
<path d="M1363.98 460.124C1365.52 460.124 1365.52 457.818 1363.98 457.818C1362.64 457.818 1362.64 460.124 1363.98 460.124Z" fill="#436AFF" fill-opacity="0.8"/>
<path d="M1255.54 283.939C1257.08 283.939 1257.08 281.633 1255.54 281.633C1254 281.633 1254 283.939 1255.54 283.939Z" fill="#436AFF" fill-opacity="0.8"/>
<path d="M1192.09 290.471C1193.62 290.471 1193.62 288.166 1192.09 288.166C1190.55 288.166 1190.55 290.471 1192.09 290.471Z" fill="#436AFF" fill-opacity="0.8"/>
<path d="M1747.39 29.7492C1748.93 29.7492 1748.93 27.4436 1747.39 27.4436C1745.85 27.4436 1745.85 29.7492 1747.39 29.7492Z" fill="#436AFF" fill-opacity="0.8"/>
<path d="M1264.19 306.418C1265.73 306.418 1265.73 304.113 1264.19 304.113C1262.84 304.113 1262.84 306.418 1264.19 306.418Z" fill="#436AFF" fill-opacity="0.8"/>
<path d="M1235.73 227.837C1237.27 227.837 1237.27 225.531 1235.73 225.531C1234.39 225.531 1234.39 227.837 1235.73 227.837Z" fill="#436AFF" fill-opacity="0.8"/>
<path d="M1344.37 224.186C1345.91 224.186 1345.91 221.881 1344.37 221.881C1342.83 221.881 1342.83 224.186 1344.37 224.186Z" fill="#436AFF" fill-opacity="0.8"/>
<path d="M1252.65 212.658C1254.19 212.658 1254.19 210.353 1252.65 210.353C1251.12 210.353 1251.12 212.658 1252.65 212.658Z" fill="#436AFF" fill-opacity="0.8"/>
<path d="M303.75 603.646C305.289 603.646 305.289 601.34 303.75 601.34C302.212 601.532 302.212 603.646 303.75 603.646Z" fill="#436AFF" fill-opacity="0.8"/>
<path d="M549.1 538.321C550.639 538.321 550.639 536.016 549.1 536.016C547.754 536.016 547.754 538.321 549.1 538.321Z" fill="#436AFF" fill-opacity="0.8"/>
<path d="M598.708 613.637C600.247 613.637 600.247 611.331 598.708 611.331C597.17 611.331 597.17 613.637 598.708 613.637Z" fill="#436AFF" fill-opacity="0.8"/>
<path d="M516.99 612.292C518.528 612.292 518.528 609.986 516.99 609.986C515.451 609.986 515.451 612.292 516.99 612.292Z" fill="#436AFF" fill-opacity="0.8"/>
<path d="M548.715 602.493C550.253 602.493 550.253 600.187 548.715 600.187C547.177 600.187 547.177 602.493 548.715 602.493Z" fill="#436AFF" fill-opacity="0.8"/>
<path d="M562.944 461.66C563.136 461.469 563.136 461.66 562.944 461.66V461.66Z" fill="#436AFF" fill-opacity="0.8"/>
<path d="M526.218 454.552C527.757 454.552 527.757 452.246 526.218 452.246C524.872 452.438 524.872 454.552 526.218 454.552Z" fill="#436AFF" fill-opacity="0.8"/>
<path d="M502.376 477.415C503.915 477.415 503.915 475.11 502.376 475.11C500.838 475.11 500.838 477.415 502.376 477.415Z" fill="#436AFF" fill-opacity="0.8"/>
<path d="M551.023 491.633C552.561 491.633 552.561 489.328 551.023 489.328C549.485 489.328 549.485 491.633 551.023 491.633Z" fill="#436AFF" fill-opacity="0.8"/>
<path d="M529.872 489.52C531.411 489.52 531.411 487.214 529.872 487.214C528.334 487.214 528.334 489.52 529.872 489.52Z" fill="#436AFF" fill-opacity="0.8"/>
<path d="M469.688 574.826C471.226 574.826 471.226 572.52 469.688 572.52C468.15 572.52 468.15 574.826 469.688 574.826Z" fill="#436AFF" fill-opacity="0.8"/>
<path d="M470.265 399.986C471.803 399.986 471.803 397.681 470.265 397.681C468.727 397.681 468.727 399.986 470.265 399.986Z" fill="#436AFF" fill-opacity="0.8"/>
<path d="M535.64 377.699C537.179 377.699 537.179 375.394 535.64 375.394C534.294 375.394 534.294 377.699 535.64 377.699Z" fill="#436AFF" fill-opacity="0.8"/>
<path d="M510.644 332.74C512.182 332.74 512.182 330.435 510.644 330.435C509.298 330.627 509.298 332.74 510.644 332.74Z" fill="#436AFF" fill-opacity="0.8"/>
<path d="M338.553 448.019C340.092 448.019 340.092 445.714 338.553 445.714C337.207 445.714 337.207 448.019 338.553 448.019Z" fill="#436AFF" fill-opacity="0.8"/>
<path d="M347.59 511.038C349.128 511.038 349.128 508.733 347.59 508.733C346.052 508.733 346.052 511.038 347.59 511.038Z" fill="#436AFF" fill-opacity="0.8"/>
<path d="M360.858 438.413C362.396 438.413 362.396 436.107 360.858 436.107C359.32 436.107 359.32 438.413 360.858 438.413Z" fill="#436AFF" fill-opacity="0.8"/>
<path d="M283.369 469.73C284.907 469.73 284.907 467.425 283.369 467.425C281.83 467.425 281.83 469.73 283.369 469.73Z" fill="#436AFF" fill-opacity="0.8"/>
<path d="M275.485 361.368C277.023 361.368 277.023 359.062 275.485 359.062C274.139 359.255 274.139 361.368 275.485 361.368Z" fill="#436AFF" fill-opacity="0.8"/>
<path d="M267.41 453.591C268.948 453.591 268.948 451.286 267.41 451.286C265.871 451.286 265.871 453.591 267.41 453.591Z" fill="#436AFF" fill-opacity="0.8"/>
<path d="M1466.85 482.027C1468.39 482.027 1468.39 479.721 1466.85 479.721C1465.32 479.721 1465.32 482.027 1466.85 482.027Z" fill="#436AFF" fill-opacity="0.8"/>
<path d="M1433.97 443.408C1435.51 443.408 1435.51 441.103 1433.97 441.103C1432.63 441.103 1432.63 443.408 1433.97 443.408Z" fill="#436AFF" fill-opacity="0.8"/>
<path d="M1449.36 465.887C1450.9 465.887 1450.9 463.582 1449.36 463.582C1447.82 463.582 1447.82 465.887 1449.36 465.887Z" fill="#436AFF" fill-opacity="0.8"/>
<path d="M1536.84 502.392C1538.38 502.392 1538.38 500.087 1536.84 500.087C1535.31 500.087 1535.31 502.392 1536.84 502.392Z" fill="#436AFF" fill-opacity="0.8"/>
<path d="M1561.46 583.856C1562.99 583.856 1562.99 581.551 1561.46 581.551C1560.11 581.551 1560.11 583.856 1561.46 583.856Z" fill="#436AFF" fill-opacity="0.8"/>
<path d="M1610.29 633.426C1611.83 633.426 1611.83 631.121 1610.29 631.121C1608.95 631.121 1608.95 633.426 1610.29 633.426Z" fill="#436AFF" fill-opacity="0.8"/>
<path d="M1495.31 652.255C1496.85 652.255 1496.85 649.949 1495.31 649.949C1493.77 649.949 1493.77 652.255 1495.31 652.255Z" fill="#436AFF" fill-opacity="0.8"/>
<path d="M1435.51 597.69C1437.05 597.69 1437.05 595.384 1435.51 595.384C1433.97 595.384 1433.97 597.69 1435.51 597.69Z" fill="#436AFF" fill-opacity="0.8"/>
<path d="M1552.03 712.008C1553.57 712.008 1553.57 709.702 1552.03 709.702C1550.5 709.702 1550.5 712.008 1552.03 712.008Z" fill="#436AFF" fill-opacity="0.8"/>
<path d="M1681.82 650.91C1683.36 650.91 1683.36 648.604 1681.82 648.604C1680.29 648.604 1680.29 650.91 1681.82 650.91Z" fill="#436AFF" fill-opacity="0.8"/>
<path d="M1623.37 327.553C1624.91 327.553 1624.91 325.247 1623.37 325.247C1622.02 325.247 1622.02 327.553 1623.37 327.553Z" fill="#436AFF" fill-opacity="0.8"/>
<path d="M1545.5 222.841C1547.03 222.841 1547.03 220.536 1545.5 220.536C1543.96 220.536 1543.96 222.841 1545.5 222.841Z" fill="#436AFF" fill-opacity="0.8"/>
<path d="M1604.53 254.735C1606.06 254.735 1606.06 252.429 1604.53 252.429C1602.99 252.429 1602.99 254.735 1604.53 254.735Z" fill="#436AFF" fill-opacity="0.8"/>
<path d="M1548.38 255.504C1549.92 255.504 1549.92 253.198 1548.38 253.198C1546.84 253.198 1546.84 255.504 1548.38 255.504Z" fill="#436AFF" fill-opacity="0.8"/>
<path d="M1738.55 521.221C1740.08 521.221 1740.08 518.916 1738.55 518.916C1737.2 518.916 1737.2 521.221 1738.55 521.221Z" fill="#436AFF" fill-opacity="0.8"/>
<path d="M1713.74 519.108C1715.28 519.108 1715.28 516.802 1713.74 516.802C1712.4 516.802 1712.4 519.108 1713.74 519.108Z" fill="#436AFF" fill-opacity="0.8"/>
<path d="M1764.89 599.227C1766.43 599.227 1766.43 596.921 1764.89 596.921C1763.35 596.921 1763.35 599.227 1764.89 599.227Z" fill="#436AFF" fill-opacity="0.8"/>
<path d="M1863.91 720.077C1865.45 720.077 1865.45 717.772 1863.91 717.772C1862.38 717.772 1862.38 720.077 1863.91 720.077Z" fill="#436AFF" fill-opacity="0.8"/>
<path d="M1727.01 610.755C1728.55 610.755 1728.55 608.449 1727.01 608.449C1725.47 608.449 1725.47 610.755 1727.01 610.755Z" fill="#436AFF" fill-opacity="0.8"/>
<path d="M1474.74 487.791C1476.28 487.791 1476.28 485.485 1474.74 485.485C1473.39 485.485 1473.39 487.791 1474.74 487.791Z" fill="#436AFF" fill-opacity="0.8"/>
<path d="M1041.91 757.927C1043.45 757.927 1043.45 755.622 1041.91 755.622C1040.57 755.622 1040.57 757.927 1041.91 757.927Z" fill="#436AFF" fill-opacity="0.8"/>
<path d="M1031.72 839.391C1033.26 839.391 1033.26 837.086 1031.72 837.086C1030.38 837.086 1030.38 839.391 1031.72 839.391Z" fill="#436AFF" fill-opacity="0.8"/>
<path d="M786.951 819.025C788.489 819.025 788.489 816.719 786.951 816.719C785.412 816.719 785.412 819.025 786.951 819.025Z" fill="#436AFF" fill-opacity="0.8"/>
<path d="M765.031 765.228C766.569 765.228 766.569 762.923 765.031 762.923C763.685 762.923 763.685 765.228 765.031 765.228Z" fill="#436AFF" fill-opacity="0.8"/>
<path d="M718.499 855.53C720.038 855.53 720.038 853.224 718.499 853.224C716.961 853.224 716.961 855.53 718.499 855.53Z" fill="#436AFF" fill-opacity="0.8"/>
<path d="M902.126 909.327C903.665 909.327 903.665 907.021 902.126 907.021C900.588 907.021 900.588 909.327 902.126 909.327Z" fill="#436AFF" fill-opacity="0.8"/>
<path d="M1266.5 894.725C1268.04 894.725 1268.04 892.419 1266.5 892.419C1264.96 892.419 1264.96 894.725 1266.5 894.725Z" fill="#436AFF" fill-opacity="0.8"/>
<path d="M1346.49 823.444C1348.02 823.444 1348.02 821.139 1346.49 821.139C1345.14 821.139 1345.14 823.444 1346.49 823.444Z" fill="#436AFF" fill-opacity="0.8"/>
<path d="M1512.62 877.241C1514.16 877.241 1514.16 874.935 1512.62 874.935C1511.27 874.935 1511.27 877.241 1512.62 877.241Z" fill="#436AFF" fill-opacity="0.8"/>
<path d="M1607.41 816.143C1608.95 816.143 1608.95 813.838 1607.41 813.838C1605.87 813.838 1605.87 816.143 1607.41 816.143Z" fill="#436AFF" fill-opacity="0.8"/>
<path d="M1391.67 3.6193C1393.21 3.6193 1393.21 1.31372 1391.67 1.31372C1390.33 1.31372 1390.33 3.6193 1391.67 3.6193Z" fill="#436AFF" fill-opacity="0.8"/>
<path d="M1343.6 76.437C1345.14 76.437 1345.14 74.1315 1343.6 74.1315C1342.26 74.1315 1342.26 76.437 1343.6 76.437Z" fill="#436AFF" fill-opacity="0.8"/>
<path d="M1423.78 37.0501C1425.32 37.0501 1425.32 34.7445 1423.78 34.7445C1422.25 34.7445 1422.25 37.0501 1423.78 37.0501Z" fill="#436AFF" fill-opacity="0.8"/>
<path d="M1658.36 39.932C1659.9 39.932 1659.9 37.6265 1658.36 37.6265C1657.02 37.8186 1657.02 39.932 1658.36 39.932Z" fill="#436AFF" fill-opacity="0.8"/>
<path d="M1282.46 759.272C1284 759.272 1284 756.967 1282.46 756.967C1280.92 757.159 1280.92 759.272 1282.46 759.272Z" fill="#436AFF" fill-opacity="0.8"/>
<path d="M1727.01 71.2495C1728.55 71.2495 1728.55 68.944 1727.01 68.944C1725.47 68.944 1725.47 71.2495 1727.01 71.2495Z" fill="#436AFF" fill-opacity="0.8"/>
<path d="M1684.71 188.45C1686.25 188.45 1686.25 186.144 1684.71 186.144C1683.17 186.336 1683.17 188.45 1684.71 188.45Z" fill="#436AFF" fill-opacity="0.8"/>
<path d="M1754.7 209.008C1756.24 209.008 1756.24 206.702 1754.7 206.702C1753.16 206.702 1753.16 209.008 1754.7 209.008Z" fill="#436AFF" fill-opacity="0.8"/>
<path d="M1709.51 203.052C1711.05 203.052 1711.05 200.746 1709.51 200.746C1707.97 200.746 1707.97 203.052 1709.51 203.052Z" fill="#436AFF" fill-opacity="0.8"/>
<path d="M1734.12 335.622C1735.66 335.622 1735.66 333.317 1734.12 333.317C1732.78 333.317 1732.78 335.622 1734.12 335.622Z" fill="#436AFF" fill-opacity="0.8"/>
<path d="M1697.78 399.602C1699.32 399.602 1699.32 397.297 1697.78 397.297C1696.24 397.489 1696.24 399.602 1697.78 399.602Z" fill="#436AFF" fill-opacity="0.8"/>
<path d="M1831.8 354.451C1833.34 354.451 1833.34 352.146 1831.8 352.146C1830.46 352.338 1830.46 354.451 1831.8 354.451Z" fill="#436AFF" fill-opacity="0.8"/>
<path d="M1839.11 417.086C1840.65 417.086 1840.65 414.781 1839.11 414.781C1837.57 414.781 1837.57 417.086 1839.11 417.086Z" fill="#436AFF" fill-opacity="0.8"/>
<path d="M1798.35 385.192C1799.88 385.192 1799.88 382.887 1798.35 382.887C1796.81 382.887 1796.81 385.192 1798.35 385.192Z" fill="#436AFF" fill-opacity="0.8"/>
<path d="M1843.53 380.773C1845.07 380.773 1845.07 378.468 1843.53 378.468C1841.99 378.468 1841.99 380.773 1843.53 380.773Z" fill="#436AFF" fill-opacity="0.8"/>
<path d="M650.047 214.772C651.585 214.772 651.585 212.466 650.047 212.466C648.509 212.466 648.509 214.772 650.047 214.772Z" fill="#436AFF" fill-opacity="0.8"/>
<path d="M628.127 268.569C629.666 268.569 629.666 266.263 628.127 266.263C626.589 266.263 626.589 268.569 628.127 268.569Z" fill="#436AFF" fill-opacity="0.8"/>
<path d="M488.147 174.04C489.685 174.04 489.685 171.734 488.147 171.734C486.801 171.734 486.801 174.04 488.147 174.04Z" fill="#436AFF" fill-opacity="0.8"/>
<path d="M453.344 63.3721C454.882 63.3721 454.882 61.0665 453.344 61.0665C451.806 61.0665 451.806 63.3721 453.344 63.3721Z" fill="#436AFF" fill-opacity="0.8"/>
<path d="M696.579 54.5341C698.117 54.5341 698.117 52.2285 696.579 52.2285C695.233 52.2285 695.233 54.5341 696.579 54.5341Z" fill="#436AFF" fill-opacity="0.8"/>
<path d="M907.895 187.105C909.433 187.105 909.433 184.799 907.895 184.799C906.549 184.799 906.549 187.105 907.895 187.105Z" fill="#436AFF" fill-opacity="0.8"/>
<path d="M779.644 165.202C781.182 165.202 781.182 162.896 779.644 162.896C778.298 162.896 778.298 165.202 779.644 165.202Z" fill="#436AFF" fill-opacity="0.8"/>
<path d="M784.067 227.837C785.605 227.837 785.605 225.531 784.067 225.531C782.529 225.531 782.529 227.837 784.067 227.837Z" fill="#436AFF" fill-opacity="0.8"/>
<path d="M969.233 262.805C970.771 262.805 970.771 260.499 969.233 260.499C967.695 260.499 967.695 262.805 969.233 262.805Z" fill="#436AFF" fill-opacity="0.8"/>
<path d="M886.167 47.2331C887.706 47.2331 887.706 44.9275 886.167 44.9275C884.629 44.9275 884.629 47.2331 886.167 47.2331Z" fill="#436AFF" fill-opacity="0.8"/>
<path d="M208.38 57.4161C209.918 57.4161 209.918 55.1105 208.38 55.1105C207.034 55.1105 207.034 57.4161 208.38 57.4161Z" fill="#436AFF" fill-opacity="0.8"/>
<path d="M279.908 176.922C281.446 176.922 281.446 174.616 279.908 174.616C278.369 174.616 278.369 176.922 279.908 176.922Z" fill="#436AFF" fill-opacity="0.8"/>
<path d="M316.248 104.104C317.787 104.104 317.787 101.798 316.248 101.798C314.71 101.798 314.71 104.104 316.248 104.104Z" fill="#436AFF" fill-opacity="0.8"/>
<path d="M163.193 705.475C164.731 705.475 164.731 703.17 163.193 703.17C161.847 703.17 161.847 705.475 163.193 705.475Z" fill="#436AFF" fill-opacity="0.8"/>
<path d="M227.415 824.789C228.954 824.789 228.954 822.484 227.415 822.484C225.877 822.676 225.877 824.789 227.415 824.789Z" fill="#436AFF" fill-opacity="0.8"/>
<path d="M69.9372 845.347C71.4754 845.347 71.4754 843.042 69.9372 843.042C68.5912 843.042 68.5912 845.347 69.9372 845.347Z" fill="#436AFF" fill-opacity="0.8"/>
<path d="M1.48571 717.195C3.02396 717.195 3.02396 714.89 1.48571 714.89C-0.0525293 714.89 -0.0525293 717.195 1.48571 717.195Z" fill="#436AFF" fill-opacity="0.8"/>
<path d="M48.2093 763.691C49.7476 763.691 49.7476 761.386 48.2093 761.386C46.6711 761.386 46.6711 763.691 48.2093 763.691Z" fill="#436AFF" fill-opacity="0.8"/>
<path d="M155.886 736.024C157.425 736.024 157.425 733.719 155.886 733.719C154.54 733.719 154.54 736.024 155.886 736.024Z" fill="#436AFF" fill-opacity="0.8"/>
<path d="M275.485 760.809C277.023 760.809 277.023 758.504 275.485 758.504C273.946 758.504 273.946 760.809 275.485 760.809Z" fill="#436AFF" fill-opacity="0.8"/>
<path d="M383.355 848.229C384.893 848.229 384.893 845.924 383.355 845.924C381.817 845.924 381.817 848.229 383.355 848.229Z" fill="#436AFF" fill-opacity="0.8"/>
<path d="M325.093 875.896C326.631 875.896 326.631 873.59 325.093 873.59C323.555 873.59 323.555 875.896 325.093 875.896Z" fill="#436AFF" fill-opacity="0.8"/>
<path d="M377.394 890.498C378.932 890.498 378.932 888.193 377.394 888.193C376.048 888.193 376.048 890.498 377.394 890.498Z" fill="#436AFF" fill-opacity="0.8"/>
<path d="M362.973 845.347C364.511 845.347 364.511 843.042 362.973 843.042C361.435 843.042 361.435 845.347 362.973 845.347Z" fill="#436AFF" fill-opacity="0.8"/>
<path d="M623.705 720.077C625.243 720.077 625.243 717.772 623.705 717.772C622.359 717.772 622.359 720.077 623.705 720.077Z" fill="#436AFF" fill-opacity="0.8"/>
<path d="M681.966 794.24C683.504 794.24 683.504 791.935 681.966 791.935C680.62 791.935 680.62 794.24 681.966 794.24Z" fill="#436AFF" fill-opacity="0.8"/>
<path d="M660.238 644.378C661.776 644.378 661.776 642.072 660.238 642.072C658.699 642.072 658.699 644.378 660.238 644.378Z" fill="#436AFF" fill-opacity="0.8"/>
<path d="M667.544 373.472C669.083 373.472 669.083 371.167 667.544 371.167C666.006 371.167 666.006 373.472 667.544 373.472Z" fill="#436AFF" fill-opacity="0.8"/>
<path d="M1124.02 667.433C1125.56 667.433 1125.56 665.128 1124.02 665.128C1122.48 665.128 1122.48 667.433 1124.02 667.433Z" fill="#B1D7FF" fill-opacity="0.6"/>
<path d="M910.394 598.266C911.932 598.266 911.932 595.96 910.394 595.96C909.048 595.96 909.048 598.266 910.394 598.266Z" fill="#B1D7FF" fill-opacity="0.6"/>
<path d="M1009.42 589.236C1010.96 589.236 1010.96 586.93 1009.42 586.93C1008.07 586.93 1008.07 589.236 1009.42 589.236Z" fill="#B1D7FF" fill-opacity="0.6"/>
<path d="M935.199 458.394C936.737 458.394 936.737 456.089 935.199 456.089C933.853 456.089 933.853 458.394 935.199 458.394Z" fill="#B1D7FF" fill-opacity="0.6"/>
<path d="M909.048 440.91C910.586 440.91 910.586 438.605 909.048 438.605C907.51 438.797 907.51 440.91 909.048 440.91Z" fill="#B1D7FF" fill-opacity="0.6"/>
<path d="M1186.32 687.799C1187.86 687.799 1187.86 685.494 1186.32 685.494C1184.97 685.494 1184.97 687.799 1186.32 687.799Z" fill="#B1D7FF" fill-opacity="0.6"/>
<path d="M712.346 581.551C713.885 581.551 713.885 579.245 712.346 579.245C711 579.245 711 581.551 712.346 581.551Z" fill="#B1D7FF" fill-opacity="0.6"/>
<path d="M757.724 519.108C759.262 519.108 759.262 516.802 757.724 516.802C756.186 516.802 756.186 519.108 757.724 519.108Z" fill="#B1D7FF" fill-opacity="0.6"/>
<path d="M1647.79 444.753C1649.33 444.753 1649.33 442.447 1647.79 442.447C1646.44 442.447 1646.44 444.753 1647.79 444.753Z" fill="#B1D7FF" fill-opacity="0.6"/>
<path d="M1145.75 578.092C1147.28 578.092 1147.28 575.787 1145.75 575.787C1144.21 575.787 1144.21 578.092 1145.75 578.092Z" fill="#B1D7FF" fill-opacity="0.6"/>
<path d="M605.823 429.382C607.361 429.382 607.361 427.077 605.823 427.077C604.477 427.077 604.477 429.382 605.823 429.382Z" fill="#B1D7FF" fill-opacity="0.6"/>
<path d="M750.802 634.195C752.341 634.195 752.341 631.889 750.802 631.889C749.456 631.889 749.456 634.195 750.802 634.195Z" fill="#B1D7FF" fill-opacity="0.6"/>
<path d="M598.708 483.179C600.247 483.179 600.247 480.874 598.708 480.874C597.17 480.874 597.17 483.179 598.708 483.179Z" fill="#B1D7FF" fill-opacity="0.6"/>
<path d="M508.336 500.663C509.875 500.663 509.875 498.358 508.336 498.358C506.798 498.358 506.798 500.663 508.336 500.663Z" fill="#B1D7FF" fill-opacity="0.6"/>
<path d="M833.291 468.193C834.829 468.193 834.829 465.887 833.291 465.887C831.945 465.887 831.945 468.193 833.291 468.193Z" fill="#B1D7FF" fill-opacity="0.6"/>
<path d="M541.793 595.384C543.332 595.384 543.332 593.078 541.793 593.078C540.255 593.078 540.255 595.384 541.793 595.384Z" fill="#B1D7FF" fill-opacity="0.6"/>
<path d="M1727.2 496.052C1728.74 496.052 1728.74 493.747 1727.2 493.747C1725.85 493.747 1725.85 496.052 1727.2 496.052Z" fill="#B1D7FF" fill-opacity="0.6"/>
<path d="M1821.23 345.037C1822.76 345.037 1822.76 342.731 1821.23 342.731C1819.88 342.731 1819.88 345.037 1821.23 345.037Z" fill="#B1D7FF" fill-opacity="0.6"/>
<path d="M1626.25 558.495C1627.79 558.495 1627.79 556.189 1626.25 556.189C1624.72 556.189 1624.72 558.495 1626.25 558.495Z" fill="#B1D7FF" fill-opacity="0.6"/>
<path d="M1537.81 507.58C1539.34 507.58 1539.34 505.274 1537.81 505.274C1536.27 505.274 1536.27 507.58 1537.81 507.58Z" fill="#B1D7FF" fill-opacity="0.6"/>
<path d="M1574.34 634.387C1575.88 634.387 1575.88 632.081 1574.34 632.081C1572.8 632.081 1572.8 634.387 1574.34 634.387Z" fill="#B1D7FF" fill-opacity="0.6"/>
<path d="M1492.81 610.755C1494.35 610.755 1494.35 608.449 1492.81 608.449C1491.27 608.449 1491.27 610.755 1492.81 610.755Z" fill="#B1D7FF" fill-opacity="0.6"/>
<path d="M843.481 274.909C845.019 274.909 845.019 272.603 843.481 272.603C841.943 272.795 841.943 274.909 843.481 274.909Z" fill="#B1D7FF" fill-opacity="0.6"/>
<path d="M1763.73 350.416C1765.27 350.416 1765.27 348.111 1763.73 348.111C1762.2 348.111 1762.2 350.416 1763.73 350.416Z" fill="#B1D7FF" fill-opacity="0.6"/>
<path d="M1432.24 133.692C1433.78 133.692 1433.78 131.387 1432.24 131.387C1430.71 131.387 1430.71 133.692 1432.24 133.692Z" fill="#B1D7FF" fill-opacity="0.6"/>
<path d="M546.216 148.294C547.754 148.294 547.754 145.989 546.216 145.989C544.678 145.989 544.678 148.294 546.216 148.294Z" fill="#B1D7FF" fill-opacity="0.6"/>
<path d="M426.617 206.51C428.155 206.51 428.155 204.204 426.617 204.204C425.271 204.204 425.271 206.51 426.617 206.51Z" fill="#B1D7FF" fill-opacity="0.6"/>
<path d="M235.106 578.092C236.644 578.092 236.644 575.787 235.106 575.787C233.568 575.787 233.568 578.092 235.106 578.092Z" fill="#B1D7FF" fill-opacity="0.6"/>
<path d="M227.799 631.889C229.337 631.889 229.337 629.583 227.799 629.583C226.261 629.583 226.261 631.889 227.799 631.889Z" fill="#B1D7FF" fill-opacity="0.6"/>
<path d="M137.428 649.373C138.966 649.373 138.966 647.067 137.428 647.067C135.89 647.067 135.89 649.373 137.428 649.373Z" fill="#B1D7FF" fill-opacity="0.6"/>
<path d="M170.884 744.094C172.422 744.094 172.422 741.788 170.884 741.788C169.346 741.788 169.346 744.094 170.884 744.094Z" fill="#B1D7FF" fill-opacity="0.6"/>
<path d="M175.307 297.004C176.845 297.004 176.845 294.698 175.307 294.698C173.769 294.698 173.769 297.004 175.307 297.004Z" fill="#B1D7FF" fill-opacity="0.6"/>
<path d="M55.7087 355.22C57.2469 355.22 57.2469 352.914 55.7087 352.914C54.3627 352.914 54.3627 355.22 55.7087 355.22Z" fill="#B1D7FF" fill-opacity="0.6"/>
<path d="M1180.16 419.968C1181.7 419.968 1181.7 417.662 1180.16 417.662C1178.63 417.662 1178.63 419.968 1180.16 419.968Z" fill="#B1D7FF" fill-opacity="0.6"/>
<path d="M1660.29 636.5C1661.83 636.5 1661.83 634.195 1660.29 634.195C1658.75 634.195 1658.75 636.5 1660.29 636.5Z" fill="#B1D7FF" fill-opacity="0.6"/>
<path d="M1646.06 554.652C1647.6 554.652 1647.6 552.347 1646.06 552.347C1644.71 552.347 1644.52 554.652 1646.06 554.652Z" fill="#B1D7FF" fill-opacity="0.6"/>
<path d="M1777.58 437.452C1779.12 437.452 1779.12 435.146 1777.58 435.146C1776.04 435.338 1776.04 437.452 1777.58 437.452Z" fill="#B1D7FF" fill-opacity="0.6"/>
<path d="M1642.79 589.236C1644.33 589.236 1644.33 586.93 1642.79 586.93C1641.25 586.93 1641.25 589.236 1642.79 589.236Z" fill="#B1D7FF" fill-opacity="0.6"/>
<path d="M1612.79 575.21C1614.33 575.21 1614.33 572.905 1612.79 572.905C1611.45 572.905 1611.45 575.21 1612.79 575.21Z" fill="#B1D7FF" fill-opacity="0.6"/>
<path d="M1556.46 604.414C1558 604.414 1558 602.109 1556.46 602.109C1555.11 602.109 1554.92 604.414 1556.46 604.414Z" fill="#B1D7FF" fill-opacity="0.6"/>
<path d="M1663.17 537.937C1664.71 537.937 1664.71 535.631 1663.17 535.631C1661.83 535.631 1661.83 537.937 1663.17 537.937Z" fill="#B1D7FF" fill-opacity="0.6"/>
<path d="M1696.63 490.672C1698.17 490.672 1698.17 488.367 1696.63 488.367C1695.09 488.367 1695.09 490.672 1696.63 490.672Z" fill="#B1D7FF" fill-opacity="0.6"/>
<path d="M1689.13 537.36C1690.67 537.36 1690.67 535.055 1689.13 535.055C1687.59 535.055 1687.59 537.36 1689.13 537.36Z" fill="#B1D7FF" fill-opacity="0.6"/>
<path d="M1612.79 601.532C1614.33 601.532 1614.33 599.227 1612.79 599.227C1611.45 599.227 1611.45 601.532 1612.79 601.532Z" fill="#B1D7FF" fill-opacity="0.6"/>
<path d="M1527.42 626.701C1528.96 626.701 1528.96 624.396 1527.42 624.396C1526.08 624.396 1526.08 626.701 1527.42 626.701Z" fill="#B1D7FF" fill-opacity="0.6"/>
<path d="M1403.59 694.14C1405.13 694.14 1405.13 691.834 1403.59 691.834C1402.05 691.834 1402.05 694.14 1403.59 694.14Z" fill="#B1D7FF" fill-opacity="0.6"/>
<path d="M1617.99 582.511C1619.52 582.511 1619.52 580.206 1617.99 580.206C1616.45 580.398 1616.45 582.511 1617.99 582.511Z" fill="#B1D7FF" fill-opacity="0.6"/>
<path d="M1702.78 512.96C1704.32 512.96 1704.32 510.654 1702.78 510.654C1701.24 510.654 1701.24 512.96 1702.78 512.96Z" fill="#B1D7FF" fill-opacity="0.6"/>
<path d="M1600.49 601.532C1602.03 601.532 1602.03 599.227 1600.49 599.227C1598.95 599.227 1598.95 601.532 1600.49 601.532Z" fill="#B1D7FF" fill-opacity="0.6"/>
<path d="M1568.38 597.69C1569.92 597.69 1569.92 595.384 1568.38 595.384C1567.03 595.384 1567.03 597.69 1568.38 597.69Z" fill="#B1D7FF" fill-opacity="0.6"/>
<path d="M1107.29 454.744C1108.83 454.744 1108.83 452.438 1107.29 452.438C1105.75 452.63 1105.75 454.744 1107.29 454.744Z" fill="#B1D7FF" fill-opacity="0.6"/>
<path d="M1115.94 422.85C1117.48 422.85 1117.48 420.544 1115.94 420.544C1114.4 420.544 1114.4 422.85 1115.94 422.85Z" fill="#B1D7FF" fill-opacity="0.6"/>
<path d="M1264.58 439.565C1266.11 439.565 1266.11 437.26 1264.58 437.26C1263.04 437.26 1263.04 439.565 1264.58 439.565Z" fill="#B1D7FF" fill-opacity="0.6"/>
<path d="M1462.24 656.482C1463.78 656.482 1463.78 654.176 1462.24 654.176C1460.89 654.176 1460.89 656.482 1462.24 656.482Z" fill="#B1D7FF" fill-opacity="0.6"/>
<path d="M1795.08 452.054C1796.61 452.054 1796.61 449.748 1795.08 449.748C1793.54 449.748 1793.54 452.054 1795.08 452.054Z" fill="#B1D7FF" fill-opacity="0.6"/>
<path d="M1502.04 631.889C1503.58 631.889 1503.58 629.583 1502.04 629.583C1500.5 629.583 1500.5 631.889 1502.04 631.889Z" fill="#B1D7FF" fill-opacity="0.6"/>
<path d="M1242.65 464.35C1244.19 464.35 1244.19 462.045 1242.65 462.045C1241.31 462.045 1241.31 464.35 1242.65 464.35Z" fill="#B1D7FF" fill-opacity="0.6"/>
<path d="M1474.16 641.88C1475.7 641.88 1475.7 639.574 1474.16 639.574C1472.81 639.574 1472.81 641.88 1474.16 641.88Z" fill="#B1D7FF" fill-opacity="0.6"/>
<path d="M1226.7 416.318C1228.23 416.318 1228.23 414.012 1226.7 414.012C1225.16 414.012 1225.16 416.318 1226.7 416.318Z" fill="#B1D7FF" fill-opacity="0.6"/>
<path d="M1405.13 198.633C1406.67 198.633 1406.67 196.327 1405.13 196.327C1403.79 196.327 1403.79 198.633 1405.13 198.633Z" fill="#B1D7FF" fill-opacity="0.6"/>
<path d="M1451.09 219.575C1452.62 219.575 1452.62 217.269 1451.09 217.269C1449.74 217.269 1449.74 219.575 1451.09 219.575Z" fill="#B1D7FF" fill-opacity="0.6"/>
<path d="M1229.58 437.26C1231.12 437.26 1231.12 434.954 1229.58 434.954C1228.23 435.146 1228.23 437.26 1229.58 437.26Z" fill="#B1D7FF" fill-opacity="0.6"/>
<path d="M1146.52 500.663C1148.05 500.663 1148.05 498.358 1146.52 498.358C1145.17 498.358 1145.17 500.663 1146.52 500.663Z" fill="#B1D7FF" fill-opacity="0.6"/>
<path d="M1321.49 493.362C1323.03 493.362 1323.03 491.057 1321.49 491.057C1319.95 491.057 1319.95 493.362 1321.49 493.362Z" fill="#B1D7FF" fill-opacity="0.6"/>
<path d="M1341.1 427.077C1342.64 427.077 1342.64 424.771 1341.1 424.771C1339.56 424.963 1339.56 427.077 1341.1 427.077Z" fill="#B1D7FF" fill-opacity="0.6"/>
<path d="M1387.06 450.517C1388.6 450.517 1388.6 448.211 1387.06 448.211C1385.52 448.211 1385.52 450.517 1387.06 450.517Z" fill="#B1D7FF" fill-opacity="0.6"/>
<path d="M1278.42 626.701C1279.96 626.701 1279.96 624.396 1278.42 624.396C1276.88 624.396 1276.88 626.701 1278.42 626.701Z" fill="#B1D7FF" fill-opacity="0.6"/>
<path d="M1214.97 620.169C1216.5 620.169 1216.5 617.863 1214.97 617.863C1213.62 617.863 1213.62 620.169 1214.97 620.169Z" fill="#B1D7FF" fill-opacity="0.6"/>
<path d="M1287.26 604.03C1288.8 604.03 1288.8 601.724 1287.26 601.724C1285.73 601.724 1285.73 604.03 1287.26 604.03Z" fill="#B1D7FF" fill-opacity="0.6"/>
<path d="M1258.81 682.804C1260.35 682.804 1260.35 680.498 1258.81 680.498C1257.27 680.498 1257.27 682.804 1258.81 682.804Z" fill="#B1D7FF" fill-opacity="0.6"/>
<path d="M1367.25 686.262C1368.79 686.262 1368.79 683.957 1367.25 683.957C1365.91 684.149 1365.91 686.262 1367.25 686.262Z" fill="#B1D7FF" fill-opacity="0.6"/>
<path d="M1633.37 820.562C1634.91 820.562 1634.91 818.256 1633.37 818.256C1631.83 818.256 1631.83 820.562 1633.37 820.562Z" fill="#B1D7FF" fill-opacity="0.6"/>
<path d="M1275.53 697.982C1277.07 697.982 1277.07 695.677 1275.53 695.677C1274 695.677 1274 697.982 1275.53 697.982Z" fill="#B1D7FF" fill-opacity="0.6"/>
<path d="M326.632 306.803C328.17 306.803 328.17 304.497 326.632 304.497C325.286 304.497 325.286 306.803 326.632 306.803Z" fill="#B1D7FF" fill-opacity="0.6"/>
<path d="M635.819 502.392C637.357 502.392 637.357 500.087 635.819 500.087C634.28 500.087 634.28 502.392 635.819 502.392Z" fill="#B1D7FF" fill-opacity="0.6"/>
<path d="M944.236 490.865C945.774 490.865 945.774 488.559 944.236 488.559C942.697 488.559 942.697 490.865 944.236 490.865Z" fill="#B1D7FF" fill-opacity="0.6"/>
<path d="M764.838 537.168C766.376 537.168 766.376 534.863 764.838 534.863C763.3 534.863 763.3 537.168 764.838 537.168Z" fill="#B1D7FF" fill-opacity="0.6"/>
<path d="M862.517 492.017C864.055 492.017 864.055 489.712 862.517 489.712C860.979 489.712 860.979 492.017 862.517 492.017Z" fill="#B1D7FF" fill-opacity="0.6"/>
<path d="M894.244 502.008C895.782 502.008 895.782 499.703 894.244 499.703C892.705 499.703 892.705 502.008 894.244 502.008Z" fill="#B1D7FF" fill-opacity="0.6"/>
<path d="M549.292 455.897C550.831 455.897 550.831 453.591 549.292 453.591C547.754 453.591 547.754 455.897 549.292 455.897Z" fill="#B1D7FF" fill-opacity="0.6"/>
<path d="M525.257 433.225C526.795 433.225 526.795 430.92 525.257 430.92C523.719 430.92 523.719 433.225 525.257 433.225Z" fill="#B1D7FF" fill-opacity="0.6"/>
<path d="M65.3226 498.742C66.8609 498.742 66.8609 496.436 65.3226 496.436C63.7844 496.436 63.7844 498.742 65.3226 498.742Z" fill="#B1D7FF" fill-opacity="0.6"/>
<path d="M573.904 419.007C575.442 419.007 575.442 416.702 573.904 416.702C572.558 416.702 572.558 419.007 573.904 419.007Z" fill="#B1D7FF" fill-opacity="0.6"/>
<path d="M1076.91 167.699C1078.45 167.699 1078.45 165.394 1076.91 165.394C1075.37 165.394 1075.37 167.699 1076.91 167.699Z" fill="#B1D7FF" fill-opacity="0.6"/>
<path d="M552.753 421.121C554.292 421.121 554.292 418.815 552.753 418.815C551.215 418.815 551.215 421.121 552.753 421.121Z" fill="#B1D7FF" fill-opacity="0.6"/>
<path d="M470.457 337.351C471.996 337.351 471.996 335.046 470.457 335.046C468.919 335.046 468.919 337.351 470.457 337.351Z" fill="#B1D7FF" fill-opacity="0.6"/>
<path d="M815.216 529.675C816.754 529.675 816.754 527.37 815.216 527.37C813.678 527.37 813.678 529.675 815.216 529.675Z" fill="#B1D7FF" fill-opacity="0.6"/>
<path d="M493.146 510.654C494.684 510.654 494.684 508.349 493.146 508.349C491.608 508.349 491.608 510.654 493.146 510.654Z" fill="#B1D7FF" fill-opacity="0.6"/>
<path d="M558.714 532.749C560.252 532.749 560.252 530.444 558.714 530.444C557.176 530.444 557.176 532.749 558.714 532.749Z" fill="#B1D7FF" fill-opacity="0.6"/>
<path d="M533.525 577.708C535.063 577.708 535.063 575.402 533.525 575.402C532.179 575.402 532.179 577.708 533.525 577.708Z" fill="#B1D7FF" fill-opacity="0.6"/>
<path d="M361.626 462.621C363.165 462.621 363.165 460.316 361.626 460.316C360.088 460.316 360.088 462.621 361.626 462.621Z" fill="#B1D7FF" fill-opacity="0.6"/>
<path d="M370.471 399.602C372.01 399.602 372.01 397.297 370.471 397.297C369.125 397.297 369.125 399.602 370.471 399.602Z" fill="#B1D7FF" fill-opacity="0.6"/>
<path d="M383.739 472.228C385.277 472.228 385.277 469.922 383.739 469.922C382.393 469.922 382.393 472.228 383.739 472.228Z" fill="#B1D7FF" fill-opacity="0.6"/>
<path d="M306.249 440.91C307.788 440.91 307.788 438.605 306.249 438.605C304.711 438.605 304.711 440.91 306.249 440.91Z" fill="#B1D7FF" fill-opacity="0.6"/>
<path d="M298.559 549.08C300.097 549.08 300.097 546.775 298.559 546.775C297.021 546.775 297.021 549.08 298.559 549.08Z" fill="#B1D7FF" fill-opacity="0.6"/>
<path d="M354.897 542.932C354.705 542.74 354.705 542.932 354.897 542.932V542.932Z" fill="#B1D7FF" fill-opacity="0.6"/>
<path d="M290.29 457.049C291.829 457.049 291.829 454.744 290.29 454.744C288.752 454.744 288.752 457.049 290.29 457.049Z" fill="#B1D7FF" fill-opacity="0.6"/>
<path d="M1489.74 428.614C1491.27 428.614 1491.27 426.308 1489.74 426.308C1488.2 426.308 1488.2 428.614 1489.74 428.614Z" fill="#B1D7FF" fill-opacity="0.6"/>
<path d="M1457.05 467.232C1458.59 467.232 1458.59 464.927 1457.05 464.927C1455.51 464.927 1455.51 467.232 1457.05 467.232Z" fill="#B1D7FF" fill-opacity="0.6"/>
<path d="M1472.24 444.561C1473.78 444.561 1473.78 442.255 1472.24 442.255C1470.7 442.255 1470.7 444.561 1472.24 444.561Z" fill="#B1D7FF" fill-opacity="0.6"/>
<path d="M1559.72 408.248C1561.26 408.248 1561.26 405.943 1559.72 405.943C1558.19 405.943 1558.19 408.248 1559.72 408.248Z" fill="#B1D7FF" fill-opacity="0.6"/>
<path d="M1584.53 326.592C1586.07 326.592 1586.07 324.287 1584.53 324.287C1582.99 324.479 1582.99 326.592 1584.53 326.592Z" fill="#B1D7FF" fill-opacity="0.6"/>
<path d="M1633.37 277.214C1634.91 277.214 1634.91 274.909 1633.37 274.909C1631.83 274.909 1631.83 277.214 1633.37 277.214Z" fill="#B1D7FF" fill-opacity="0.6"/>
<path d="M1518.19 258.193C1519.73 258.193 1519.73 255.888 1518.19 255.888C1516.65 255.888 1516.65 258.193 1518.19 258.193Z" fill="#B1D7FF" fill-opacity="0.6"/>
<path d="M1458.39 312.759C1459.93 312.759 1459.93 310.453 1458.39 310.453C1456.86 310.645 1456.86 312.759 1458.39 312.759Z" fill="#B1D7FF" fill-opacity="0.6"/>
<path d="M1574.92 198.633C1576.45 198.633 1576.45 196.327 1574.92 196.327C1573.57 196.327 1573.57 198.633 1574.92 198.633Z" fill="#B1D7FF" fill-opacity="0.6"/>
<path d="M1704.7 259.73C1706.24 259.73 1706.24 257.425 1704.7 257.425C1703.17 257.425 1703.17 259.73 1704.7 259.73Z" fill="#B1D7FF" fill-opacity="0.6"/>
<path d="M1646.44 582.896C1647.98 582.896 1647.98 580.59 1646.44 580.59C1644.91 580.59 1644.91 582.896 1646.44 582.896Z" fill="#B1D7FF" fill-opacity="0.6"/>
<path d="M1630.87 564.259C1632.41 564.259 1632.41 561.953 1630.87 561.953C1629.52 561.953 1629.52 564.259 1630.87 564.259Z" fill="#B1D7FF" fill-opacity="0.6"/>
<path d="M1584.53 578.092C1586.07 578.092 1586.07 575.787 1584.53 575.787C1582.99 575.787 1582.99 578.092 1584.53 578.092Z" fill="#B1D7FF" fill-opacity="0.6"/>
<path d="M1391.48 104.104C1393.02 104.104 1393.02 101.798 1391.48 101.798C1389.94 101.798 1389.94 104.104 1391.48 104.104Z" fill="#B1D7FF" fill-opacity="0.6"/>
<path d="M1469.74 274.14C1471.28 274.14 1471.28 271.835 1469.74 271.835C1468.39 271.835 1468.39 274.14 1469.74 274.14Z" fill="#B1D7FF" fill-opacity="0.6"/>
<path d="M1727.01 624.204C1728.55 624.204 1728.55 621.898 1727.01 621.898C1725.47 621.898 1725.47 624.204 1727.01 624.204Z" fill="#B1D7FF" fill-opacity="0.6"/>
<path d="M1821.23 661.285C1822.76 661.285 1822.76 658.98 1821.23 658.98C1819.88 658.98 1819.88 661.285 1821.23 661.285Z" fill="#B1D7FF" fill-opacity="0.6"/>
<path d="M1568.38 687.799C1569.92 687.799 1569.92 685.494 1568.38 685.494C1567.03 685.494 1567.03 687.799 1568.38 687.799Z" fill="#B1D7FF" fill-opacity="0.6"/>
<path d="M1627.41 655.713C1628.95 655.713 1628.95 653.408 1627.41 653.408C1626.06 653.408 1626.06 655.713 1627.41 655.713Z" fill="#B1D7FF" fill-opacity="0.6"/>
<path d="M1571.26 655.137C1572.8 655.137 1572.8 652.831 1571.26 652.831C1569.92 652.831 1569.92 655.137 1571.26 655.137Z" fill="#B1D7FF" fill-opacity="0.6"/>
<path d="M1761.43 389.227C1762.97 389.227 1762.97 386.921 1761.43 386.921C1760.08 386.921 1760.08 389.227 1761.43 389.227Z" fill="#B1D7FF" fill-opacity="0.6"/>
<path d="M1736.82 391.533C1738.35 391.533 1738.35 389.227 1736.82 389.227C1735.28 389.227 1735.28 391.533 1736.82 391.533Z" fill="#B1D7FF" fill-opacity="0.6"/>
<path d="M1787.77 311.414C1789.31 311.414 1789.31 309.108 1787.77 309.108C1786.23 309.108 1786.23 311.414 1787.77 311.414Z" fill="#B1D7FF" fill-opacity="0.6"/>
<path d="M1831.8 453.591C1833.34 453.591 1833.34 451.285 1831.8 451.285C1830.46 451.285 1830.46 453.591 1831.8 453.591Z" fill="#B1D7FF" fill-opacity="0.6"/>
<path d="M1866.41 419.007C1867.95 419.007 1867.95 416.702 1866.41 416.702C1865.07 416.702 1865.07 419.007 1866.41 419.007Z" fill="#B1D7FF" fill-opacity="0.6"/>
<path d="M1886.79 190.563C1888.33 190.563 1888.33 188.257 1886.79 188.257C1885.45 188.257 1885.45 190.563 1886.79 190.563Z" fill="#B1D7FF" fill-opacity="0.6"/>
<path d="M1866.41 368.285C1867.95 368.285 1867.95 365.979 1866.41 365.979C1865.07 365.979 1865.07 368.285 1866.41 368.285Z" fill="#B1D7FF" fill-opacity="0.6"/>
<path d="M1846.42 233.6C1847.95 233.6 1847.95 231.295 1846.42 231.295C1844.88 231.487 1844.88 233.6 1846.42 233.6Z" fill="#B1D7FF" fill-opacity="0.6"/>
<path d="M1873.33 383.463C1874.87 383.463 1874.87 381.157 1873.33 381.157C1871.8 381.157 1871.8 383.463 1873.33 383.463Z" fill="#B1D7FF" fill-opacity="0.6"/>
<path d="M1749.89 299.694C1751.43 299.694 1751.43 297.388 1749.89 297.388C1748.35 297.388 1748.35 299.694 1749.89 299.694Z" fill="#B1D7FF" fill-opacity="0.6"/>
<path d="M1497.81 422.85C1499.35 422.85 1499.35 420.544 1497.81 420.544C1496.27 420.544 1496.27 422.85 1497.81 422.85Z" fill="#B1D7FF" fill-opacity="0.6"/>
<path d="M1622.41 415.933C1623.95 415.933 1623.95 413.628 1622.41 413.628C1620.87 413.628 1620.87 415.933 1622.41 415.933Z" fill="#B1D7FF" fill-opacity="0.6"/>
<path d="M1126.13 273.948C1127.67 273.948 1127.67 271.643 1126.13 271.643C1124.59 271.643 1124.59 273.948 1126.13 273.948Z" fill="#B1D7FF" fill-opacity="0.6"/>
<path d="M881.361 294.314C882.899 294.314 882.899 292.008 881.361 292.008C879.822 292.008 879.822 294.314 881.361 294.314Z" fill="#B1D7FF" fill-opacity="0.6"/>
<path d="M788.105 145.412C789.643 145.412 789.643 143.107 788.105 143.107C786.567 143.107 786.567 145.412 788.105 145.412Z" fill="#B1D7FF" fill-opacity="0.6"/>
<path d="M1075.76 267.8C1077.29 267.8 1077.29 265.494 1075.76 265.494C1074.22 265.494 1074.22 267.8 1075.76 267.8Z" fill="#B1D7FF" fill-opacity="0.6"/>
<path d="M812.909 258.001C814.447 258.001 814.447 255.696 812.909 255.696C811.37 255.696 811.37 258.001 812.909 258.001Z" fill="#B1D7FF" fill-opacity="0.6"/>
<path d="M996.343 204.012C997.882 204.012 997.882 201.707 996.343 201.707C994.997 201.707 994.997 204.012 996.343 204.012Z" fill="#B1D7FF" fill-opacity="0.6"/>
<path d="M1360.71 218.614C1362.25 218.614 1362.25 216.309 1360.71 216.309C1359.37 216.309 1359.37 218.614 1360.71 218.614Z" fill="#B1D7FF" fill-opacity="0.6"/>
<path d="M1282.46 132.731C1284 132.731 1284 130.426 1282.46 130.426C1280.92 130.426 1280.92 132.731 1282.46 132.731Z" fill="#B1D7FF" fill-opacity="0.6"/>
<path d="M1831.8 245.897C1833.34 245.897 1833.34 243.591 1831.8 243.591C1830.46 243.591 1830.46 245.897 1831.8 245.897Z" fill="#B1D7FF" fill-opacity="0.6"/>
<path d="M1926.98 350.416C1928.52 350.416 1928.52 348.111 1926.98 348.111C1925.44 348.111 1925.44 350.416 1926.98 350.416Z" fill="#B1D7FF" fill-opacity="0.6"/>
<path d="M1607.03 236.098C1608.56 236.098 1608.56 233.793 1607.03 233.793C1605.49 233.793 1605.49 236.098 1607.03 236.098Z" fill="#B1D7FF" fill-opacity="0.6"/>
<path d="M1477.43 287.397C1478.97 287.397 1478.97 285.092 1477.43 285.092C1475.89 285.284 1475.89 287.397 1477.43 287.397Z" fill="#B1D7FF" fill-opacity="0.6"/>
<path d="M1151.32 218.614C1152.86 218.614 1152.86 216.309 1151.32 216.309C1149.78 216.309 1149.78 218.614 1151.32 218.614Z" fill="#B1D7FF" fill-opacity="0.6"/>
<path d="M1566.26 200.17C1567.8 200.17 1567.8 197.864 1566.26 197.864C1564.72 197.864 1564.72 200.17 1566.26 200.17Z" fill="#B1D7FF" fill-opacity="0.6"/>
<path d="M1889.68 218.614C1891.22 218.614 1891.22 216.309 1889.68 216.309C1888.33 216.309 1888.33 218.614 1889.68 218.614Z" fill="#B1D7FF" fill-opacity="0.6"/>
<path d="M1701.82 297.196C1703.36 297.196 1703.36 294.89 1701.82 294.89C1700.28 294.89 1700.28 297.196 1701.82 297.196Z" fill="#B1D7FF" fill-opacity="0.6"/>
<path d="M1414.75 907.021C1416.28 907.021 1416.28 904.716 1414.75 904.716C1413.21 904.716 1413.21 907.021 1414.75 907.021Z" fill="#B1D7FF" fill-opacity="0.6"/>
<path d="M1366.68 834.203C1368.21 834.203 1368.21 831.898 1366.68 831.898C1365.14 831.898 1365.14 834.203 1366.68 834.203Z" fill="#B1D7FF" fill-opacity="0.6"/>
<path d="M1474.16 119.282C1475.7 119.282 1475.7 116.977 1474.16 116.977C1472.81 117.169 1472.81 119.282 1474.16 119.282Z" fill="#B1D7FF" fill-opacity="0.6"/>
<path d="M497.954 272.027C499.492 272.027 499.492 269.721 497.954 269.721C496.608 269.721 496.608 272.027 497.954 272.027Z" fill="#B1D7FF" fill-opacity="0.6"/>
<path d="M1446.66 873.398C1448.2 873.398 1448.2 871.093 1446.66 871.093C1445.32 871.093 1445.32 873.398 1446.66 873.398Z" fill="#B1D7FF" fill-opacity="0.6"/>
<path d="M1681.44 870.516C1682.98 870.516 1682.98 868.211 1681.44 868.211C1679.9 868.211 1679.9 870.516 1681.44 870.516Z" fill="#B1D7FF" fill-opacity="0.6"/>
<path d="M1707.59 721.999C1709.13 721.999 1709.13 719.693 1707.59 719.693C1706.05 719.693 1706.05 721.999 1707.59 721.999Z" fill="#B1D7FF" fill-opacity="0.6"/>
<path d="M1777.58 701.633C1779.12 701.633 1779.12 699.327 1777.58 699.327C1776.04 699.327 1776.04 701.633 1777.58 701.633Z" fill="#B1D7FF" fill-opacity="0.6"/>
<path d="M1783.35 844.386C1784.89 844.386 1784.89 842.081 1783.35 842.081C1782 842.081 1782 844.386 1783.35 844.386Z" fill="#B1D7FF" fill-opacity="0.6"/>
<path d="M1732.39 707.397C1733.93 707.397 1733.93 705.091 1732.39 705.091C1730.85 705.091 1730.85 707.397 1732.39 707.397Z" fill="#B1D7FF" fill-opacity="0.6"/>
<path d="M1757.2 575.018C1758.74 575.018 1758.74 572.713 1757.2 572.713C1755.66 572.713 1755.66 575.018 1757.2 575.018Z" fill="#B1D7FF" fill-opacity="0.6"/>
<path d="M1720.66 510.846C1722.2 510.846 1722.2 508.541 1720.66 508.541C1719.32 508.541 1719.32 510.846 1720.66 510.846Z" fill="#B1D7FF" fill-opacity="0.6"/>
<path d="M1854.88 555.997C1856.41 555.997 1856.41 553.692 1854.88 553.692C1853.34 553.692 1853.34 555.997 1854.88 555.997Z" fill="#B1D7FF" fill-opacity="0.6"/>
<path d="M1861.99 493.362C1863.53 493.362 1863.53 491.057 1861.99 491.057C1860.64 491.057 1860.64 493.362 1861.99 493.362Z" fill="#B1D7FF" fill-opacity="0.6"/>
<path d="M1821.23 525.448C1822.76 525.448 1822.76 523.143 1821.23 523.143C1819.88 523.143 1819.88 525.448 1821.23 525.448Z" fill="#B1D7FF" fill-opacity="0.6"/>
<path d="M1866.41 529.867C1867.95 529.867 1867.95 527.562 1866.41 527.562C1865.07 527.562 1865.07 529.867 1866.41 529.867Z" fill="#B1D7FF" fill-opacity="0.6"/>
<path d="M672.928 695.869C674.466 695.869 674.466 693.563 672.928 693.563C671.39 693.563 671.39 695.869 672.928 695.869Z" fill="#B1D7FF" fill-opacity="0.6"/>
<path d="M651.008 641.88C652.547 641.88 652.547 639.574 651.008 639.574C649.663 639.574 649.663 641.88 651.008 641.88Z" fill="#B1D7FF" fill-opacity="0.6"/>
<path d="M511.221 736.601C512.759 736.601 512.759 734.295 511.221 734.295C509.683 734.295 509.683 736.601 511.221 736.601Z" fill="#B1D7FF" fill-opacity="0.6"/>
<path d="M476.226 847.268C477.764 847.268 477.764 844.963 476.226 844.963C474.688 844.963 474.688 847.268 476.226 847.268Z" fill="#B1D7FF" fill-opacity="0.6"/>
<path d="M719.653 855.914C721.191 855.914 721.191 853.609 719.653 853.609C718.114 853.801 718.114 855.914 719.653 855.914Z" fill="#B1D7FF" fill-opacity="0.6"/>
<path d="M930.776 723.536C932.314 723.536 932.314 721.23 930.776 721.23C929.43 721.23 929.43 723.536 930.776 723.536Z" fill="#B1D7FF" fill-opacity="0.6"/>
<path d="M802.718 745.247C804.256 745.247 804.256 742.941 802.718 742.941C801.18 743.133 801.18 745.247 802.718 745.247Z" fill="#B1D7FF" fill-opacity="0.6"/>
<path d="M806.948 682.804C808.486 682.804 808.486 680.498 806.948 680.498C805.602 680.498 805.602 682.804 806.948 682.804Z" fill="#B1D7FF" fill-opacity="0.6"/>
<path d="M992.114 647.836C993.652 647.836 993.652 645.53 992.114 645.53C990.575 645.53 990.575 647.836 992.114 647.836Z" fill="#B1D7FF" fill-opacity="0.6"/>
<path d="M909.048 863.215C910.586 863.215 910.586 860.91 909.048 860.91C907.51 860.91 907.51 863.215 909.048 863.215Z" fill="#B1D7FF" fill-opacity="0.6"/>
<path d="M231.453 853.032C232.991 853.032 232.991 850.727 231.453 850.727C229.914 850.727 229.914 853.032 231.453 853.032Z" fill="#B1D7FF" fill-opacity="0.6"/>
<path d="M302.788 733.719C304.327 733.719 304.327 731.413 302.788 731.413C301.25 731.413 301.25 733.719 302.788 733.719Z" fill="#B1D7FF" fill-opacity="0.6"/>
<path d="M339.13 806.536C340.668 806.536 340.668 804.231 339.13 804.231C337.784 804.231 337.784 806.536 339.13 806.536Z" fill="#B1D7FF" fill-opacity="0.6"/>
<path d="M186.267 205.165C187.805 205.165 187.805 202.859 186.267 202.859C184.729 202.859 184.729 205.165 186.267 205.165Z" fill="#B1D7FF" fill-opacity="0.6"/>
<path d="M321.633 288.55C323.171 288.55 323.171 286.245 321.633 286.245C320.287 286.245 320.287 288.55 321.633 288.55Z" fill="#B1D7FF" fill-opacity="0.6"/>
<path d="M164.347 268.184C165.885 268.184 165.885 265.879 164.347 265.879C162.809 265.879 162.809 268.184 164.347 268.184Z" fill="#B1D7FF" fill-opacity="0.6"/>
<path d="M24.3669 193.445C25.9051 193.445 25.9051 191.139 24.3669 191.139C23.0209 191.139 23.0209 193.445 24.3669 193.445Z" fill="#B1D7FF" fill-opacity="0.6"/>
<path d="M71.0912 146.757C72.6294 146.757 72.6294 144.452 71.0912 144.452C69.5529 144.644 69.5529 146.757 71.0912 146.757Z" fill="#B1D7FF" fill-opacity="0.6"/>
<path d="M178.96 174.424C180.499 174.424 180.499 172.118 178.96 172.118C177.422 172.311 177.422 174.424 178.96 174.424Z" fill="#B1D7FF" fill-opacity="0.6"/>
<path d="M298.366 149.831C299.904 149.831 299.904 147.526 298.366 147.526C297.02 147.526 297.02 149.831 298.366 149.831Z" fill="#B1D7FF" fill-opacity="0.6"/>
<path d="M477.572 265.302C479.11 265.302 479.11 262.997 477.572 262.997C476.226 262.997 476.226 265.302 477.572 265.302Z" fill="#B1D7FF" fill-opacity="0.6"/>
<path d="M419.31 237.635C420.848 237.635 420.848 235.33 419.31 235.33C417.964 235.33 417.964 237.635 419.31 237.635Z" fill="#B1D7FF" fill-opacity="0.6"/>
<path d="M471.803 223.033C473.341 223.033 473.341 220.728 471.803 220.728C470.265 220.728 470.265 223.033 471.803 223.033Z" fill="#B1D7FF" fill-opacity="0.6"/>
<path d="M173 223.033C174.538 223.033 174.538 220.728 173 220.728C171.654 220.728 171.654 223.033 173 223.033Z" fill="#B1D7FF" fill-opacity="0.6"/>
<path d="M457.19 268.184C458.728 268.184 458.728 265.879 457.19 265.879C455.844 265.879 455.844 268.184 457.19 268.184Z" fill="#B1D7FF" fill-opacity="0.6"/>
<path d="M646.779 190.563C648.317 190.563 648.317 188.257 646.779 188.257C645.24 188.257 645.24 190.563 646.779 190.563Z" fill="#B1D7FF" fill-opacity="0.6"/>
<path d="M705.039 116.208C706.578 116.208 706.578 113.903 705.039 113.903C703.501 113.903 703.501 116.208 705.039 116.208Z" fill="#B1D7FF" fill-opacity="0.6"/>
<path d="M1005.77 460.124C1007.3 460.124 1007.3 457.818 1005.77 457.818C1004.23 457.818 1004.23 460.124 1005.77 460.124Z" fill="#B1D7FF" fill-opacity="0.6"/>
<path d="M690.426 537.168C691.964 537.168 691.964 534.863 690.426 534.863C688.888 534.863 688.888 537.168 690.426 537.168Z" fill="#B1D7FF" fill-opacity="0.6"/>
<path d="M820.023 343.115C821.561 343.115 821.561 340.81 820.023 340.81C818.677 340.81 818.677 343.115 820.023 343.115Z" fill="#B1D7FF" fill-opacity="0.6"/>
</svg>
